<svg width="139" height="42" viewBox="0 0 139 42" fill="none" xmlns="http://www.w3.org/2000/svg">
<path d="M76.52 28V20.512C76.52 17.176 74.096 16.12 71.456 16.12C69.632 16.12 67.808 16.696 66.392 17.944L67.544 19.984C68.528 19.072 69.68 18.616 70.928 18.616C72.464 18.616 73.472 19.384 73.472 20.56V22.12C72.704 21.208 71.336 20.704 69.8 20.704C67.952 20.704 65.768 21.736 65.768 24.448C65.768 27.04 67.952 28.288 69.8 28.288C71.312 28.288 72.68 27.736 73.472 26.8V28H76.52ZM71.024 26.224C69.824 26.224 68.84 25.6 68.84 24.52C68.84 23.392 69.824 22.768 71.024 22.768C72.008 22.768 72.968 23.104 73.472 23.776V25.216C72.968 25.888 72.008 26.224 71.024 26.224ZM84.4933 28V14.992H89.1493V11.992H76.3813V14.992H81.0613V28H84.4933ZM99.395 28V20.512C99.395 17.176 96.971 16.12 94.331 16.12C92.507 16.12 90.683 16.696 89.267 17.944L90.419 19.984C91.403 19.072 92.555 18.616 93.803 18.616C95.339 18.616 96.347 19.384 96.347 20.56V22.12C95.579 21.208 94.211 20.704 92.675 20.704C90.827 20.704 88.643 21.736 88.643 24.448C88.643 27.04 90.827 28.288 92.675 28.288C94.187 28.288 95.555 27.736 96.347 26.8V28H99.395ZM93.899 26.224C92.699 26.224 91.715 25.6 91.715 24.52C91.715 23.392 92.699 22.768 93.899 22.768C94.883 22.768 95.843 23.104 96.347 23.776V25.216C95.843 25.888 94.883 26.224 93.899 26.224ZM105.466 24.28V20.176C105.97 19.408 107.098 18.832 108.082 18.832C109.858 18.832 111.034 20.2 111.034 22.216C111.034 24.232 109.858 25.576 108.082 25.576C107.098 25.576 105.97 25.024 105.466 24.28ZM105.466 28V26.512C106.378 27.664 107.65 28.288 109.042 28.288C111.97 28.288 114.178 26.08 114.178 22.216C114.178 18.424 111.994 16.12 109.042 16.12C107.674 16.12 106.378 16.72 105.466 17.896V11.992H102.418V28H105.466ZM119.529 28V11.992H116.481V28H119.529ZM127.999 28.288C129.799 28.288 131.623 27.736 132.775 26.68L131.431 24.712C130.687 25.432 129.319 25.864 128.335 25.864C126.367 25.864 125.191 24.64 124.999 23.176H133.615V22.504C133.615 18.712 131.263 16.12 127.807 16.12C124.279 16.12 121.807 18.832 121.807 22.192C121.807 25.912 124.471 28.288 127.999 28.288ZM130.663 21.112H124.951C125.095 19.96 125.911 18.544 127.807 18.544C129.823 18.544 130.591 20.008 130.663 21.112Z" fill="#0066FF"/>
<path d="M16.3755 1H3.62452C1.62275 1 0 2.62275 0 4.62452C0 6.62629 1.62275 8.24904 3.62452 8.24904H16.3755C18.3772 8.24904 20 6.62629 20 4.62452C20 2.62275 18.3772 1 16.3755 1Z" fill="#0A2240"/>
<path d="M36.013 16.9478H3.98697C1.78503 16.9478 0 18.7328 0 20.9347C0 23.1367 1.78503 24.9217 3.98697 24.9217H36.013C38.215 24.9217 40 23.1367 40 20.9347C40 18.7328 38.215 16.9478 36.013 16.9478Z" fill="#0A2240"/>
<path d="M36.3755 33.751H23.6245C21.6228 33.751 20 35.3737 20 37.3755C20 39.3773 21.6228 41 23.6245 41H36.3755C38.3772 41 40 39.3773 40 37.3755C40 35.3737 38.3772 33.751 36.3755 33.751Z" fill="#0A2240"/>
</svg>
