<svg width="1602" height="1426" viewBox="0 0 1602 1426" fill="none" xmlns="http://www.w3.org/2000/svg">
<path d="M1506.27 831.56C1449.99 928.954 1468.56 1067.97 1501.1 1178.73C1511.99 1215.8 1524.37 1255.02 1518.72 1295.36C1511.82 1344.67 1479.39 1381.62 1445.67 1401.74C1384.21 1438.42 1311.6 1432.56 1256.62 1386.35C1209.18 1346.47 1175.78 1280.18 1127.42 1242.2C1046.47 1178.66 941.386 1207.05 851.298 1255.56C787.563 1289.88 717.747 1334.08 655.636 1302.39C611.929 1280.09 582.499 1223.33 567.014 1162.65C559.538 1133.35 554.305 1101.55 539.41 1078.62C530.553 1064.98 518.85 1055.48 506.816 1047.54C396.988 975.022 255.716 1020.35 149.237 939.433C77.3503 884.79 32.6079 778.748 14.018 667.268C-4.57194 555.787 0.0288168 438.106 7.43316 322.438C12.6953 240.237 21.0198 152.398 60.2124 87.8013C101.662 19.5062 171.134 -7.63422 233.258 3.0624C295.383 13.759 351.081 57.2707 399.806 109.213C460.751 174.009 516.823 255.357 592.62 279.96C644.25 296.712 699.099 284.855 752.77 279.615C842.485 270.877 931.883 280.939 1020.74 292.306C1105.79 303.184 1191.44 315.331 1271.99 350.992C1329 376.229 1374.19 423.929 1427.86 456.526C1462.84 477.774 1501.33 482.706 1534.25 510.154C1574.88 543.967 1611.6 603.868 1599.68 675.752C1588.43 744.084 1536.18 779.872 1506.27 831.56Z" fill="#EDF0F4"/>
<g opacity="0.5">
<path opacity="0.5" fill-rule="evenodd" clip-rule="evenodd" d="M1086.7 812.682C1087.33 822.417 1087.06 832.19 1085.91 841.877L1085.91 841.879C1083.42 862.391 1074.04 881.332 1059.76 896.236C1043.11 913.632 1034.22 937.781 1029.5 957.669C1027.14 967.6 1025.83 976.439 1025.12 982.793C1024.76 985.969 1024.54 988.524 1024.42 990.281C1024.36 991.16 1024.32 991.84 1024.3 992.298C1024.29 992.527 1024.28 992.701 1024.27 992.817C1024.27 992.875 1024.27 992.919 1024.27 992.948L1024.27 992.979L1024.27 992.988C1024.27 992.989 1024.27 992.989 1023.27 992.955C1022.27 992.921 1022.27 992.921 1022.27 992.92L1022.27 992.908L1022.27 992.872C1022.27 992.84 1022.27 992.794 1022.27 992.733C1022.28 992.612 1022.29 992.432 1022.3 992.197C1022.32 991.726 1022.36 991.034 1022.43 990.142C1022.55 988.359 1022.76 985.776 1023.13 982.568C1023.85 976.153 1025.18 967.233 1027.55 957.208C1032.3 937.183 1041.3 912.627 1058.32 894.853C1072.31 880.242 1081.49 861.696 1083.92 841.639C1085.06 832.074 1085.33 822.424 1084.71 812.81L1086.7 812.682Z" fill="#535461"/>
<path opacity="0.5" d="M1106.8 790.469C1104.49 797.421 1085.23 813.389 1085.23 813.389C1085.23 813.389 1079.33 789.062 1081.63 782.116C1082.18 780.463 1083.05 778.935 1084.19 777.618C1085.32 776.301 1086.71 775.221 1088.27 774.44C1089.82 773.659 1091.52 773.192 1093.25 773.066C1094.99 772.94 1096.73 773.157 1098.39 773.705C1100.04 774.253 1101.57 775.121 1102.89 776.26C1104.2 777.399 1105.28 778.786 1106.06 780.342C1106.84 781.898 1107.31 783.593 1107.44 785.329C1107.56 787.066 1107.35 788.81 1106.8 790.462V790.469Z" fill="#0066FF"/>
<path opacity="0.5" d="M1114.83 835.864C1109.1 840.448 1084.27 843.389 1084.27 843.389C1084.27 843.389 1092.54 819.762 1098.27 815.185C1099.62 814.012 1101.19 813.123 1102.89 812.573C1104.59 812.022 1106.38 811.821 1108.16 811.981C1109.94 812.141 1111.67 812.66 1113.25 813.505C1114.82 814.35 1116.21 815.505 1117.32 816.899C1118.44 818.294 1119.26 819.9 1119.74 821.621C1120.22 823.342 1120.35 825.143 1120.12 826.914C1119.88 828.685 1119.29 830.391 1118.39 831.929C1117.48 833.467 1116.27 834.806 1114.83 835.864V835.864Z" fill="#0066FF"/>
<path opacity="0.5" d="M1092.11 901.338C1084.86 902.408 1061.93 892.425 1061.93 892.425C1061.93 892.425 1080.99 876.202 1088.23 875.133C1089.95 874.878 1091.71 874.965 1093.4 875.389C1095.09 875.813 1096.68 876.565 1098.07 877.603C1099.47 878.641 1100.65 879.944 1101.55 881.438C1102.44 882.932 1103.03 884.587 1103.29 886.309C1103.54 888.032 1103.45 889.787 1103.03 891.476C1102.61 893.165 1101.85 894.753 1100.82 896.151C1099.78 897.549 1098.48 898.729 1096.98 899.623C1095.49 900.518 1093.83 901.109 1092.11 901.363V901.338Z" fill="#0066FF"/>
<path opacity="0.5" d="M1063.76 947.013C1056.8 949.292 1032.5 943.307 1032.5 943.307C1032.5 943.307 1048.55 924.099 1055.51 921.82C1058.85 920.722 1062.49 920.997 1065.63 922.583C1068.77 924.169 1071.15 926.937 1072.24 930.278C1073.34 933.619 1073.07 937.258 1071.48 940.397C1069.89 943.535 1067.13 945.915 1063.78 947.013H1063.76Z" fill="#0066FF"/>
<path opacity="0.5" d="M1057.39 835.971C1060.77 842.465 1082.36 855.18 1082.36 855.18C1082.36 855.18 1084.32 830.229 1080.94 823.728C1080.13 822.184 1079.03 820.813 1077.7 819.694C1076.37 818.575 1074.83 817.729 1073.17 817.205C1071.51 816.681 1069.76 816.49 1068.02 816.641C1066.29 816.792 1064.6 817.284 1063.06 818.087C1061.51 818.891 1060.14 819.991 1059.02 821.324C1057.9 822.657 1057.06 824.198 1056.54 825.858C1056.01 827.518 1055.82 829.265 1055.97 830.999C1056.12 832.733 1056.61 834.421 1057.42 835.965L1057.39 835.971Z" fill="#0066FF"/>
<path opacity="0.5" d="M1024.92 889.802C1030.09 894.991 1054.46 900.67 1054.46 900.67C1054.46 900.67 1048.86 876.273 1043.7 871.084C1041.22 868.593 1037.85 867.19 1034.33 867.184C1030.82 867.177 1027.44 868.567 1024.95 871.049C1022.46 873.53 1021.06 876.899 1021.05 880.415C1021.04 883.93 1022.43 887.305 1024.92 889.795V889.802Z" fill="#0066FF"/>
<path opacity="0.5" d="M1000.53 946.459C1004.75 952.443 1027.81 962.165 1027.81 962.165C1027.81 962.165 1026.42 937.176 1022.2 931.185C1021.23 929.7 1019.96 928.426 1018.48 927.44C1017 926.453 1015.34 925.774 1013.6 925.444C1011.85 925.113 1010.05 925.136 1008.32 925.513C1006.58 925.89 1004.94 926.613 1003.48 927.638C1002.03 928.663 1000.8 929.97 999.863 931.48C998.926 932.991 998.302 934.675 998.029 936.431C997.756 938.188 997.839 939.981 998.273 941.705C998.708 943.428 999.484 945.047 1000.56 946.465L1000.53 946.459Z" fill="#0066FF"/>
<path opacity="0.5" fill-rule="evenodd" clip-rule="evenodd" d="M1000.65 867.994C1004.08 872.053 1007.12 876.416 1009.75 881.03L1009.75 881.037C1015.25 890.875 1017.41 902.23 1015.9 913.399C1014.26 926.21 1018.12 939.495 1022.45 949.643C1024.61 954.705 1026.88 958.959 1028.6 961.946C1029.46 963.439 1030.19 964.614 1030.69 965.413C1030.95 965.813 1031.15 966.119 1031.28 966.324C1031.34 966.41 1031.39 966.478 1031.42 966.528L1031.44 966.555L1031.48 966.612L1031.49 966.625L1031.49 966.628C1031.49 966.628 1031.49 966.629 1030.66 967.195C1029.84 967.762 1029.84 967.761 1029.84 967.761L1029.84 967.755L1029.82 967.738L1029.78 967.674C1029.74 967.618 1029.69 967.536 1029.62 967.429C1029.47 967.214 1029.27 966.898 1029.01 966.487C1028.48 965.665 1027.74 964.465 1026.87 962.945C1025.11 959.905 1022.81 955.579 1020.61 950.428C1016.23 940.149 1012.21 926.472 1013.92 913.142L1013.92 913.136C1015.37 902.396 1013.29 891.476 1008.01 882.016C1005.44 877.51 1002.47 873.248 999.124 869.284L1000.65 867.994Z" fill="#535461"/>
<path opacity="0.5" d="M1001.91 852.149C1003.14 855.918 999.888 869.072 999.888 869.072C999.888 869.072 989.492 860.375 988.263 856.612C987.672 854.803 987.824 852.833 988.685 851.136C989.547 849.438 991.047 848.153 992.856 847.562C994.666 846.971 996.636 847.123 998.333 847.984C1000.03 848.846 1001.32 850.346 1001.91 852.155V852.149Z" fill="#0066FF"/>
<path opacity="0.5" d="M1020.01 869.333C1018.99 873.153 1009.11 882.442 1009.11 882.442C1009.11 882.442 1005.12 869.492 1006.13 865.659C1006.61 863.819 1007.81 862.247 1009.46 861.29C1011.1 860.333 1013.06 860.069 1014.9 860.556C1016.74 861.044 1018.32 862.242 1019.27 863.888C1020.23 865.534 1020.49 867.492 1020.01 869.333V869.333Z" fill="#0066FF"/>
<path opacity="0.5" d="M1031.17 905.152C1028.37 907.947 1015.16 910.971 1015.16 910.971C1015.16 910.971 1018.24 897.773 1021.05 894.978C1021.72 894.313 1022.51 893.787 1023.39 893.429C1024.26 893.07 1025.19 892.888 1026.13 892.891C1027.08 892.894 1028.01 893.082 1028.88 893.446C1029.75 893.809 1030.54 894.341 1031.21 895.01C1031.87 895.679 1032.4 896.472 1032.75 897.344C1033.11 898.216 1033.3 899.151 1033.29 900.094C1033.29 901.037 1033.1 901.97 1032.74 902.84C1032.37 903.71 1031.84 904.5 1031.17 905.165V905.152Z" fill="#0066FF"/>
<path opacity="0.5" d="M1033.52 934.165C1031.22 937.393 1018.69 942.595 1018.69 942.595C1018.69 942.595 1019.5 929.065 1021.8 925.838C1022.34 925.069 1023.03 924.416 1023.83 923.915C1024.63 923.414 1025.52 923.075 1026.45 922.918C1027.38 922.761 1028.33 922.788 1029.25 922.998C1030.17 923.209 1031.04 923.598 1031.8 924.144C1032.57 924.69 1033.23 925.382 1033.73 926.18C1034.23 926.979 1034.57 927.868 1034.72 928.797C1034.88 929.727 1034.85 930.678 1034.64 931.597C1034.43 932.516 1034.04 933.384 1033.5 934.152L1033.52 934.165Z" fill="#0066FF"/>
<path opacity="0.5" d="M995.03 887.84C998.589 889.585 1012.07 888.184 1012.07 888.184C1012.07 888.184 1004.89 876.686 1001.33 874.948C999.624 874.112 997.652 873.99 995.852 874.608C994.052 875.225 992.571 876.533 991.735 878.243C990.9 879.952 990.777 881.924 991.395 883.724C992.013 885.524 993.321 887.005 995.03 887.84V887.84Z" fill="#0066FF"/>
<path opacity="0.5" d="M998.208 921.744C1002.13 922.342 1014.57 916.975 1014.57 916.975C1014.57 916.975 1004.28 908.151 1000.37 907.578C998.484 907.292 996.565 907.765 995.032 908.893C993.499 910.021 992.477 911.712 992.191 913.594C991.905 915.476 992.378 917.395 993.506 918.928C994.634 920.461 996.326 921.483 998.208 921.769V921.744Z" fill="#0066FF"/>
<path opacity="0.5" d="M1005.81 954.257C1009.57 955.531 1022.74 952.347 1022.74 952.347C1022.74 952.347 1014.1 941.912 1010.34 940.658C1008.53 940.058 1006.56 940.2 1004.86 941.053C1003.15 941.906 1001.86 943.4 1001.26 945.207C1000.66 947.014 1000.8 948.985 1001.66 950.687C1002.51 952.389 1004 953.683 1005.81 954.283V954.257Z" fill="#0066FF"/>
<path opacity="0.5" d="M1001.91 852.149C1003.14 855.918 999.888 869.072 999.888 869.072C999.888 869.072 989.492 860.375 988.263 856.612C987.672 854.803 987.824 852.833 988.685 851.136C989.547 849.438 991.047 848.153 992.856 847.562C994.666 846.971 996.636 847.123 998.333 847.984C1000.03 848.846 1001.32 850.346 1001.91 852.155V852.149Z" fill="white"/>
<path opacity="0.5" d="M1020.01 869.333C1018.99 873.153 1009.11 882.442 1009.11 882.442C1009.11 882.442 1005.12 869.492 1006.13 865.659C1006.61 863.819 1007.81 862.247 1009.46 861.29C1011.1 860.333 1013.06 860.069 1014.9 860.556C1016.74 861.044 1018.32 862.242 1019.27 863.888C1020.23 865.534 1020.49 867.492 1020.01 869.333V869.333Z" fill="white"/>
<path opacity="0.5" d="M1031.17 905.152C1028.37 907.947 1015.16 910.971 1015.16 910.971C1015.16 910.971 1018.24 897.773 1021.05 894.978C1021.72 894.313 1022.51 893.787 1023.39 893.429C1024.26 893.07 1025.19 892.888 1026.13 892.891C1027.08 892.894 1028.01 893.082 1028.88 893.446C1029.75 893.809 1030.54 894.341 1031.21 895.01C1031.87 895.679 1032.4 896.472 1032.75 897.344C1033.11 898.216 1033.3 899.151 1033.29 900.094C1033.29 901.037 1033.1 901.97 1032.74 902.84C1032.37 903.71 1031.84 904.5 1031.17 905.165V905.152Z" fill="white"/>
<path opacity="0.5" d="M1033.52 934.165C1031.22 937.393 1018.69 942.595 1018.69 942.595C1018.69 942.595 1019.5 929.065 1021.8 925.838C1022.34 925.069 1023.03 924.416 1023.83 923.915C1024.63 923.414 1025.52 923.075 1026.45 922.918C1027.38 922.761 1028.33 922.788 1029.25 922.998C1030.17 923.209 1031.04 923.598 1031.8 924.144C1032.57 924.69 1033.23 925.382 1033.73 926.18C1034.23 926.979 1034.57 927.868 1034.72 928.797C1034.88 929.727 1034.85 930.678 1034.64 931.597C1034.43 932.516 1034.04 933.384 1033.5 934.152L1033.52 934.165Z" fill="white"/>
<path opacity="0.5" d="M995.03 887.84C998.589 889.585 1012.07 888.184 1012.07 888.184C1012.07 888.184 1004.89 876.686 1001.33 874.948C999.624 874.112 997.652 873.99 995.852 874.608C994.052 875.225 992.571 876.533 991.735 878.243C990.9 879.952 990.777 881.924 991.395 883.724C992.013 885.524 993.321 887.005 995.03 887.84V887.84Z" fill="white"/>
<path opacity="0.5" d="M998.208 921.744C1002.13 922.342 1014.57 916.975 1014.57 916.975C1014.57 916.975 1004.28 908.151 1000.37 907.578C998.484 907.292 996.565 907.765 995.032 908.893C993.499 910.021 992.477 911.712 992.191 913.594C991.905 915.476 992.378 917.395 993.506 918.928C994.634 920.461 996.326 921.483 998.208 921.769V921.744Z" fill="white"/>
<path opacity="0.5" d="M1005.81 954.257C1009.57 955.531 1022.74 952.347 1022.74 952.347C1022.74 952.347 1014.1 941.912 1010.34 940.658C1008.53 940.058 1006.56 940.2 1004.86 941.053C1003.15 941.906 1001.86 943.4 1001.26 945.207C1000.66 947.014 1000.8 948.985 1001.66 950.687C1002.51 952.389 1004 953.683 1005.81 954.283V954.257Z" fill="white"/>
<path opacity="0.5" d="M995.323 1042.53H1049.65L1063.24 959.683H981.743L995.323 1042.53Z" fill="#474059"/>
<path opacity="0.1" d="M992.14 959.683L1004.83 1037.1H1050.54L1049.65 1042.53H995.323L981.743 959.683H992.14Z" fill="black"/>
</g>
<path d="M1005.62 570.238H607.07V1051.11H1005.62V570.238Z" fill="url(#paint0_linear)"/>
<path d="M1000.53 576.389H612.164V1044.98H1000.53V576.389Z" fill="white"/>
<path d="M919.674 629.232H763.054V636.872H919.674V629.232Z" fill="#C0BCCF"/>
<path d="M919.674 653.426H763.054V661.066H919.674V653.426Z" fill="#C0BCCF"/>
<path d="M882.111 677.619H800.617V685.259H882.111V677.619Z" fill="#0066FF"/>
<path opacity="0.5" d="M919.674 782.668H763.054V790.308H919.674V782.668Z" fill="#C0BCCF"/>
<path opacity="0.5" d="M919.674 806.861H763.054V814.501H919.674V806.861Z" fill="#C0BCCF"/>
<path opacity="0.5" d="M882.111 831.055H800.617V838.695H882.111V831.055Z" fill="#0066FF"/>
<path opacity="0.5" d="M919.674 936.105H763.054V943.745H919.674V936.105Z" fill="#C0BCCF"/>
<path opacity="0.5" d="M919.674 960.299H763.054V967.939H919.674V960.299Z" fill="#C0BCCF"/>
<path opacity="0.5" d="M882.111 984.492H800.617V992.132H882.111V984.492Z" fill="#0066FF"/>
<g opacity="0.5">
<path opacity="0.5" d="M707.912 825.281L704.627 823.804C704.677 823.304 704.699 822.803 704.691 822.301C704.714 821.877 704.714 821.452 704.691 821.028C704.366 817.679 702.233 814.763 700.724 811.7C699.343 808.905 698.466 805.888 698.133 802.787C697.732 798.967 698.133 795.007 696.733 791.416C695.593 788.519 693.339 786.1 690.926 783.961C688.218 781.419 685.053 779.412 681.599 778.046C678.072 776.773 674.016 776.448 670.489 777.747C667.306 778.918 664.855 781.255 662.486 783.528C660.766 785.043 659.247 786.772 657.966 788.672C656.521 791.041 655.903 793.766 655.419 796.452C654.659 800.754 654.136 805.094 653.853 809.453C653.605 813.088 653.216 817.214 650.109 819.442C648.594 820.531 646.461 821.142 645.767 822.791C645.571 823.286 645.492 823.82 645.538 824.351C645.519 824.793 645.551 825.235 645.634 825.669C645.678 825.924 645.729 826.172 645.793 826.427C644.901 828.643 644.152 830.914 643.552 833.226C643.087 834.945 642.66 836.632 642.278 838.269H643.31H643.857L649.791 838.409H649.874L656.24 838.555H656.272L662.206 838.695H662.352L664.065 838.816H664.625L688.354 839.364H688.481L690.06 839.402H690.614L695.364 839.51L702.367 839.669H702.418L707.69 839.797H708.25H709.332L709.052 834.27C710.211 825.809 707.912 825.281 707.912 825.281ZM681.255 824.606C681.255 829.292 676.238 835.028 676.238 835.028L671.189 828.152L671.374 827.885L676.238 834.506C676.238 834.506 681.255 828.776 681.255 824.084C681.372 823.845 681.506 823.615 681.656 823.396L681.771 823.753C681.578 824.024 681.406 824.309 681.255 824.606V824.606ZM688.972 842.993C688.972 842.757 688.972 842.515 688.927 842.28C688.882 842.044 688.889 841.834 688.857 841.605C688.825 841.376 688.8 841.153 688.768 840.924C688.736 840.694 688.691 840.471 688.647 840.242C688.602 840.013 688.558 839.79 688.507 839.561C688.507 839.485 688.475 839.415 688.456 839.332C688.386 839.033 688.309 838.733 688.227 838.434C688.144 838.135 688.093 837.95 688.017 837.715C688.017 837.606 687.953 837.498 687.915 837.396C687.876 837.294 687.806 837.053 687.749 836.881L687.635 836.55C687.584 836.403 687.533 836.25 687.475 836.104C687.38 835.837 687.278 835.575 687.176 835.308C687.074 835.041 686.966 834.78 686.858 834.519C686.641 833.984 686.406 833.455 686.17 832.921C685.247 830.858 684.209 828.827 683.254 826.815C682.742 825.762 682.287 824.683 681.892 823.581L681.771 823.74C681.578 824.013 681.406 824.3 681.255 824.599C681.255 829.285 676.238 835.022 676.238 835.022L671.189 828.146L666.771 834.512C666.134 834.831 665.498 835.913 665.001 837.454C664.861 837.867 664.727 838.326 664.6 838.803C664.511 839.128 664.428 839.44 664.352 839.803C664.307 839.975 664.269 840.147 664.231 840.325L664.116 840.866V840.949C664.04 841.318 663.963 841.7 663.893 842.089C663.823 842.477 663.74 842.923 663.67 843.362C663.619 843.638 663.575 843.912 663.537 844.183C663.448 844.712 663.371 845.246 663.295 845.781C663.25 846.093 663.206 846.418 663.167 846.704L663.015 847.889C663.339 848.863 663.702 849.799 664.078 850.779C664.317 851.294 664.457 851.849 664.492 852.415C672.324 854.504 680.566 854.504 688.399 852.415C688.396 852.396 688.396 852.377 688.399 852.358C688.281 851.825 688.23 851.28 688.246 850.735C688.374 849.205 688.587 847.683 688.882 846.176C688.977 845.433 689.017 844.684 689.003 843.935V843.668C688.984 843.426 688.978 843.209 688.972 842.999V842.993ZM688.972 842.993C688.972 842.757 688.972 842.515 688.927 842.28C688.882 842.044 688.889 841.834 688.857 841.605C688.825 841.376 688.8 841.153 688.768 840.924C688.736 840.694 688.691 840.471 688.647 840.242C688.602 840.013 688.558 839.79 688.507 839.561C688.507 839.485 688.475 839.415 688.456 839.332C688.386 839.033 688.309 838.733 688.227 838.434C688.144 838.135 688.093 837.95 688.017 837.715C688.017 837.606 687.953 837.498 687.915 837.396C687.876 837.294 687.806 837.053 687.749 836.881L687.635 836.55C687.584 836.403 687.533 836.25 687.475 836.104C687.38 835.837 687.278 835.575 687.176 835.308C687.074 835.041 686.966 834.78 686.858 834.519C686.641 833.984 686.406 833.455 686.17 832.921C685.247 830.858 684.209 828.827 683.254 826.815C682.742 825.762 682.287 824.683 681.892 823.581L681.771 823.74C681.578 824.013 681.406 824.3 681.255 824.599C681.255 829.285 676.238 835.022 676.238 835.022L671.189 828.146L666.771 834.512C666.134 834.831 665.498 835.913 665.001 837.454C664.861 837.867 664.727 838.326 664.6 838.803C664.511 839.128 664.428 839.44 664.352 839.803C664.307 839.975 664.269 840.147 664.231 840.325L664.116 840.866V840.949C664.04 841.318 663.963 841.7 663.893 842.089C663.823 842.477 663.74 842.923 663.67 843.362C663.619 843.638 663.575 843.912 663.537 844.183C663.448 844.712 663.371 845.246 663.295 845.781C663.25 846.093 663.206 846.418 663.167 846.704L663.015 847.889C663.339 848.863 663.702 849.799 664.078 850.779C664.317 851.294 664.457 851.849 664.492 852.415C672.324 854.504 680.566 854.504 688.399 852.415C688.396 852.396 688.396 852.377 688.399 852.358C688.281 851.825 688.23 851.28 688.246 850.735C688.374 849.205 688.587 847.683 688.882 846.176C688.977 845.433 689.017 844.684 689.003 843.935V843.668C688.984 843.426 688.978 843.209 688.972 842.999V842.993ZM688.972 842.993C688.972 842.757 688.972 842.515 688.927 842.28C688.882 842.044 688.889 841.834 688.857 841.605C688.825 841.376 688.8 841.153 688.768 840.924C688.736 840.694 688.691 840.471 688.647 840.242C688.602 840.013 688.558 839.79 688.507 839.561C688.507 839.485 688.475 839.415 688.456 839.332C688.386 839.033 688.309 838.733 688.227 838.434C688.144 838.135 688.093 837.95 688.017 837.715C688.017 837.606 687.953 837.498 687.915 837.396C687.876 837.294 687.806 837.053 687.749 836.881L687.635 836.55C687.584 836.403 687.533 836.25 687.475 836.104C687.38 835.837 687.278 835.575 687.176 835.308C687.074 835.041 686.966 834.78 686.858 834.519C686.641 833.984 686.406 833.455 686.17 832.921C685.247 830.858 684.209 828.827 683.254 826.815C682.742 825.762 682.287 824.683 681.892 823.581L681.771 823.74C681.578 824.013 681.406 824.3 681.255 824.599C681.255 829.285 676.238 835.022 676.238 835.022L671.189 828.146L666.771 834.512C666.134 834.831 665.498 835.913 665.001 837.454C664.861 837.867 664.727 838.326 664.6 838.803C664.511 839.128 664.428 839.44 664.352 839.803C664.307 839.975 664.269 840.147 664.231 840.325L664.116 840.866V840.949C664.04 841.318 663.963 841.7 663.893 842.089C663.823 842.477 663.74 842.923 663.67 843.362C663.619 843.638 663.575 843.912 663.537 844.183C663.448 844.712 663.371 845.246 663.295 845.781C663.25 846.093 663.206 846.418 663.167 846.704L663.015 847.889C663.339 848.863 663.702 849.799 664.078 850.779C664.317 851.294 664.457 851.849 664.492 852.415C672.324 854.504 680.566 854.504 688.399 852.415C688.396 852.396 688.396 852.377 688.399 852.358C688.281 851.825 688.23 851.28 688.246 850.735C688.374 849.205 688.587 847.683 688.882 846.176C688.977 845.433 689.017 844.684 689.003 843.935V843.668C688.984 843.426 688.978 843.209 688.972 842.999V842.993ZM688.972 842.993C688.972 842.757 688.972 842.515 688.927 842.28C688.882 842.044 688.889 841.834 688.857 841.605C688.825 841.376 688.8 841.153 688.768 840.924C688.736 840.694 688.691 840.471 688.647 840.242C688.602 840.013 688.558 839.79 688.507 839.561C688.507 839.485 688.475 839.415 688.456 839.332C688.386 839.033 688.309 838.733 688.227 838.434C688.144 838.135 688.093 837.95 688.017 837.715C688.017 837.606 687.953 837.498 687.915 837.396C687.876 837.294 687.806 837.053 687.749 836.881L687.635 836.55C687.584 836.403 687.533 836.25 687.475 836.104C687.38 835.837 687.278 835.575 687.176 835.308C687.074 835.041 686.966 834.78 686.858 834.519C686.641 833.984 686.406 833.455 686.17 832.921C685.247 830.858 684.209 828.827 683.254 826.815C682.742 825.762 682.287 824.683 681.892 823.581L681.771 823.74C681.578 824.013 681.406 824.3 681.255 824.599C681.255 829.285 676.238 835.022 676.238 835.022L671.189 828.146L666.771 834.512C666.134 834.831 665.498 835.913 665.001 837.454C664.861 837.867 664.727 838.326 664.6 838.803C664.511 839.128 664.428 839.44 664.352 839.803C664.307 839.975 664.269 840.147 664.231 840.325L664.116 840.866V840.949C664.04 841.318 663.963 841.7 663.893 842.089C663.823 842.477 663.74 842.923 663.67 843.362C663.619 843.638 663.575 843.912 663.537 844.183C663.448 844.712 663.371 845.246 663.295 845.781C663.25 846.093 663.206 846.418 663.167 846.704L663.015 847.889C663.339 848.863 663.702 849.799 664.078 850.779C664.317 851.294 664.457 851.849 664.492 852.415C672.324 854.504 680.566 854.504 688.399 852.415C688.396 852.396 688.396 852.377 688.399 852.358C688.281 851.825 688.23 851.28 688.246 850.735C688.374 849.205 688.587 847.683 688.882 846.176C688.977 845.433 689.017 844.684 689.003 843.935V843.668C688.984 843.426 688.978 843.209 688.972 842.999V842.993Z" fill="url(#paint1_linear)"/>
<path opacity="0.5" d="M689.201 798.585H659.914V818.322H689.201V798.585Z" fill="#493545"/>
<path opacity="0.5" d="M694.065 820.353L681.809 837.619L668.999 836.505C668.999 836.505 652.287 837.613 663.429 824.809C668.783 818.653 670.534 813.521 670.909 809.86C671.317 805.9 670.114 803.647 670.114 803.647L684.038 801.979C683.409 803.855 683.33 805.871 683.808 807.791C685.553 815.024 694.065 820.353 694.065 820.353Z" fill="#C77485"/>
<path opacity="0.1" d="M683.802 807.772C681.986 809.147 679.86 810.056 677.611 810.418C675.362 810.779 673.058 810.584 670.903 809.848C671.31 805.888 670.107 803.634 670.107 803.634L684.031 801.966C683.404 803.84 683.324 805.854 683.802 807.772Z" fill="black"/>
<path opacity="0.5" d="M675.404 810.038C683.094 810.038 689.328 803.804 689.328 796.114C689.328 788.424 683.094 782.19 675.404 782.19C667.714 782.19 661.48 788.424 661.48 796.114C661.48 803.804 667.714 810.038 675.404 810.038Z" fill="#C77485"/>
<path opacity="0.1" d="M693.555 821.066L693.231 819.793L692.951 818.672L692.537 817.017L692.46 816.711L692.397 816.457C692.397 816.457 692.728 815.457 690.544 815.782L690.136 815.852C689.793 815.922 689.392 816.017 688.933 816.145L688.519 816.272L687.972 816.444C686.238 817.008 684.657 817.962 683.35 819.232C682.763 819.794 682.243 820.422 681.802 821.104C681.758 821.168 681.726 821.225 681.688 821.276C681.537 821.513 681.403 821.759 681.287 822.015C681.287 827.032 676.27 833.156 676.27 833.156L671.374 826.083L671.278 825.943L670.113 824.249L669.699 823.702L669.559 823.511L667.013 820.092L666.376 819.239L666.166 818.952L665.854 818.538L665.122 817.564L662.257 819.239L658.437 821.467L656.208 835.951V836.352L656.278 837.549L656.743 845.419V845.527L655.928 848.787L656.049 848.85C657.972 849.887 659.973 850.773 662.034 851.499L662.575 851.69C663.212 851.9 663.81 852.091 664.434 852.276C664.457 852.37 664.474 852.465 664.485 852.562C664.485 852.473 664.485 852.377 664.485 852.288C672.298 854.521 680.579 854.521 688.392 852.288L688.538 852.244C688.901 852.142 689.271 852.034 689.627 851.913L690.206 851.728C691.778 851.203 693.317 850.586 694.816 849.882L695.351 838.485L695.733 830.266V829.795L693.555 821.066Z" fill="black"/>
<path opacity="0.5" d="M688.971 842.235C688.971 841.981 688.971 841.726 688.927 841.471C688.882 841.217 688.889 840.994 688.857 840.752C688.825 840.51 688.799 840.268 688.768 840.026C688.736 839.784 688.691 839.542 688.647 839.3C688.602 839.058 688.558 838.817 688.507 838.575C688.507 838.492 688.475 838.415 688.456 838.333C688.386 838.014 688.309 837.696 688.226 837.371C688.144 837.047 688.093 836.856 688.016 836.601C688.016 836.486 687.953 836.372 687.914 836.263C687.876 836.155 687.806 835.894 687.749 835.71L687.634 835.353C687.583 835.194 687.532 835.035 687.475 834.876C687.38 834.589 687.278 834.309 687.176 834.022C687.074 833.736 686.966 833.456 686.858 833.176C686.641 832.603 686.406 832.036 686.17 831.469C685.247 829.266 684.209 827.095 683.254 824.944C682.741 823.815 682.286 822.661 681.892 821.486L681.771 821.658C681.577 821.951 681.405 822.258 681.255 822.575C681.255 827.586 676.238 833.717 676.238 833.717L671.189 826.363L666.771 833.157C666.134 833.494 665.497 834.653 665.001 836.302C664.861 836.747 664.727 837.231 664.6 837.747C664.511 838.091 664.428 838.454 664.351 838.817C664.307 839.001 664.269 839.186 664.23 839.377L664.116 839.956V840.045C664.039 840.44 663.963 840.847 663.893 841.261C663.823 841.675 663.74 842.153 663.67 842.605C663.619 842.898 663.575 843.19 663.536 843.483C663.447 844.05 663.371 844.623 663.295 845.19C663.25 845.521 663.205 845.826 663.167 846.176L663.014 847.45C663.339 848.494 663.702 849.525 664.078 850.538C664.318 851.092 664.458 851.685 664.491 852.288C672.304 854.521 680.586 854.521 688.398 852.288C688.396 852.267 688.396 852.246 688.398 852.225C688.281 851.653 688.229 851.07 688.246 850.487V850.487C688.374 848.853 688.587 847.228 688.882 845.616C688.976 844.822 689.017 844.022 689.003 843.222V842.936C688.984 842.694 688.978 842.465 688.971 842.235ZM688.971 842.235C688.971 841.981 688.971 841.726 688.927 841.471C688.882 841.217 688.889 840.994 688.857 840.752C688.825 840.51 688.799 840.268 688.768 840.026C688.736 839.784 688.691 839.542 688.647 839.3C688.602 839.058 688.558 838.817 688.507 838.575C688.507 838.492 688.475 838.415 688.456 838.333C688.386 838.014 688.309 837.696 688.226 837.371C688.144 837.047 688.093 836.856 688.016 836.601C688.016 836.486 687.953 836.372 687.914 836.263C687.876 836.155 687.806 835.894 687.749 835.71L687.634 835.353C687.583 835.194 687.532 835.035 687.475 834.876C687.38 834.589 687.278 834.309 687.176 834.022C687.074 833.736 686.966 833.456 686.858 833.176C686.641 832.603 686.406 832.036 686.17 831.469C685.247 829.266 684.209 827.095 683.254 824.944C682.741 823.815 682.286 822.661 681.892 821.486L681.771 821.658C681.577 821.951 681.405 822.258 681.255 822.575C681.255 827.586 676.238 833.717 676.238 833.717L671.189 826.363L666.771 833.157C666.134 833.494 665.497 834.653 665.001 836.302C664.861 836.747 664.727 837.231 664.6 837.747C664.511 838.091 664.428 838.454 664.351 838.817C664.307 839.001 664.269 839.186 664.23 839.377L664.116 839.956V840.045C664.039 840.44 663.963 840.847 663.893 841.261C663.823 841.675 663.74 842.153 663.67 842.605C663.619 842.898 663.575 843.19 663.536 843.483C663.447 844.05 663.371 844.623 663.295 845.19C663.25 845.521 663.205 845.826 663.167 846.176L663.014 847.45C663.339 848.494 663.702 849.525 664.078 850.538C664.318 851.092 664.458 851.685 664.491 852.288C672.304 854.521 680.586 854.521 688.398 852.288C688.396 852.267 688.396 852.246 688.398 852.225C688.281 851.653 688.229 851.07 688.246 850.487V850.487C688.374 848.853 688.587 847.228 688.882 845.616C688.976 844.822 689.017 844.022 689.003 843.222V842.936C688.984 842.694 688.978 842.465 688.971 842.235ZM688.971 842.235C688.971 841.981 688.971 841.726 688.927 841.471C688.882 841.217 688.889 840.994 688.857 840.752C688.825 840.51 688.799 840.268 688.768 840.026C688.736 839.784 688.691 839.542 688.647 839.3C688.602 839.058 688.558 838.817 688.507 838.575C688.507 838.492 688.475 838.415 688.456 838.333C688.386 838.014 688.309 837.696 688.226 837.371C688.144 837.047 688.093 836.856 688.016 836.601C688.016 836.486 687.953 836.372 687.914 836.263C687.876 836.155 687.806 835.894 687.749 835.71L687.634 835.353C687.583 835.194 687.532 835.035 687.475 834.876C687.38 834.589 687.278 834.309 687.176 834.022C687.074 833.736 686.966 833.456 686.858 833.176C686.641 832.603 686.406 832.036 686.17 831.469C685.247 829.266 684.209 827.095 683.254 824.944C682.741 823.815 682.286 822.661 681.892 821.486L681.771 821.658C681.577 821.951 681.405 822.258 681.255 822.575C681.255 827.586 676.238 833.717 676.238 833.717L671.189 826.363L666.771 833.157C666.134 833.494 665.497 834.653 665.001 836.302C664.861 836.747 664.727 837.231 664.6 837.747C664.511 838.091 664.428 838.454 664.351 838.817C664.307 839.001 664.269 839.186 664.23 839.377L664.116 839.956V840.045C664.039 840.44 663.963 840.847 663.893 841.261C663.823 841.675 663.74 842.153 663.67 842.605C663.619 842.898 663.575 843.19 663.536 843.483C663.447 844.05 663.371 844.623 663.295 845.19C663.25 845.521 663.205 845.826 663.167 846.176L663.014 847.45C663.339 848.494 663.702 849.525 664.078 850.538C664.318 851.092 664.458 851.685 664.491 852.288C672.304 854.521 680.586 854.521 688.398 852.288C688.396 852.267 688.396 852.246 688.398 852.225C688.281 851.653 688.229 851.07 688.246 850.487V850.487C688.374 848.853 688.587 847.228 688.882 845.616C688.976 844.822 689.017 844.022 689.003 843.222V842.936C688.984 842.694 688.978 842.465 688.971 842.235ZM695.72 830.285L693.447 821.213L693.059 819.659L692.951 819.233L692.397 817.017C692.398 816.998 692.398 816.979 692.397 816.96C692.41 816.862 692.394 816.762 692.352 816.673C692.269 816.508 692.059 816.336 691.569 816.291C691.382 816.278 691.195 816.278 691.009 816.291V816.291C690.456 816.346 689.908 816.448 689.372 816.597C689.111 816.667 688.831 816.743 688.532 816.839L687.985 817.011H687.934C686.467 817.492 685.106 818.248 683.923 819.239C683.141 819.891 682.455 820.649 681.885 821.493L681.764 821.665C681.571 821.958 681.398 822.264 681.249 822.581C681.249 827.592 676.232 833.723 676.232 833.723L671.183 826.37L670.896 825.956L670.845 825.886L670.113 824.81L669.559 824.071L669.413 823.88L666.803 820.398L665.975 819.271V819.233L665.688 818.844L665.141 818.118L663.231 819.233L658.456 822.015L656.253 836.346V836.499L656.317 837.543L656.788 845.521V845.973L656.068 848.844C657.991 849.881 659.992 850.767 662.053 851.493L662.594 851.684C663.231 851.894 663.829 852.085 664.453 852.269C664.476 852.364 664.493 852.459 664.504 852.556C664.504 852.467 664.504 852.371 664.504 852.282C672.317 854.515 680.598 854.515 688.411 852.282L688.558 852.237C688.92 852.136 689.29 852.027 689.646 851.906L690.226 851.722C691.797 851.196 693.336 850.58 694.835 849.875L695.364 838.492L695.746 830.362L695.72 830.285ZM664.409 852.269C664.432 852.364 664.449 852.459 664.46 852.556C664.46 852.467 664.46 852.371 664.46 852.282L664.409 852.269ZM688.971 842.235C688.971 841.981 688.971 841.726 688.927 841.471C688.882 841.217 688.889 840.994 688.857 840.752C688.825 840.51 688.799 840.268 688.768 840.026C688.736 839.784 688.691 839.542 688.647 839.3C688.602 839.058 688.558 838.817 688.507 838.575C688.507 838.492 688.475 838.415 688.456 838.333C688.386 838.014 688.309 837.696 688.226 837.371C688.144 837.047 688.093 836.856 688.016 836.601C688.016 836.486 687.953 836.372 687.914 836.263C687.876 836.155 687.806 835.894 687.749 835.71L687.634 835.353C687.583 835.194 687.532 835.035 687.475 834.876C687.38 834.589 687.278 834.309 687.176 834.022C687.074 833.736 686.966 833.456 686.858 833.176C686.641 832.603 686.406 832.036 686.17 831.469C685.247 829.266 684.209 827.095 683.254 824.944C682.741 823.815 682.286 822.661 681.892 821.486L681.771 821.658C681.577 821.951 681.405 822.258 681.255 822.575C681.255 827.586 676.238 833.717 676.238 833.717L671.189 826.363L666.771 833.157C666.134 833.494 665.497 834.653 665.001 836.302C664.861 836.747 664.727 837.231 664.6 837.747C664.511 838.091 664.428 838.454 664.351 838.817C664.307 839.001 664.269 839.186 664.23 839.377L664.116 839.956V840.045C664.039 840.44 663.963 840.847 663.893 841.261C663.823 841.675 663.74 842.153 663.67 842.605C663.619 842.898 663.575 843.19 663.536 843.483C663.447 844.05 663.371 844.623 663.295 845.19C663.25 845.521 663.205 845.826 663.167 846.176L663.014 847.45C663.339 848.494 663.702 849.525 664.078 850.538C664.318 851.092 664.458 851.685 664.491 852.288C672.304 854.521 680.586 854.521 688.398 852.288C688.396 852.267 688.396 852.246 688.398 852.225C688.281 851.653 688.229 851.07 688.246 850.487V850.487C688.374 848.853 688.587 847.228 688.882 845.616C688.976 844.822 689.017 844.022 689.003 843.222V842.936C688.984 842.694 688.978 842.465 688.971 842.235ZM688.971 842.235C688.971 841.981 688.971 841.726 688.927 841.471C688.882 841.217 688.889 840.994 688.857 840.752C688.825 840.51 688.799 840.268 688.768 840.026C688.736 839.784 688.691 839.542 688.647 839.3C688.602 839.058 688.558 838.817 688.507 838.575C688.507 838.492 688.475 838.415 688.456 838.333C688.386 838.014 688.309 837.696 688.226 837.371C688.144 837.047 688.093 836.856 688.016 836.601C688.016 836.486 687.953 836.372 687.914 836.263C687.876 836.155 687.806 835.894 687.749 835.71L687.634 835.353C687.583 835.194 687.532 835.035 687.475 834.876C687.38 834.589 687.278 834.309 687.176 834.022C687.074 833.736 686.966 833.456 686.858 833.176C686.641 832.603 686.406 832.036 686.17 831.469C685.247 829.266 684.209 827.095 683.254 824.944C682.741 823.815 682.286 822.661 681.892 821.486L681.771 821.658C681.577 821.951 681.405 822.258 681.255 822.575C681.255 827.586 676.238 833.717 676.238 833.717L671.189 826.363L666.771 833.157C666.134 833.494 665.497 834.653 665.001 836.302C664.861 836.747 664.727 837.231 664.6 837.747C664.511 838.091 664.428 838.454 664.351 838.817C664.307 839.001 664.269 839.186 664.23 839.377L664.116 839.956V840.045C664.039 840.44 663.963 840.847 663.893 841.261C663.823 841.675 663.74 842.153 663.67 842.605C663.619 842.898 663.575 843.19 663.536 843.483C663.447 844.05 663.371 844.623 663.295 845.19C663.25 845.521 663.205 845.826 663.167 846.176L663.014 847.45C663.339 848.494 663.702 849.525 664.078 850.538C664.318 851.092 664.458 851.685 664.491 852.288C672.304 854.521 680.586 854.521 688.398 852.288C688.396 852.267 688.396 852.246 688.398 852.225C688.281 851.653 688.229 851.07 688.246 850.487V850.487C688.374 848.853 688.587 847.228 688.882 845.616C688.976 844.822 689.017 844.022 689.003 843.222V842.936C688.984 842.694 688.978 842.465 688.971 842.235ZM688.971 842.235C688.971 841.981 688.971 841.726 688.927 841.471C688.882 841.217 688.889 840.994 688.857 840.752C688.825 840.51 688.799 840.268 688.768 840.026C688.736 839.784 688.691 839.542 688.647 839.3C688.602 839.058 688.558 838.817 688.507 838.575C688.507 838.492 688.475 838.415 688.456 838.333C688.386 838.014 688.309 837.696 688.226 837.371C688.144 837.047 688.093 836.856 688.016 836.601C688.016 836.486 687.953 836.372 687.914 836.263C687.876 836.155 687.806 835.894 687.749 835.71L687.634 835.353C687.583 835.194 687.532 835.035 687.475 834.876C687.38 834.589 687.278 834.309 687.176 834.022C687.074 833.736 686.966 833.456 686.858 833.176C686.641 832.603 686.406 832.036 686.17 831.469C685.247 829.266 684.209 827.095 683.254 824.944C682.741 823.815 682.286 822.661 681.892 821.486L681.771 821.658C681.577 821.951 681.405 822.258 681.255 822.575C681.255 827.586 676.238 833.717 676.238 833.717L671.189 826.363L666.771 833.157C666.134 833.494 665.497 834.653 665.001 836.302C664.861 836.747 664.727 837.231 664.6 837.747C664.511 838.091 664.428 838.454 664.351 838.817C664.307 839.001 664.269 839.186 664.23 839.377L664.116 839.956V840.045C664.039 840.44 663.963 840.847 663.893 841.261C663.823 841.675 663.74 842.153 663.67 842.605C663.619 842.898 663.575 843.19 663.536 843.483C663.447 844.05 663.371 844.623 663.295 845.19C663.25 845.521 663.205 845.826 663.167 846.176L663.014 847.45C663.339 848.494 663.702 849.525 664.078 850.538C664.318 851.092 664.458 851.685 664.491 852.288C672.304 854.521 680.586 854.521 688.398 852.288C688.396 852.267 688.396 852.246 688.398 852.225C688.281 851.653 688.229 851.07 688.246 850.487V850.487C688.374 848.853 688.587 847.228 688.882 845.616C688.976 844.822 689.017 844.022 689.003 843.222V842.936C688.984 842.694 688.978 842.465 688.971 842.235ZM688.971 842.235C688.971 841.981 688.971 841.726 688.927 841.471C688.882 841.217 688.889 840.994 688.857 840.752C688.825 840.51 688.799 840.268 688.768 840.026C688.736 839.784 688.691 839.542 688.647 839.3C688.602 839.058 688.558 838.817 688.507 838.575C688.507 838.492 688.475 838.415 688.456 838.333C688.386 838.014 688.309 837.696 688.226 837.371C688.144 837.047 688.093 836.856 688.016 836.601C688.016 836.486 687.953 836.372 687.914 836.263C687.876 836.155 687.806 835.894 687.749 835.71L687.634 835.353C687.583 835.194 687.532 835.035 687.475 834.876C687.38 834.589 687.278 834.309 687.176 834.022C687.074 833.736 686.966 833.456 686.858 833.176C686.641 832.603 686.406 832.036 686.17 831.469C685.247 829.266 684.209 827.095 683.254 824.944C682.741 823.815 682.286 822.661 681.892 821.486L681.771 821.658C681.577 821.951 681.405 822.258 681.255 822.575C681.255 827.586 676.238 833.717 676.238 833.717L671.189 826.363L666.771 833.157C666.134 833.494 665.497 834.653 665.001 836.302C664.861 836.747 664.727 837.231 664.6 837.747C664.511 838.091 664.428 838.454 664.351 838.817C664.307 839.001 664.269 839.186 664.23 839.377L664.116 839.956V840.045C664.039 840.44 663.963 840.847 663.893 841.261C663.823 841.675 663.74 842.153 663.67 842.605C663.619 842.898 663.575 843.19 663.536 843.483C663.447 844.05 663.371 844.623 663.295 845.19C663.25 845.521 663.205 845.826 663.167 846.176L663.014 847.45C663.339 848.494 663.702 849.525 664.078 850.538C664.318 851.092 664.458 851.685 664.491 852.288C672.304 854.521 680.586 854.521 688.398 852.288C688.396 852.267 688.396 852.246 688.398 852.225C688.281 851.653 688.229 851.07 688.246 850.487V850.487C688.374 848.853 688.587 847.228 688.882 845.616C688.976 844.822 689.017 844.022 689.003 843.222V842.936C688.984 842.694 688.978 842.465 688.971 842.235ZM688.971 842.235C688.971 841.981 688.971 841.726 688.927 841.471C688.882 841.217 688.889 840.994 688.857 840.752C688.825 840.51 688.799 840.268 688.768 840.026C688.736 839.784 688.691 839.542 688.647 839.3C688.602 839.058 688.558 838.817 688.507 838.575C688.507 838.492 688.475 838.415 688.456 838.333C688.386 838.014 688.309 837.696 688.226 837.371C688.144 837.047 688.093 836.856 688.016 836.601C688.016 836.486 687.953 836.372 687.914 836.263C687.876 836.155 687.806 835.894 687.749 835.71L687.634 835.353C687.583 835.194 687.532 835.035 687.475 834.876C687.38 834.589 687.278 834.309 687.176 834.022C687.074 833.736 686.966 833.456 686.858 833.176C686.641 832.603 686.406 832.036 686.17 831.469C685.247 829.266 684.209 827.095 683.254 824.944C682.741 823.815 682.286 822.661 681.892 821.486L681.771 821.658C681.577 821.951 681.405 822.258 681.255 822.575C681.255 827.586 676.238 833.717 676.238 833.717L671.189 826.363L666.771 833.157C666.134 833.494 665.497 834.653 665.001 836.302C664.861 836.747 664.727 837.231 664.6 837.747C664.511 838.091 664.428 838.454 664.351 838.817C664.307 839.001 664.269 839.186 664.23 839.377L664.116 839.956V840.045C664.039 840.44 663.963 840.847 663.893 841.261C663.823 841.675 663.74 842.153 663.67 842.605C663.619 842.898 663.575 843.19 663.536 843.483C663.447 844.05 663.371 844.623 663.295 845.19C663.25 845.521 663.205 845.826 663.167 846.176L663.014 847.45C663.339 848.494 663.702 849.525 664.078 850.538C664.318 851.092 664.458 851.685 664.491 852.288C672.304 854.521 680.586 854.521 688.398 852.288C688.396 852.267 688.396 852.246 688.398 852.225C688.281 851.653 688.229 851.07 688.246 850.487V850.487C688.374 848.853 688.587 847.228 688.882 845.616C688.976 844.822 689.017 844.022 689.003 843.222V842.936C688.984 842.694 688.978 842.465 688.971 842.235ZM688.971 842.235C688.971 841.981 688.971 841.726 688.927 841.471C688.882 841.217 688.889 840.994 688.857 840.752C688.825 840.51 688.799 840.268 688.768 840.026C688.736 839.784 688.691 839.542 688.647 839.3C688.602 839.058 688.558 838.817 688.507 838.575C688.507 838.492 688.475 838.415 688.456 838.333C688.386 838.014 688.309 837.696 688.226 837.371C688.144 837.047 688.093 836.856 688.016 836.601C688.016 836.486 687.953 836.372 687.914 836.263C687.876 836.155 687.806 835.894 687.749 835.71L687.634 835.353C687.583 835.194 687.532 835.035 687.475 834.876C687.38 834.589 687.278 834.309 687.176 834.022C687.074 833.736 686.966 833.456 686.858 833.176C686.641 832.603 686.406 832.036 686.17 831.469C685.247 829.266 684.209 827.095 683.254 824.944C682.741 823.815 682.286 822.661 681.892 821.486L681.771 821.658C681.577 821.951 681.405 822.258 681.255 822.575C681.255 827.586 676.238 833.717 676.238 833.717L671.189 826.363L666.771 833.157C666.134 833.494 665.497 834.653 665.001 836.302C664.861 836.747 664.727 837.231 664.6 837.747C664.511 838.091 664.428 838.454 664.351 838.817C664.307 839.001 664.269 839.186 664.23 839.377L664.116 839.956V840.045C664.039 840.44 663.963 840.847 663.893 841.261C663.823 841.675 663.74 842.153 663.67 842.605C663.619 842.898 663.575 843.19 663.536 843.483C663.447 844.05 663.371 844.623 663.295 845.19C663.25 845.521 663.205 845.826 663.167 846.176L663.014 847.45C663.339 848.494 663.702 849.525 664.078 850.538C664.318 851.092 664.458 851.685 664.491 852.288C672.304 854.521 680.586 854.521 688.398 852.288C688.396 852.267 688.396 852.246 688.398 852.225C688.281 851.653 688.229 851.07 688.246 850.487V850.487C688.374 848.853 688.587 847.228 688.882 845.616C688.976 844.822 689.017 844.022 689.003 843.222V842.936C688.984 842.694 688.978 842.465 688.971 842.235ZM688.971 842.235C688.971 841.981 688.971 841.726 688.927 841.471C688.882 841.217 688.889 840.994 688.857 840.752C688.825 840.51 688.799 840.268 688.768 840.026C688.736 839.784 688.691 839.542 688.647 839.3C688.602 839.058 688.558 838.817 688.507 838.575C688.507 838.492 688.475 838.415 688.456 838.333C688.386 838.014 688.309 837.696 688.226 837.371C688.144 837.047 688.093 836.856 688.016 836.601C688.016 836.486 687.953 836.372 687.914 836.263C687.876 836.155 687.806 835.894 687.749 835.71L687.634 835.353C687.583 835.194 687.532 835.035 687.475 834.876C687.38 834.589 687.278 834.309 687.176 834.022C687.074 833.736 686.966 833.456 686.858 833.176C686.641 832.603 686.406 832.036 686.17 831.469C685.247 829.266 684.209 827.095 683.254 824.944C682.741 823.815 682.286 822.661 681.892 821.486L681.771 821.658C681.577 821.951 681.405 822.258 681.255 822.575C681.255 827.586 676.238 833.717 676.238 833.717L671.189 826.363L666.771 833.157C666.134 833.494 665.497 834.653 665.001 836.302C664.861 836.747 664.727 837.231 664.6 837.747C664.511 838.091 664.428 838.454 664.351 838.817C664.307 839.001 664.269 839.186 664.23 839.377L664.116 839.956V840.045C664.039 840.44 663.963 840.847 663.893 841.261C663.823 841.675 663.74 842.153 663.67 842.605C663.619 842.898 663.575 843.19 663.536 843.483C663.447 844.05 663.371 844.623 663.295 845.19C663.25 845.521 663.205 845.826 663.167 846.176L663.014 847.45C663.339 848.494 663.702 849.525 664.078 850.538C664.318 851.092 664.458 851.685 664.491 852.288C672.304 854.521 680.586 854.521 688.398 852.288C688.396 852.267 688.396 852.246 688.398 852.225C688.281 851.653 688.229 851.07 688.246 850.487V850.487C688.374 848.853 688.587 847.228 688.882 845.616C688.976 844.822 689.017 844.022 689.003 843.222V842.936C688.984 842.694 688.978 842.465 688.971 842.235ZM688.971 842.235C688.971 841.981 688.971 841.726 688.927 841.471C688.882 841.217 688.889 840.994 688.857 840.752C688.825 840.51 688.799 840.268 688.768 840.026C688.736 839.784 688.691 839.542 688.647 839.3C688.602 839.058 688.558 838.817 688.507 838.575C688.507 838.492 688.475 838.415 688.456 838.333C688.386 838.014 688.309 837.696 688.226 837.371C688.144 837.047 688.093 836.856 688.016 836.601C688.016 836.486 687.953 836.372 687.914 836.263C687.876 836.155 687.806 835.894 687.749 835.71L687.634 835.353C687.583 835.194 687.532 835.035 687.475 834.876C687.38 834.589 687.278 834.309 687.176 834.022C687.074 833.736 686.966 833.456 686.858 833.176C686.641 832.603 686.406 832.036 686.17 831.469C685.247 829.266 684.209 827.095 683.254 824.944C682.741 823.815 682.286 822.661 681.892 821.486L681.771 821.658C681.577 821.951 681.405 822.258 681.255 822.575C681.255 827.586 676.238 833.717 676.238 833.717L671.189 826.363L666.771 833.157C666.134 833.494 665.497 834.653 665.001 836.302C664.861 836.747 664.727 837.231 664.6 837.747C664.511 838.091 664.428 838.454 664.351 838.817C664.307 839.001 664.269 839.186 664.23 839.377L664.116 839.956V840.045C664.039 840.44 663.963 840.847 663.893 841.261C663.823 841.675 663.74 842.153 663.67 842.605C663.619 842.898 663.575 843.19 663.536 843.483C663.447 844.05 663.371 844.623 663.295 845.19C663.25 845.521 663.205 845.826 663.167 846.176L663.014 847.45C663.339 848.494 663.702 849.525 664.078 850.538C664.318 851.092 664.458 851.685 664.491 852.288C672.304 854.521 680.586 854.521 688.398 852.288C688.396 852.267 688.396 852.246 688.398 852.225C688.281 851.653 688.229 851.07 688.246 850.487V850.487C688.374 848.853 688.587 847.228 688.882 845.616C688.976 844.822 689.017 844.022 689.003 843.222V842.936C688.984 842.694 688.978 842.465 688.971 842.235Z" fill="white"/>
<path opacity="0.1" d="M671.278 825.936L670.852 825.879C670.208 825.792 669.57 825.664 668.942 825.497L668.706 825.433C667.153 824.994 665.453 824.204 665.071 822.816C664.957 822.37 664.97 821.9 665.109 821.46C665.323 820.703 665.613 819.969 665.975 819.27V819.232C666.023 819.134 666.076 819.038 666.134 818.945C666.659 817.919 667.454 817.054 668.432 816.443L667.668 816.564L661.2 817.615L651.172 819.232C651.172 819.232 649.39 818.875 646.964 825.56C646.964 825.643 646.907 825.72 646.881 825.809C646.295 827.445 645.678 829.489 645.041 832.042C644.602 833.812 644.201 835.55 643.832 837.237C643.723 837.746 643.615 838.249 643.513 838.746C644.661 840.099 645.897 841.375 647.212 842.566L647.422 842.763C649.999 845.096 652.846 847.112 655.903 848.767L656.024 848.831C657.947 849.868 659.948 850.753 662.008 851.479L662.55 851.67C662.664 850.492 662.791 849.187 662.944 847.85C662.944 847.717 662.944 847.583 662.995 847.449L663.148 846.176C663.186 845.851 663.231 845.539 663.275 845.189C663.352 844.622 663.428 844.049 663.517 843.483C663.555 843.19 663.6 842.897 663.651 842.604C663.721 842.152 663.797 841.7 663.874 841.261C663.95 840.821 664.02 840.439 664.097 840.045V839.956L664.211 839.376C664.249 839.185 664.288 839.001 664.332 838.816C664.409 838.453 664.491 838.09 664.581 837.746C664.708 837.231 664.842 836.747 664.982 836.301C665.491 834.652 666.083 833.493 666.752 833.156L671.17 826.363L671.355 826.076L671.437 825.949L671.278 825.936Z" fill="black"/>
<path opacity="0.1" d="M663.238 780.842C662.601 781.72 662.652 782.93 662.365 784.025C661.684 786.514 658.985 788.074 658.367 790.583C658.004 792.047 658.424 793.601 658.176 795.09C657.724 797.834 655.216 799.693 653.815 802.094C653.105 803.33 652.684 804.711 652.583 806.134C652.483 807.556 652.706 808.983 653.235 810.307C653.563 810.974 653.834 811.669 654.044 812.382C654.205 813.445 654.137 814.531 653.847 815.566C653.369 817.832 652.879 820.328 653.974 822.372C654.897 824.097 656.814 825.109 658.743 825.428C660.691 825.648 662.661 825.558 664.581 825.16C666.688 824.836 668.847 824.46 670.68 823.378L663.785 806.735C663.091 805.054 662.378 803.316 662.384 801.495C662.441 800.152 662.731 798.829 663.244 797.586C664.579 793.985 666.516 790.637 668.974 787.686C669.973 788.845 669.897 790.608 670.731 791.894C671.468 792.845 672.45 793.578 673.571 794.014C676.838 795.608 680.194 797.011 683.624 798.216C683.839 798.243 684.044 798.323 684.221 798.448C684.398 798.574 684.541 798.741 684.638 798.935C684.735 799.129 684.783 799.344 684.777 799.56C684.771 799.777 684.712 799.989 684.604 800.177L682.007 810.899C681.434 813.261 680.931 815.992 682.401 817.902C683.872 819.812 687.189 820.716 687.208 823.18C687.181 823.57 687.181 823.962 687.208 824.352C687.38 825.504 688.749 826.058 689.914 826.115C691.827 826.153 693.69 825.51 695.173 824.3C696.655 823.091 697.659 821.394 698.006 819.513C698.643 815.298 695.854 811.415 694.689 807.308C692.728 800.4 695.326 792.295 691.474 786.228C688.354 781.306 682.669 779.969 677.27 779.358C673.482 778.913 665.905 777.321 663.238 780.842Z" fill="black"/>
<path opacity="0.5" d="M663.238 780.205C662.601 781.084 662.652 782.293 662.365 783.388C661.684 785.878 658.985 787.438 658.367 789.946C658.004 791.41 658.424 792.964 658.176 794.454C657.724 797.198 655.216 799.057 653.815 801.457C653.105 802.693 652.684 804.075 652.583 805.497C652.483 806.919 652.706 808.346 653.235 809.67C653.563 810.338 653.834 811.032 654.044 811.745C654.205 812.809 654.137 813.894 653.847 814.929C653.369 817.195 652.879 819.691 653.974 821.735C654.897 823.46 656.814 824.472 658.743 824.791C660.691 825.011 662.661 824.921 664.581 824.523C666.688 824.199 668.847 823.823 670.68 822.741L663.785 806.098C663.091 804.417 662.378 802.679 662.384 800.858C662.441 799.515 662.731 798.192 663.244 796.949C664.579 793.348 666.516 790.001 668.974 787.049C669.973 788.208 669.897 789.971 670.731 791.258C671.468 792.208 672.45 792.941 673.571 793.378C676.838 794.971 680.194 796.374 683.624 797.58C683.839 797.607 684.044 797.686 684.221 797.812C684.398 797.937 684.541 798.104 684.638 798.298C684.735 798.492 684.783 798.707 684.777 798.924C684.771 799.14 684.712 799.352 684.604 799.541L682.007 810.262C681.434 812.624 680.931 815.355 682.401 817.265C683.872 819.175 687.189 820.079 687.208 822.543C687.181 822.933 687.181 823.325 687.208 823.715C687.38 824.867 688.749 825.421 689.914 825.478C691.827 825.516 693.69 824.873 695.173 823.664C696.655 822.454 697.659 820.757 698.006 818.876C698.643 814.661 695.854 810.778 694.689 806.671C692.728 799.763 695.326 791.659 691.474 785.591C688.354 780.67 682.669 779.333 677.27 778.722C673.482 778.276 665.905 776.684 663.238 780.205Z" fill="#493545"/>
</g>
<g opacity="0.5">
<path opacity="0.5" d="M659.321 950.737C659.379 952.87 657.927 954.691 656.775 956.467C655.622 958.244 654.769 960.669 655.953 962.446C656.342 963.031 656.928 963.483 657.278 964.095C658.506 966.227 656.463 968.679 655.718 971.022C654.858 973.727 655.858 976.752 657.666 978.948C659.474 981.145 661.97 982.628 664.491 983.933C669.792 986.758 675.482 988.783 681.376 989.943C684.457 990.51 687.742 990.765 690.633 989.529C692.638 988.609 694.276 987.042 695.284 985.079C696.292 983.117 696.612 980.872 696.191 978.706C695.459 975.357 693.007 972.664 691.734 969.5C691.437 968.879 691.293 968.195 691.314 967.507C691.422 966.304 692.345 965.362 693.065 964.387C694.869 961.735 695.606 958.5 695.128 955.328C694.625 952.156 693.41 949.139 691.575 946.504C690.919 945.411 690.054 944.459 689.028 943.702C687.64 942.766 685.921 942.499 684.266 942.263C677.352 941.296 670.189 940.239 663.218 939.882C661.015 939.768 659.398 940.2 658.309 942.263C656.647 945.338 659.239 947.649 659.321 950.737Z" fill="#444176"/>
<path opacity="0.5" d="M694.93 972.391L681.809 991.051L668.999 989.937C668.999 989.937 668.579 994.394 663.428 978.242C660.55 969.207 666.401 972.346 667.554 969.844C668.706 967.342 670.737 965.133 670.909 963.286C671.316 959.326 670.113 957.072 670.113 957.072L684.037 955.404C683.409 957.281 683.329 959.297 683.808 961.217C685.552 968.462 694.93 972.391 694.93 972.391Z" fill="#C77485"/>
<path opacity="0.5" d="M675.194 956.48C684.336 956.48 691.747 950.637 691.747 943.429C691.747 936.22 684.336 930.377 675.194 930.377C666.051 930.377 658.64 936.22 658.64 943.429C658.64 950.637 666.051 956.48 675.194 956.48Z" fill="#444176"/>
<path opacity="0.1" d="M683.801 961.211C681.985 962.586 679.859 963.494 677.61 963.856C675.361 964.218 673.058 964.022 670.902 963.286C671.31 959.326 670.106 957.072 670.106 957.072L684.03 955.404C683.403 957.279 683.324 959.293 683.801 961.211V961.211Z" fill="black"/>
<path opacity="0.5" d="M675.403 963.478C683.093 963.478 689.327 957.244 689.327 949.554C689.327 941.864 683.093 935.63 675.403 935.63C667.713 935.63 661.479 941.864 661.479 949.554C661.479 957.244 667.713 963.478 675.403 963.478Z" fill="#C77485"/>
<path opacity="0.1" d="M693.555 974.504L693.231 973.231L692.95 972.111L692.537 970.455L692.46 970.15L692.397 969.895C692.397 969.895 692.728 968.895 690.544 969.22L690.136 969.29C689.793 969.36 689.392 969.456 688.933 969.583L688.519 969.71L687.972 969.882C686.238 970.447 684.657 971.401 683.35 972.671C682.763 973.232 682.243 973.861 681.802 974.543C681.758 974.606 681.726 974.664 681.688 974.715C681.537 974.951 681.403 975.198 681.287 975.453C681.287 980.47 676.27 986.595 676.27 986.595L671.374 979.521L671.278 979.381L670.113 977.688L669.699 977.14L669.559 976.949L667.013 973.53L666.376 972.677L666.166 972.391L665.854 971.977L665.122 971.003L662.257 972.677L658.437 974.906L656.208 989.39V989.791L656.278 990.988L656.743 998.857V998.965L655.928 1002.23L656.049 1002.29C657.972 1003.33 659.973 1004.21 662.034 1004.94L662.575 1005.13C663.212 1005.34 663.81 1005.53 664.434 1005.71C664.457 1005.81 664.474 1005.9 664.485 1006C664.485 1005.91 664.485 1005.82 664.485 1005.73C672.298 1007.96 680.579 1007.96 688.392 1005.73L688.538 1005.68C688.901 1005.58 689.271 1005.47 689.627 1005.35L690.206 1005.17C691.777 1004.64 693.317 1004.02 694.816 1003.32L695.351 991.924L695.733 983.704V983.233L693.555 974.504Z" fill="black"/>
<path opacity="0.5" d="M688.971 995.674C688.971 995.419 688.971 995.165 688.926 994.91C688.882 994.655 688.888 994.432 688.856 994.19C688.824 993.948 688.799 993.707 688.767 993.465C688.735 993.223 688.691 992.981 688.646 992.739C688.602 992.497 688.557 992.255 688.506 992.013C688.506 991.93 688.474 991.854 688.455 991.771C688.385 991.453 688.309 991.134 688.226 990.81C688.143 990.485 688.092 990.294 688.016 990.039C688.016 989.925 687.952 989.81 687.914 989.702C687.876 989.594 687.806 989.333 687.748 989.148L687.634 988.791C687.583 988.632 687.532 988.473 687.475 988.314C687.379 988.027 687.277 987.747 687.175 987.461C687.074 987.174 686.965 986.894 686.857 986.614C686.641 986.041 686.405 985.474 686.17 984.908C685.246 982.705 684.209 980.534 683.254 978.382C682.74 977.254 682.286 976.1 681.891 974.925L681.77 975.097C681.577 975.39 681.404 975.696 681.254 976.014C681.254 981.024 676.238 987.155 676.238 987.155L671.189 979.802L666.77 986.595C666.134 986.932 665.497 988.091 665 989.74C664.86 990.186 664.727 990.67 664.599 991.185C664.51 991.529 664.427 991.892 664.351 992.255C664.306 992.44 664.268 992.624 664.23 992.815L664.115 993.395V993.484C664.039 993.878 663.963 994.286 663.893 994.7C663.822 995.114 663.74 995.591 663.67 996.043C663.619 996.336 663.574 996.629 663.536 996.922C663.447 997.488 663.37 998.061 663.294 998.628C663.249 998.959 663.205 999.265 663.167 999.615L663.014 1000.89C663.339 1001.93 663.702 1002.96 664.077 1003.98C664.317 1004.53 664.457 1005.12 664.491 1005.73C672.304 1007.96 680.585 1007.96 688.398 1005.73C688.395 1005.71 688.395 1005.68 688.398 1005.66C688.28 1005.09 688.229 1004.51 688.245 1003.93V1003.93C688.374 1002.29 688.586 1000.67 688.882 999.055C688.976 998.26 689.016 997.46 689.003 996.661V996.374C688.984 996.132 688.977 995.903 688.971 995.674ZM688.971 995.674C688.971 995.419 688.971 995.165 688.926 994.91C688.882 994.655 688.888 994.432 688.856 994.19C688.824 993.948 688.799 993.707 688.767 993.465C688.735 993.223 688.691 992.981 688.646 992.739C688.602 992.497 688.557 992.255 688.506 992.013C688.506 991.93 688.474 991.854 688.455 991.771C688.385 991.453 688.309 991.134 688.226 990.81C688.143 990.485 688.092 990.294 688.016 990.039C688.016 989.925 687.952 989.81 687.914 989.702C687.876 989.594 687.806 989.333 687.748 989.148L687.634 988.791C687.583 988.632 687.532 988.473 687.475 988.314C687.379 988.027 687.277 987.747 687.175 987.461C687.074 987.174 686.965 986.894 686.857 986.614C686.641 986.041 686.405 985.474 686.17 984.908C685.246 982.705 684.209 980.534 683.254 978.382C682.74 977.254 682.286 976.1 681.891 974.925L681.77 975.097C681.577 975.39 681.404 975.696 681.254 976.014C681.254 981.024 676.238 987.155 676.238 987.155L671.189 979.802L666.77 986.595C666.134 986.932 665.497 988.091 665 989.74C664.86 990.186 664.727 990.67 664.599 991.185C664.51 991.529 664.427 991.892 664.351 992.255C664.306 992.44 664.268 992.624 664.23 992.815L664.115 993.395V993.484C664.039 993.878 663.963 994.286 663.893 994.7C663.822 995.114 663.74 995.591 663.67 996.043C663.619 996.336 663.574 996.629 663.536 996.922C663.447 997.488 663.37 998.061 663.294 998.628C663.249 998.959 663.205 999.265 663.167 999.615L663.014 1000.89C663.339 1001.93 663.702 1002.96 664.077 1003.98C664.317 1004.53 664.457 1005.12 664.491 1005.73C672.304 1007.96 680.585 1007.96 688.398 1005.73C688.395 1005.71 688.395 1005.68 688.398 1005.66C688.28 1005.09 688.229 1004.51 688.245 1003.93V1003.93C688.374 1002.29 688.586 1000.67 688.882 999.055C688.976 998.26 689.016 997.46 689.003 996.661V996.374C688.984 996.132 688.977 995.903 688.971 995.674ZM688.971 995.674C688.971 995.419 688.971 995.165 688.926 994.91C688.882 994.655 688.888 994.432 688.856 994.19C688.824 993.948 688.799 993.707 688.767 993.465C688.735 993.223 688.691 992.981 688.646 992.739C688.602 992.497 688.557 992.255 688.506 992.013C688.506 991.93 688.474 991.854 688.455 991.771C688.385 991.453 688.309 991.134 688.226 990.81C688.143 990.485 688.092 990.294 688.016 990.039C688.016 989.925 687.952 989.81 687.914 989.702C687.876 989.594 687.806 989.333 687.748 989.148L687.634 988.791C687.583 988.632 687.532 988.473 687.475 988.314C687.379 988.027 687.277 987.747 687.175 987.461C687.074 987.174 686.965 986.894 686.857 986.614C686.641 986.041 686.405 985.474 686.17 984.908C685.246 982.705 684.209 980.534 683.254 978.382C682.74 977.254 682.286 976.1 681.891 974.925L681.77 975.097C681.577 975.39 681.404 975.696 681.254 976.014C681.254 981.024 676.238 987.155 676.238 987.155L671.189 979.802L666.77 986.595C666.134 986.932 665.497 988.091 665 989.74C664.86 990.186 664.727 990.67 664.599 991.185C664.51 991.529 664.427 991.892 664.351 992.255C664.306 992.44 664.268 992.624 664.23 992.815L664.115 993.395V993.484C664.039 993.878 663.963 994.286 663.893 994.7C663.822 995.114 663.74 995.591 663.67 996.043C663.619 996.336 663.574 996.629 663.536 996.922C663.447 997.488 663.37 998.061 663.294 998.628C663.249 998.959 663.205 999.265 663.167 999.615L663.014 1000.89C663.339 1001.93 663.702 1002.96 664.077 1003.98C664.317 1004.53 664.457 1005.12 664.491 1005.73C672.304 1007.96 680.585 1007.96 688.398 1005.73C688.395 1005.71 688.395 1005.68 688.398 1005.66C688.28 1005.09 688.229 1004.51 688.245 1003.93V1003.93C688.374 1002.29 688.586 1000.67 688.882 999.055C688.976 998.26 689.016 997.46 689.003 996.661V996.374C688.984 996.132 688.977 995.903 688.971 995.674ZM695.72 983.724L693.447 974.651L693.058 973.098L692.95 972.671L692.396 970.455C692.397 970.436 692.397 970.417 692.396 970.398V970.398C692.409 970.3 692.394 970.201 692.352 970.112C692.269 969.946 692.059 969.774 691.568 969.73C691.382 969.716 691.195 969.716 691.008 969.73V969.73C690.455 969.784 689.908 969.887 689.372 970.035C689.111 970.105 688.831 970.182 688.532 970.277L687.984 970.449H687.933C686.467 970.93 685.105 971.687 683.922 972.677C683.14 973.329 682.455 974.088 681.885 974.931L681.764 975.103C681.57 975.396 681.398 975.702 681.248 976.02C681.248 981.031 676.231 987.162 676.231 987.162L671.182 979.808L670.896 979.394L670.845 979.324L670.113 978.248L669.559 977.51L669.412 977.319L666.802 973.836L665.974 972.709V972.671L665.688 972.283L665.14 971.557L663.23 972.671L658.455 975.453L656.253 989.785V989.937L656.316 990.982L656.787 998.959V999.411L656.068 1002.28C657.991 1003.32 659.992 1004.21 662.053 1004.93L662.594 1005.12C663.23 1005.33 663.829 1005.52 664.453 1005.71C664.476 1005.8 664.493 1005.9 664.504 1005.99C664.504 1005.91 664.504 1005.81 664.504 1005.72C672.316 1007.95 680.598 1007.95 688.411 1005.72L688.557 1005.68C688.92 1005.57 689.289 1005.47 689.646 1005.34L690.225 1005.16C691.796 1004.63 693.335 1004.02 694.835 1003.31L695.363 991.93L695.745 983.8L695.72 983.724ZM664.408 1005.71C664.431 1005.8 664.448 1005.9 664.459 1005.99C664.459 1005.91 664.459 1005.81 664.459 1005.72L664.408 1005.71ZM688.971 995.674C688.971 995.419 688.971 995.165 688.926 994.91C688.882 994.655 688.888 994.432 688.856 994.19C688.824 993.948 688.799 993.707 688.767 993.465C688.735 993.223 688.691 992.981 688.646 992.739C688.602 992.497 688.557 992.255 688.506 992.013C688.506 991.93 688.474 991.854 688.455 991.771C688.385 991.453 688.309 991.134 688.226 990.81C688.143 990.485 688.092 990.294 688.016 990.039C688.016 989.925 687.952 989.81 687.914 989.702C687.876 989.594 687.806 989.333 687.748 989.148L687.634 988.791C687.583 988.632 687.532 988.473 687.475 988.314C687.379 988.027 687.277 987.747 687.175 987.461C687.074 987.174 686.965 986.894 686.857 986.614C686.641 986.041 686.405 985.474 686.17 984.908C685.246 982.705 684.209 980.534 683.254 978.382C682.74 977.254 682.286 976.1 681.891 974.925L681.77 975.097C681.577 975.39 681.404 975.696 681.254 976.014C681.254 981.024 676.238 987.155 676.238 987.155L671.189 979.802L666.77 986.595C666.134 986.932 665.497 988.091 665 989.74C664.86 990.186 664.727 990.67 664.599 991.185C664.51 991.529 664.427 991.892 664.351 992.255C664.306 992.44 664.268 992.624 664.23 992.815L664.115 993.395V993.484C664.039 993.878 663.963 994.286 663.893 994.7C663.822 995.114 663.74 995.591 663.67 996.043C663.619 996.336 663.574 996.629 663.536 996.922C663.447 997.488 663.37 998.061 663.294 998.628C663.249 998.959 663.205 999.265 663.167 999.615L663.014 1000.89C663.339 1001.93 663.702 1002.96 664.077 1003.98C664.317 1004.53 664.457 1005.12 664.491 1005.73C672.304 1007.96 680.585 1007.96 688.398 1005.73C688.395 1005.71 688.395 1005.68 688.398 1005.66C688.28 1005.09 688.229 1004.51 688.245 1003.93V1003.93C688.374 1002.29 688.586 1000.67 688.882 999.055C688.976 998.26 689.016 997.46 689.003 996.661V996.374C688.984 996.132 688.977 995.903 688.971 995.674ZM688.971 995.674C688.971 995.419 688.971 995.165 688.926 994.91C688.882 994.655 688.888 994.432 688.856 994.19C688.824 993.948 688.799 993.707 688.767 993.465C688.735 993.223 688.691 992.981 688.646 992.739C688.602 992.497 688.557 992.255 688.506 992.013C688.506 991.93 688.474 991.854 688.455 991.771C688.385 991.453 688.309 991.134 688.226 990.81C688.143 990.485 688.092 990.294 688.016 990.039C688.016 989.925 687.952 989.81 687.914 989.702C687.876 989.594 687.806 989.333 687.748 989.148L687.634 988.791C687.583 988.632 687.532 988.473 687.475 988.314C687.379 988.027 687.277 987.747 687.175 987.461C687.074 987.174 686.965 986.894 686.857 986.614C686.641 986.041 686.405 985.474 686.17 984.908C685.246 982.705 684.209 980.534 683.254 978.382C682.74 977.254 682.286 976.1 681.891 974.925L681.77 975.097C681.577 975.39 681.404 975.696 681.254 976.014C681.254 981.024 676.238 987.155 676.238 987.155L671.189 979.802L666.77 986.595C666.134 986.932 665.497 988.091 665 989.74C664.86 990.186 664.727 990.67 664.599 991.185C664.51 991.529 664.427 991.892 664.351 992.255C664.306 992.44 664.268 992.624 664.23 992.815L664.115 993.395V993.484C664.039 993.878 663.963 994.286 663.893 994.7C663.822 995.114 663.74 995.591 663.67 996.043C663.619 996.336 663.574 996.629 663.536 996.922C663.447 997.488 663.37 998.061 663.294 998.628C663.249 998.959 663.205 999.265 663.167 999.615L663.014 1000.89C663.339 1001.93 663.702 1002.96 664.077 1003.98C664.317 1004.53 664.457 1005.12 664.491 1005.73C672.304 1007.96 680.585 1007.96 688.398 1005.73C688.395 1005.71 688.395 1005.68 688.398 1005.66C688.28 1005.09 688.229 1004.51 688.245 1003.93V1003.93C688.374 1002.29 688.586 1000.67 688.882 999.055C688.976 998.26 689.016 997.46 689.003 996.661V996.374C688.984 996.132 688.977 995.903 688.971 995.674ZM688.971 995.674C688.971 995.419 688.971 995.165 688.926 994.91C688.882 994.655 688.888 994.432 688.856 994.19C688.824 993.948 688.799 993.707 688.767 993.465C688.735 993.223 688.691 992.981 688.646 992.739C688.602 992.497 688.557 992.255 688.506 992.013C688.506 991.93 688.474 991.854 688.455 991.771C688.385 991.453 688.309 991.134 688.226 990.81C688.143 990.485 688.092 990.294 688.016 990.039C688.016 989.925 687.952 989.81 687.914 989.702C687.876 989.594 687.806 989.333 687.748 989.148L687.634 988.791C687.583 988.632 687.532 988.473 687.475 988.314C687.379 988.027 687.277 987.747 687.175 987.461C687.074 987.174 686.965 986.894 686.857 986.614C686.641 986.041 686.405 985.474 686.17 984.908C685.246 982.705 684.209 980.534 683.254 978.382C682.74 977.254 682.286 976.1 681.891 974.925L681.77 975.097C681.577 975.39 681.404 975.696 681.254 976.014C681.254 981.024 676.238 987.155 676.238 987.155L671.189 979.802L666.77 986.595C666.134 986.932 665.497 988.091 665 989.74C664.86 990.186 664.727 990.67 664.599 991.185C664.51 991.529 664.427 991.892 664.351 992.255C664.306 992.44 664.268 992.624 664.23 992.815L664.115 993.395V993.484C664.039 993.878 663.963 994.286 663.893 994.7C663.822 995.114 663.74 995.591 663.67 996.043C663.619 996.336 663.574 996.629 663.536 996.922C663.447 997.488 663.37 998.061 663.294 998.628C663.249 998.959 663.205 999.265 663.167 999.615L663.014 1000.89C663.339 1001.93 663.702 1002.96 664.077 1003.98C664.317 1004.53 664.457 1005.12 664.491 1005.73C672.304 1007.96 680.585 1007.96 688.398 1005.73C688.395 1005.71 688.395 1005.68 688.398 1005.66C688.28 1005.09 688.229 1004.51 688.245 1003.93V1003.93C688.374 1002.29 688.586 1000.67 688.882 999.055C688.976 998.26 689.016 997.46 689.003 996.661V996.374C688.984 996.132 688.977 995.903 688.971 995.674ZM688.971 995.674C688.971 995.419 688.971 995.165 688.926 994.91C688.882 994.655 688.888 994.432 688.856 994.19C688.824 993.948 688.799 993.707 688.767 993.465C688.735 993.223 688.691 992.981 688.646 992.739C688.602 992.497 688.557 992.255 688.506 992.013C688.506 991.93 688.474 991.854 688.455 991.771C688.385 991.453 688.309 991.134 688.226 990.81C688.143 990.485 688.092 990.294 688.016 990.039C688.016 989.925 687.952 989.81 687.914 989.702C687.876 989.594 687.806 989.333 687.748 989.148L687.634 988.791C687.583 988.632 687.532 988.473 687.475 988.314C687.379 988.027 687.277 987.747 687.175 987.461C687.074 987.174 686.965 986.894 686.857 986.614C686.641 986.041 686.405 985.474 686.17 984.908C685.246 982.705 684.209 980.534 683.254 978.382C682.74 977.254 682.286 976.1 681.891 974.925L681.77 975.097C681.577 975.39 681.404 975.696 681.254 976.014C681.254 981.024 676.238 987.155 676.238 987.155L671.189 979.802L666.77 986.595C666.134 986.932 665.497 988.091 665 989.74C664.86 990.186 664.727 990.67 664.599 991.185C664.51 991.529 664.427 991.892 664.351 992.255C664.306 992.44 664.268 992.624 664.23 992.815L664.115 993.395V993.484C664.039 993.878 663.963 994.286 663.893 994.7C663.822 995.114 663.74 995.591 663.67 996.043C663.619 996.336 663.574 996.629 663.536 996.922C663.447 997.488 663.37 998.061 663.294 998.628C663.249 998.959 663.205 999.265 663.167 999.615L663.014 1000.89C663.339 1001.93 663.702 1002.96 664.077 1003.98C664.317 1004.53 664.457 1005.12 664.491 1005.73C672.304 1007.96 680.585 1007.96 688.398 1005.73C688.395 1005.71 688.395 1005.68 688.398 1005.66C688.28 1005.09 688.229 1004.51 688.245 1003.93V1003.93C688.374 1002.29 688.586 1000.67 688.882 999.055C688.976 998.26 689.016 997.46 689.003 996.661V996.374C688.984 996.132 688.977 995.903 688.971 995.674ZM688.971 995.674C688.971 995.419 688.971 995.165 688.926 994.91C688.882 994.655 688.888 994.432 688.856 994.19C688.824 993.948 688.799 993.707 688.767 993.465C688.735 993.223 688.691 992.981 688.646 992.739C688.602 992.497 688.557 992.255 688.506 992.013C688.506 991.93 688.474 991.854 688.455 991.771C688.385 991.453 688.309 991.134 688.226 990.81C688.143 990.485 688.092 990.294 688.016 990.039C688.016 989.925 687.952 989.81 687.914 989.702C687.876 989.594 687.806 989.333 687.748 989.148L687.634 988.791C687.583 988.632 687.532 988.473 687.475 988.314C687.379 988.027 687.277 987.747 687.175 987.461C687.074 987.174 686.965 986.894 686.857 986.614C686.641 986.041 686.405 985.474 686.17 984.908C685.246 982.705 684.209 980.534 683.254 978.382C682.74 977.254 682.286 976.1 681.891 974.925L681.77 975.097C681.577 975.39 681.404 975.696 681.254 976.014C681.254 981.024 676.238 987.155 676.238 987.155L671.189 979.802L666.77 986.595C666.134 986.932 665.497 988.091 665 989.74C664.86 990.186 664.727 990.67 664.599 991.185C664.51 991.529 664.427 991.892 664.351 992.255C664.306 992.44 664.268 992.624 664.23 992.815L664.115 993.395V993.484C664.039 993.878 663.963 994.286 663.893 994.7C663.822 995.114 663.74 995.591 663.67 996.043C663.619 996.336 663.574 996.629 663.536 996.922C663.447 997.488 663.37 998.061 663.294 998.628C663.249 998.959 663.205 999.265 663.167 999.615L663.014 1000.89C663.339 1001.93 663.702 1002.96 664.077 1003.98C664.317 1004.53 664.457 1005.12 664.491 1005.73C672.304 1007.96 680.585 1007.96 688.398 1005.73C688.395 1005.71 688.395 1005.68 688.398 1005.66C688.28 1005.09 688.229 1004.51 688.245 1003.93V1003.93C688.374 1002.29 688.586 1000.67 688.882 999.055C688.976 998.26 689.016 997.46 689.003 996.661V996.374C688.984 996.132 688.977 995.903 688.971 995.674ZM688.971 995.674C688.971 995.419 688.971 995.165 688.926 994.91C688.882 994.655 688.888 994.432 688.856 994.19C688.824 993.948 688.799 993.707 688.767 993.465C688.735 993.223 688.691 992.981 688.646 992.739C688.602 992.497 688.557 992.255 688.506 992.013C688.506 991.93 688.474 991.854 688.455 991.771C688.385 991.453 688.309 991.134 688.226 990.81C688.143 990.485 688.092 990.294 688.016 990.039C688.016 989.925 687.952 989.81 687.914 989.702C687.876 989.594 687.806 989.333 687.748 989.148L687.634 988.791C687.583 988.632 687.532 988.473 687.475 988.314C687.379 988.027 687.277 987.747 687.175 987.461C687.074 987.174 686.965 986.894 686.857 986.614C686.641 986.041 686.405 985.474 686.17 984.908C685.246 982.705 684.209 980.534 683.254 978.382C682.74 977.254 682.286 976.1 681.891 974.925L681.77 975.097C681.577 975.39 681.404 975.696 681.254 976.014C681.254 981.024 676.238 987.155 676.238 987.155L671.189 979.802L666.77 986.595C666.134 986.932 665.497 988.091 665 989.74C664.86 990.186 664.727 990.67 664.599 991.185C664.51 991.529 664.427 991.892 664.351 992.255C664.306 992.44 664.268 992.624 664.23 992.815L664.115 993.395V993.484C664.039 993.878 663.963 994.286 663.893 994.7C663.822 995.114 663.74 995.591 663.67 996.043C663.619 996.336 663.574 996.629 663.536 996.922C663.447 997.488 663.37 998.061 663.294 998.628C663.249 998.959 663.205 999.265 663.167 999.615L663.014 1000.89C663.339 1001.93 663.702 1002.96 664.077 1003.98C664.317 1004.53 664.457 1005.12 664.491 1005.73C672.304 1007.96 680.585 1007.96 688.398 1005.73C688.395 1005.71 688.395 1005.68 688.398 1005.66C688.28 1005.09 688.229 1004.51 688.245 1003.93V1003.93C688.374 1002.29 688.586 1000.67 688.882 999.055C688.976 998.26 689.016 997.46 689.003 996.661V996.374C688.984 996.132 688.977 995.903 688.971 995.674ZM688.971 995.674C688.971 995.419 688.971 995.165 688.926 994.91C688.882 994.655 688.888 994.432 688.856 994.19C688.824 993.948 688.799 993.707 688.767 993.465C688.735 993.223 688.691 992.981 688.646 992.739C688.602 992.497 688.557 992.255 688.506 992.013C688.506 991.93 688.474 991.854 688.455 991.771C688.385 991.453 688.309 991.134 688.226 990.81C688.143 990.485 688.092 990.294 688.016 990.039C688.016 989.925 687.952 989.81 687.914 989.702C687.876 989.594 687.806 989.333 687.748 989.148L687.634 988.791C687.583 988.632 687.532 988.473 687.475 988.314C687.379 988.027 687.277 987.747 687.175 987.461C687.074 987.174 686.965 986.894 686.857 986.614C686.641 986.041 686.405 985.474 686.17 984.908C685.246 982.705 684.209 980.534 683.254 978.382C682.74 977.254 682.286 976.1 681.891 974.925L681.77 975.097C681.577 975.39 681.404 975.696 681.254 976.014C681.254 981.024 676.238 987.155 676.238 987.155L671.189 979.802L666.77 986.595C666.134 986.932 665.497 988.091 665 989.74C664.86 990.186 664.727 990.67 664.599 991.185C664.51 991.529 664.427 991.892 664.351 992.255C664.306 992.44 664.268 992.624 664.23 992.815L664.115 993.395V993.484C664.039 993.878 663.963 994.286 663.893 994.7C663.822 995.114 663.74 995.591 663.67 996.043C663.619 996.336 663.574 996.629 663.536 996.922C663.447 997.488 663.37 998.061 663.294 998.628C663.249 998.959 663.205 999.265 663.167 999.615L663.014 1000.89C663.339 1001.93 663.702 1002.96 664.077 1003.98C664.317 1004.53 664.457 1005.12 664.491 1005.73C672.304 1007.96 680.585 1007.96 688.398 1005.73C688.395 1005.71 688.395 1005.68 688.398 1005.66C688.28 1005.09 688.229 1004.51 688.245 1003.93V1003.93C688.374 1002.29 688.586 1000.67 688.882 999.055C688.976 998.26 689.016 997.46 689.003 996.661V996.374C688.984 996.132 688.977 995.903 688.971 995.674ZM688.971 995.674C688.971 995.419 688.971 995.165 688.926 994.91C688.882 994.655 688.888 994.432 688.856 994.19C688.824 993.948 688.799 993.707 688.767 993.465C688.735 993.223 688.691 992.981 688.646 992.739C688.602 992.497 688.557 992.255 688.506 992.013C688.506 991.93 688.474 991.854 688.455 991.771C688.385 991.453 688.309 991.134 688.226 990.81C688.143 990.485 688.092 990.294 688.016 990.039C688.016 989.925 687.952 989.81 687.914 989.702C687.876 989.594 687.806 989.333 687.748 989.148L687.634 988.791C687.583 988.632 687.532 988.473 687.475 988.314C687.379 988.027 687.277 987.747 687.175 987.461C687.074 987.174 686.965 986.894 686.857 986.614C686.641 986.041 686.405 985.474 686.17 984.908C685.246 982.705 684.209 980.534 683.254 978.382C682.74 977.254 682.286 976.1 681.891 974.925L681.77 975.097C681.577 975.39 681.404 975.696 681.254 976.014C681.254 981.024 676.238 987.155 676.238 987.155L671.189 979.802L666.77 986.595C666.134 986.932 665.497 988.091 665 989.74C664.86 990.186 664.727 990.67 664.599 991.185C664.51 991.529 664.427 991.892 664.351 992.255C664.306 992.44 664.268 992.624 664.23 992.815L664.115 993.395V993.484C664.039 993.878 663.963 994.286 663.893 994.7C663.822 995.114 663.74 995.591 663.67 996.043C663.619 996.336 663.574 996.629 663.536 996.922C663.447 997.488 663.37 998.061 663.294 998.628C663.249 998.959 663.205 999.265 663.167 999.615L663.014 1000.89C663.339 1001.93 663.702 1002.96 664.077 1003.98C664.317 1004.53 664.457 1005.12 664.491 1005.73C672.304 1007.96 680.585 1007.96 688.398 1005.73C688.395 1005.71 688.395 1005.68 688.398 1005.66C688.28 1005.09 688.229 1004.51 688.245 1003.93V1003.93C688.374 1002.29 688.586 1000.67 688.882 999.055C688.976 998.26 689.016 997.46 689.003 996.661V996.374C688.984 996.132 688.977 995.903 688.971 995.674Z" fill="#444176"/>
<path opacity="0.1" d="M671.278 979.375L670.852 979.317C670.208 979.23 669.57 979.103 668.942 978.935L668.706 978.872C667.153 978.432 665.453 977.643 665.071 976.255C664.957 975.808 664.97 975.338 665.109 974.899C665.323 974.141 665.613 973.408 665.975 972.709V972.67C666.023 972.572 666.076 972.477 666.134 972.384C666.659 971.357 667.454 970.492 668.432 969.882L667.668 970.003L661.2 971.053L651.172 972.67C651.172 972.67 649.39 972.314 646.964 978.999C646.964 979.082 646.907 979.158 646.881 979.247C646.295 980.883 645.678 982.927 645.041 985.48C644.602 987.25 644.201 988.988 643.832 990.675C643.723 991.185 643.615 991.688 643.513 992.184C644.661 993.537 645.897 994.814 647.212 996.004L647.422 996.202C649.999 998.535 652.846 1000.55 655.903 1002.21L656.024 1002.27C657.947 1003.31 659.948 1004.19 662.008 1004.92L662.55 1005.11C662.664 1003.93 662.791 1002.63 662.944 1001.29C662.944 1001.16 662.944 1001.02 662.995 1000.89L663.148 999.614C663.186 999.29 663.231 998.978 663.275 998.627C663.352 998.061 663.428 997.488 663.517 996.921C663.555 996.628 663.6 996.335 663.651 996.043C663.721 995.591 663.797 995.139 663.874 994.699C663.95 994.26 664.02 993.878 664.097 993.483V993.394L664.211 992.815C664.249 992.624 664.288 992.439 664.332 992.254C664.409 991.891 664.491 991.529 664.581 991.185C664.708 990.669 664.842 990.185 664.982 989.74C665.491 988.091 666.083 986.932 666.752 986.594L671.17 979.801L671.355 979.515L671.437 979.387L671.278 979.375Z" fill="black"/>
<path opacity="0.1" d="M672.341 945.478C674.328 945.141 676.327 944.415 678.301 944.841C679.956 945.185 681.338 946.287 682.853 947.051C684.316 947.786 685.916 948.209 687.551 948.292C688.148 948.371 688.754 948.252 689.277 947.955C690.066 947.407 690.181 946.287 690.047 945.332C689.665 942.619 687.972 940.289 686.227 938.176C685.531 937.273 684.727 936.458 683.833 935.75C681.548 934.063 678.524 933.776 675.69 933.903C672.456 934.05 669.171 934.674 666.363 936.297C664.453 937.392 660.073 940.843 661.595 943.339C663.193 945.949 669.839 945.905 672.341 945.478Z" fill="black"/>
<path opacity="0.5" d="M672.341 944.841C674.328 944.504 676.327 943.778 678.301 944.205C679.956 944.549 681.338 945.65 682.853 946.414C684.316 947.15 685.916 947.573 687.551 947.656C688.148 947.734 688.754 947.615 689.277 947.318C690.066 946.771 690.181 945.65 690.047 944.695C689.665 941.983 687.972 939.653 686.227 937.539C685.531 936.636 684.727 935.821 683.833 935.113C681.548 933.426 678.524 933.139 675.69 933.267C672.456 933.413 669.171 934.037 666.363 935.661C664.453 936.756 660.073 940.206 661.595 942.702C663.193 945.313 669.839 945.268 672.341 944.841Z" fill="#444176"/>
</g>
<path d="M898.786 1046.06C898.786 1046.06 896.755 1055.19 893.692 1058.73C890.63 1062.28 886.619 1069.39 883.079 1068.88C879.539 1068.37 878.514 1075.97 885.11 1076.99C891.706 1078 905.362 1074.96 905.362 1074.96C905.362 1074.96 917.026 1069.87 917.529 1066.34C918.032 1062.81 914.486 1044.54 914.486 1044.54L898.786 1046.06Z" fill="#53526B"/>
<path opacity="0.05" d="M898.786 1046.06C898.786 1046.06 896.755 1055.19 893.692 1058.73C890.63 1062.28 886.619 1069.39 883.079 1068.88C879.539 1068.37 878.514 1075.97 885.11 1076.99C891.706 1078 905.362 1074.96 905.362 1074.96C905.362 1074.96 917.026 1069.87 917.529 1066.34C918.032 1062.81 914.486 1044.54 914.486 1044.54L898.786 1046.06Z" fill="black"/>
<path d="M917.548 1050.11C917.548 1050.11 915.517 1059.24 912.455 1062.79C909.392 1066.34 905.362 1073.44 901.828 1072.93C898.295 1072.42 897.264 1080.03 903.859 1081.04C910.455 1082.06 924.144 1079.01 924.144 1079.01C924.144 1079.01 935.808 1073.92 936.31 1070.39C936.813 1066.86 933.267 1048.59 933.267 1048.59L917.548 1050.11Z" fill="#53526B"/>
<path d="M871.402 911.188C871.402 911.188 875.458 954.793 878.501 959.358C881.544 963.923 885.091 983.698 885.091 983.698L891.68 1024.26C891.68 1024.26 894.227 1047.59 895.736 1050.12C897.245 1052.66 916.065 1051.57 916.065 1051.57L904.363 917.268L871.402 911.188Z" fill="#5F5D7E"/>
<path opacity="0.05" d="M871.402 911.188C871.402 911.188 875.458 954.793 878.501 959.358C881.544 963.923 885.091 983.698 885.091 983.698L891.68 1024.26C891.68 1024.26 894.227 1047.59 895.736 1050.12C897.245 1052.66 916.065 1051.57 916.065 1051.57L904.363 917.268L871.402 911.188Z" fill="black"/>
<path d="M863.291 890.388L864.615 894.596L871.778 917.331L871.918 917.764H871.956C872.917 917.981 893.214 922.648 897.595 924.08C897.831 924.153 898.063 924.24 898.289 924.341C900.32 925.354 902.854 961.86 902.854 961.86C902.854 961.86 904.375 996.342 905.4 998.876C906.425 1001.41 910.494 1053.63 913.008 1052.11C915.523 1050.6 933.796 1052.11 933.796 1052.11C935.827 1050.08 933.796 1022.71 933.796 1022.71L930.192 972.518C930.192 972.518 932.223 944.632 930.192 939.558C928.161 934.483 928.161 900.517 928.161 900.517L886.657 894.029L882.646 893.393L863.291 890.388Z" fill="#5F5D7E"/>
<path opacity="0.02" d="M864.615 894.602L871.778 917.338L871.95 917.784C872.911 918 893.208 922.667 897.588 924.099H898.028L886.689 894.036L886.364 893.17L882.678 893.405L864.615 894.602Z" fill="black"/>
<path opacity="0.1" d="M911.971 788.984C911.971 788.984 893.208 809.269 881.545 792.531L870.39 800.139L872.421 811.803L865.825 900.026C865.825 900.026 883.066 899.516 895.233 903.572C898.621 904.774 902.283 904.983 905.786 904.174C909.29 903.365 912.489 901.573 915.008 899.007L913.002 821.435L917.567 797.605L911.971 788.984Z" fill="black"/>
<path d="M911.971 787.463C911.971 787.463 893.208 807.747 881.545 791.009L870.39 798.617L872.421 810.281L865.825 898.504C865.825 898.504 883.066 897.995 895.233 902.05C898.621 903.252 902.283 903.461 905.786 902.653C909.29 901.844 912.489 900.051 915.008 897.486L913.002 819.914L917.567 796.083L911.971 787.463Z" fill="#53526B"/>
<path d="M874.516 877.794V880.99H873.498V878.864H869.773V880.99H868.748V877.8L874.516 877.794Z" fill="#E82127"/>
<path d="M873.606 876.763H869.671C869.413 876.701 869.177 876.57 868.989 876.384C868.8 876.197 868.666 875.963 868.602 875.706H874.669C874.604 875.963 874.469 876.197 874.281 876.383C874.093 876.569 873.857 876.701 873.599 876.763" fill="#E82127"/>
<path d="M909.183 875.744C909.116 875.998 908.982 876.23 908.795 876.415C908.608 876.599 908.375 876.731 908.12 876.795H906.464L906.382 876.826V881.003H905.363V876.826L905.267 876.795H903.612C903.358 876.729 903.126 876.597 902.939 876.412C902.752 876.228 902.618 875.997 902.549 875.744V875.744H909.183Z" fill="#E82127"/>
<path d="M872.924 892.425C872.924 892.425 872.924 905.61 869.881 911.187C866.838 916.765 849.094 913.734 849.094 913.734L852.64 894.971L872.924 892.425Z" fill="#D6DBE6"/>
<path d="M851.022 922.858C853.696 925.404 864.781 920.311 864.017 917.28C863.482 915.135 861.61 907.457 860.547 903.102L859.808 900.039C859.808 900.039 853.314 898.008 851.022 900.039C850.188 900.778 849.603 903.687 849.329 907.202C848.858 913.308 849.335 921.24 851.022 922.858Z" fill="#FDC2CC"/>
<path d="M875.438 796.587L893.182 810.275C893.182 810.275 919.547 808.753 912.957 796.077C910.088 790.502 908.357 784.412 907.864 778.161C907.65 775.855 907.65 773.534 907.864 771.228C907.864 771.228 883.524 748.945 886.567 774.271C886.807 776.215 886.948 778.17 886.988 780.129C887.351 799.14 875.438 796.587 875.438 796.587Z" fill="#FDC2CC"/>
<path opacity="0.1" d="M886.619 774.277C886.859 776.221 886.999 778.176 887.039 780.134C889.77 781.943 892.976 782.904 896.252 782.897C900.791 782.897 904.134 778.479 907.151 775.544C906.814 771.335 907.909 771.233 907.909 771.233C907.909 771.233 883.576 748.925 886.619 774.277Z" fill="black"/>
<path d="M896.251 781.885C905.492 781.885 912.983 774.394 912.983 765.154C912.983 755.913 905.492 748.422 896.251 748.422C887.011 748.422 879.52 755.913 879.52 765.154C879.52 774.394 887.011 781.885 896.251 781.885Z" fill="#FDC2CC"/>
<path opacity="0.1" d="M908.163 781.121C908.163 781.121 910.952 781.376 916.529 788.978C922.106 796.579 934.273 797.598 934.273 797.598C934.273 797.598 938.838 795.567 943.906 818.385C948.974 841.203 950.495 856.413 947.961 858.947C945.427 861.481 935.285 865.04 930.192 865.04C930.192 865.04 928.67 896.982 931.204 902.559C933.738 908.136 930.695 911.689 930.695 911.689L908.412 910.167C908.412 910.167 900.803 900.535 899.282 883.803C897.76 867.071 892.692 819.404 895.226 813.827C897.76 808.25 908.915 794.052 908.412 792.53C907.909 791.009 908.163 781.121 908.163 781.121Z" fill="black"/>
<path d="M908.221 780.969C908.221 780.969 911.971 780.867 917.548 788.475C923.125 796.083 935.285 797.096 935.285 797.096C935.285 797.096 939.85 795.065 944.918 817.883C949.986 840.701 951.508 855.911 948.974 858.445C946.44 860.979 936.298 864.531 931.23 864.531C931.23 864.531 929.708 896.473 932.242 902.05C934.776 907.628 931.733 911.18 931.733 911.18L909.449 909.659C909.449 909.659 901.841 900.026 900.32 883.294C898.798 866.562 893.717 818.901 896.251 813.35C898.785 807.798 909.94 793.575 909.437 792.053C908.934 790.532 908.221 780.969 908.221 780.969Z" fill="#D6DBE6"/>
<path opacity="0.1" d="M849.335 907.195C851.761 905.342 856.338 902.458 860.553 903.095L859.815 900.033C859.815 900.033 853.321 898.002 851.028 900.033C850.182 900.771 849.602 903.674 849.335 907.195Z" fill="black"/>
<path opacity="0.1" d="M886.899 784.166C886.899 784.166 873.968 792.532 872.446 796.084C870.925 799.637 865.347 802.171 865.347 802.171C865.347 802.171 854.702 807.748 854.702 827.523L849.125 855.409L874.477 890.903C874.477 890.903 877.52 855.409 879.042 846.789C880.564 838.168 882.588 821.959 882.588 821.959C882.588 821.959 890.196 812.326 889.178 809.792C888.159 807.258 886.899 784.166 886.899 784.166Z" fill="black"/>
<path d="M886.899 784.012C886.899 784.012 873.414 791.518 871.899 795.064C870.384 798.611 864.8 801.151 864.8 801.151C864.8 801.151 854.155 806.728 854.155 826.503L848.578 854.389L847.565 907.627C847.565 907.627 856.695 899.007 863.285 903.062C869.874 907.118 873.93 889.877 873.93 889.877C873.93 889.877 876.973 854.383 878.495 845.762C880.016 837.142 882.041 820.932 882.041 820.932C882.041 820.932 889.649 811.299 888.631 808.765C887.612 806.231 886.899 784.012 886.899 784.012Z" fill="#D6DBE6"/>
<path opacity="0.1" d="M881.563 744.8C882.422 743.708 883.414 742.728 884.517 741.884C886.262 740.433 888.191 738.917 890.356 739.045C891.58 739.208 892.756 739.629 893.806 740.28C899.197 743.119 904.572 745.989 909.933 748.888C911.913 749.957 913.957 751.09 915.338 753.013C916.72 754.936 917.28 757.406 917.669 759.825C917.994 761.464 918.071 763.143 917.898 764.804C917.74 766.433 916.949 767.935 915.695 768.987C914.25 770.038 912.27 770.044 911.06 771.419C910.36 772.215 910.054 773.329 909.557 774.297C909.061 775.265 908.201 776.207 907.221 776.035C906.24 775.863 905.648 774.825 905.508 773.775C905.446 772.71 905.508 771.642 905.693 770.592C905.884 768.682 905.642 766.657 904.534 765.237C903.77 764.269 902.675 763.684 901.937 762.69C900.167 760.297 900.975 756.324 899.033 754.076C898.469 753.489 897.76 753.062 896.977 752.838C896.194 752.614 895.366 752.602 894.577 752.803C893.004 753.134 891.565 753.987 890.12 754.713C888.168 755.698 886.122 756.487 884.014 757.069C882.244 757.553 880.194 758.711 879.59 756.356C878.666 752.899 879.526 747.608 881.563 744.8Z" fill="black"/>
<path d="M882.073 744.296C882.931 743.204 883.924 742.224 885.027 741.38C886.771 739.929 888.701 738.413 890.865 738.541C892.09 738.704 893.266 739.125 894.316 739.776C899.702 742.615 904.178 739.929 910.443 748.384C911.78 750.192 914.466 750.586 915.848 752.509C917.23 754.432 917.79 756.902 918.178 759.322C918.503 760.96 918.581 762.639 918.407 764.3C918.25 765.929 917.459 767.431 916.205 768.483C914.759 769.534 912.779 769.54 911.57 770.915C910.869 771.711 910.564 772.825 910.067 773.793C909.571 774.761 908.711 775.703 907.731 775.531C906.75 775.359 906.158 774.321 906.018 773.271C905.956 772.206 906.017 771.138 906.203 770.088C906.394 768.178 906.152 766.153 905.044 764.733C904.28 763.765 903.185 763.18 902.446 762.187C900.676 759.793 901.485 755.82 899.543 753.572C898.979 752.985 898.27 752.558 897.487 752.334C896.704 752.11 895.875 752.098 895.086 752.299C893.514 752.63 892.075 753.483 890.63 754.209C888.677 755.194 886.632 755.983 884.524 756.565C882.754 757.049 880.704 758.207 880.099 755.852C879.17 752.395 880.035 747.098 882.073 744.296Z" fill="#865A61"/>
<path opacity="0.1" d="M927.773 821.684C927.773 821.684 934.534 838.925 929.46 846.023L918.306 843.477C918.306 843.477 928.448 846.52 926.926 840.433C925.405 834.347 927.773 821.684 927.773 821.684Z" fill="black"/>
<path opacity="0.1" d="M931.466 864.284C931.466 864.284 916.759 865.296 912.703 862.253C918.044 866.33 924.351 868.951 931.007 869.861L931.466 864.284Z" fill="black"/>
<path opacity="0.1" d="M868.111 831.812C868.111 831.812 860.502 855.14 861.012 858.686C861.521 862.232 862.533 901.279 862.533 901.279L864.055 900.77L863.546 858.177L868.111 831.812Z" fill="black"/>
<path d="M923.255 870.323L749.444 730.256C748.433 729.245 747.231 728.443 745.909 727.897C744.588 727.351 743.171 727.071 741.74 727.073H734.355C749.114 708.16 756.103 684.33 753.897 660.442C751.691 636.553 740.457 614.406 722.485 598.515C704.513 582.624 681.156 574.186 657.178 574.922C633.199 575.658 610.404 585.513 593.441 602.476C576.477 619.44 566.623 642.235 565.887 666.213C565.151 690.192 573.588 713.549 589.479 731.521C605.37 749.493 627.518 760.727 651.406 762.933C675.294 765.138 699.124 758.149 718.037 743.391V750.77C718.035 752.2 718.315 753.617 718.862 754.939C719.408 756.261 720.21 757.462 721.221 758.473L895.031 898.54C896.037 899.555 897.234 900.36 898.553 900.91C899.872 901.459 901.287 901.742 902.716 901.742C904.144 901.742 905.559 901.459 906.878 900.91C908.197 900.36 909.394 899.555 910.4 898.54L923.21 885.743C925.254 883.701 926.406 880.932 926.414 878.043C926.423 875.153 925.287 872.378 923.255 870.323V870.323ZM660.011 727.073C648.535 727.073 637.316 723.67 627.774 717.294C618.232 710.918 610.794 701.855 606.402 691.253C602.011 680.65 600.861 668.983 603.1 657.727C605.339 646.471 610.866 636.132 618.981 628.017C627.096 619.901 637.435 614.375 648.691 612.136C659.947 609.897 671.614 611.046 682.217 615.438C692.82 619.83 701.882 627.267 708.258 636.81C714.634 646.352 718.037 657.571 718.037 669.047C718.043 676.669 716.546 684.218 713.633 691.261C710.719 698.305 706.445 704.705 701.056 710.095C695.667 715.486 689.268 719.761 682.225 722.676C675.182 725.591 667.634 727.09 660.011 727.086V727.073Z" fill="url(#paint2_linear)"/>
<path d="M934.528 859.05L760.718 718.983C759.706 717.972 758.505 717.17 757.183 716.624C755.861 716.078 754.444 715.797 753.014 715.8H745.629C760.387 696.887 767.376 673.056 765.17 649.168C762.965 625.28 751.731 603.132 733.758 587.241C715.786 571.35 692.43 562.913 668.451 563.649C644.473 564.385 621.678 574.24 604.714 591.203C587.751 608.166 577.896 630.961 577.16 654.94C576.424 678.919 584.862 702.275 600.753 720.247C616.643 738.219 638.791 749.454 662.679 751.659C686.568 753.865 710.398 746.876 729.311 732.117V739.496C729.309 740.927 729.589 742.343 730.135 743.665C730.681 744.987 731.483 746.188 732.494 747.2L906.304 887.267C907.311 888.281 908.508 889.087 909.827 889.636C911.146 890.186 912.56 890.469 913.989 890.469C915.418 890.469 916.833 890.186 918.152 889.636C919.47 889.087 920.667 888.281 921.674 887.267L934.483 874.47C936.527 872.427 937.679 869.659 937.688 866.769C937.696 863.88 936.56 861.104 934.528 859.05V859.05ZM671.285 715.8C659.808 715.8 648.59 712.396 639.047 706.02C629.505 699.644 622.068 690.582 617.676 679.979C613.284 669.376 612.135 657.709 614.374 646.453C616.613 635.197 622.139 624.858 630.254 616.743C638.369 608.628 648.709 603.102 659.965 600.863C671.22 598.624 682.888 599.773 693.49 604.165C704.093 608.556 713.156 615.994 719.532 625.536C725.908 635.078 729.311 646.297 729.311 657.774C729.317 665.396 727.82 672.945 724.906 679.988C721.992 687.031 717.718 693.431 712.329 698.822C706.94 704.212 700.541 708.487 693.498 711.403C686.456 714.318 678.907 715.816 671.285 715.812V715.8Z" fill="#0066FF"/>
<path d="M921.603 846.277C921.603 846.277 896.232 817.182 899.798 837.148C902.344 851.345 911.964 858.954 916.529 860.475C921.094 861.997 921.603 846.277 921.603 846.277Z" fill="#FDC2CC"/>
<path d="M927.691 819.404C927.691 819.404 928.2 838.167 930.734 840.701C933.268 843.235 929.212 846.278 929.212 846.278L919.07 843.731C919.07 843.731 921.617 860.463 910.959 858.438C910.959 858.438 918.058 865.028 925.157 866.047C932.256 867.065 931.746 864.525 931.746 864.525L942.391 851.849L927.691 819.404Z" fill="#D6DBE6"/>
<path d="M930.498 864.799L940.786 862.539L939.411 857.796L933.044 855.249L924.768 859.069L930.498 864.799Z" fill="#D6DBE6"/>
<path d="M677.633 681.821L691.327 671.259C691.327 671.259 682.153 673.226 682.414 658.564C682.411 658.515 682.411 658.466 682.414 658.418C682.414 657.093 682.541 655.642 682.732 654.044C685.082 634.479 666.3 651.694 666.3 651.694C666.462 653.427 666.462 655.17 666.3 656.902C666.3 656.947 666.3 656.998 666.3 657.042C665.928 661.864 664.599 666.563 662.391 670.864C657.291 680.644 677.633 681.821 677.633 681.821Z" fill="#FDC2CC"/>
<path opacity="0.1" d="M668.051 654.184C670.375 656.444 671.794 660.55 675.29 660.55C677.819 660.556 680.293 659.814 682.401 658.418C682.401 657.093 682.529 655.642 682.72 654.044C685.069 634.479 666.287 651.694 666.287 651.694C666.287 651.694 668.299 651 668.051 654.184Z" fill="black"/>
<path d="M675.29 659.913C682.42 659.913 688.201 654.132 688.201 647.001C688.201 639.871 682.42 634.09 675.29 634.09C668.159 634.09 662.378 639.871 662.378 647.001C662.378 654.132 668.159 659.913 675.29 659.913Z" fill="#FDC2CC"/>
<path opacity="0.1" d="M687.673 630.467C686.932 629.531 686.077 628.693 685.126 627.971C683.636 626.73 681.981 625.425 680.128 625.539C679.08 625.679 678.073 626.039 677.174 626.596C672.558 629.028 668.732 626.73 663.365 633.962C662.219 635.509 659.92 635.872 658.736 637.496C657.552 639.119 657.074 641.252 656.737 643.328C656.458 644.732 656.392 646.17 656.54 647.593C656.681 648.991 657.367 650.276 658.45 651.172C659.685 652.069 661.385 652.076 662.422 653.253C662.944 654.021 663.372 654.848 663.696 655.717C664.116 656.545 664.855 657.328 665.695 657.207C666.535 657.086 667.038 656.176 667.159 655.297C667.212 654.388 667.158 653.476 667 652.579C666.841 650.968 667.045 649.211 667.993 647.995C668.63 647.161 669.585 646.664 670.215 645.817C671.731 643.773 671.043 640.342 672.705 638.445C673.191 637.946 673.8 637.584 674.471 637.397C675.142 637.211 675.851 637.205 676.525 637.381C677.863 637.763 679.147 638.315 680.345 639.024C682.016 639.868 683.767 640.544 685.572 641.042C687.087 641.456 688.844 642.449 689.36 640.405C690.168 637.4 689.411 632.867 687.673 630.467Z" fill="black"/>
<path d="M687.673 629.83C686.932 628.895 686.077 628.056 685.126 627.335C683.636 626.093 681.981 624.788 680.128 624.903C679.08 625.042 678.073 625.402 677.174 625.959C672.558 628.391 668.732 626.093 663.365 633.326C662.219 634.873 659.92 635.236 658.736 636.859C657.552 638.483 657.074 640.616 656.737 642.691C656.458 644.095 656.392 645.533 656.54 646.957C656.681 648.354 657.367 649.64 658.45 650.535C659.685 651.433 661.385 651.439 662.422 652.617C662.944 653.384 663.372 654.211 663.696 655.081C664.116 655.908 664.855 656.691 665.695 656.57C666.535 656.449 667.038 655.539 667.159 654.66C667.212 653.751 667.158 652.839 667 651.942C666.841 650.331 667.045 648.574 667.993 647.358C668.63 646.524 669.585 646.027 670.215 645.18C671.731 643.137 671.043 639.705 672.705 637.808C673.191 637.309 673.8 636.948 674.471 636.761C675.142 636.574 675.851 636.568 676.525 636.745C677.863 637.127 679.147 637.679 680.345 638.387C682.016 639.231 683.767 639.907 685.572 640.405C687.087 640.819 688.844 641.812 689.36 639.769C690.168 636.764 689.411 632.231 687.673 629.83Z" fill="#865A61"/>
<path opacity="0.1" d="M662.378 688.614L662.123 698.387C665.823 699.392 669.641 699.9 673.475 699.896C674.111 699.896 674.78 699.896 675.429 699.851C678.829 699.705 682.2 699.153 685.47 698.208H685.533C686.138 698.03 686.737 697.846 687.329 697.642H687.392L687.933 697.451C689.994 696.725 691.995 695.84 693.918 694.802L694.039 694.739C694.249 694.624 694.459 694.509 694.676 694.388L693.689 681.216L695.262 672.181L686.654 666.318C686.171 667.016 685.63 667.671 685.037 668.279C684.187 669.166 683.192 669.903 682.095 670.456C675.92 673.499 668.891 668.661 665.395 665.668L664.6 664.962C663.696 664.14 663.18 663.58 663.18 663.58L658.876 670.227L662.378 688.614Z" fill="black"/>
<path d="M662.378 689.251L662.123 699.023C665.823 700.029 669.641 700.536 673.475 700.532C674.111 700.532 674.78 700.532 675.429 700.488C678.829 700.341 682.2 699.79 685.47 698.845H685.533C686.138 698.667 686.737 698.482 687.329 698.279H687.392L687.933 698.088C689.994 697.362 691.995 696.476 693.918 695.439L694.039 695.375C694.249 695.261 694.459 695.146 694.676 695.025L693.689 681.853L695.262 672.818L686.654 666.954C686.171 667.652 685.63 668.308 685.037 668.915C684.187 669.803 683.192 670.539 682.095 671.093C675.92 674.136 668.891 669.297 665.395 666.305L664.6 665.598C663.696 664.777 663.18 664.217 663.18 664.217L658.876 670.864L662.378 689.251Z" fill="#53526B"/>
<path d="M686.24 690.034C686.24 690.034 686.711 693.784 687.329 698.266H687.392L687.934 698.075C689.994 697.35 691.995 696.464 693.918 695.427L694.039 695.363C694.249 695.249 694.459 695.134 694.676 695.013C697.498 693.429 700.134 691.532 702.532 689.359L702.743 689.162C704.058 687.971 705.294 686.695 706.442 685.342L706.575 685.183C704.302 677.294 699.572 674.811 699.572 674.811C699.572 674.811 695.268 672.851 694.09 670.113C692.912 667.375 682.516 661.588 682.516 661.588V661.632C682.516 662.123 682.35 666.611 682.102 671.125C681.943 674.06 681.745 677.008 681.516 678.88C681.466 679.488 681.355 680.089 681.185 680.675C680.376 682.604 686.24 690.034 686.24 690.034Z" fill="#555388"/>
<defs>
<linearGradient id="paint0_linear" x1="806.347" y1="1051.12" x2="806.347" y2="570.238" gradientUnits="userSpaceOnUse">
<stop stop-color="#808080" stop-opacity="0.25"/>
<stop offset="0.54" stop-color="#808080" stop-opacity="0.12"/>
<stop offset="1" stop-color="#808080" stop-opacity="0.1"/>
</linearGradient>
<linearGradient id="paint1_linear" x1="24292.4" y1="39986.8" x2="24292.4" y2="30662.1" gradientUnits="userSpaceOnUse">
<stop stop-color="#808080" stop-opacity="0.25"/>
<stop offset="0.54" stop-color="#808080" stop-opacity="0.12"/>
<stop offset="1" stop-color="#808080" stop-opacity="0.1"/>
</linearGradient>
<linearGradient id="paint2_linear" x1="173103" y1="186283" x2="173103" y2="18411.8" gradientUnits="userSpaceOnUse">
<stop stop-color="#808080" stop-opacity="0.25"/>
<stop offset="0.54" stop-color="#808080" stop-opacity="0.12"/>
<stop offset="1" stop-color="#808080" stop-opacity="0.1"/>
</linearGradient>
</defs>
</svg>
