<svg width="2118" height="2071" viewBox="0 0 2118 2071" fill="none" xmlns="http://www.w3.org/2000/svg">
<path d="M2117.95 849.031V1255.84L2117.58 1256.02L1765.17 1052.57L2117.95 849.031Z" fill="#0C2E3A"/>
<path d="M2117.95 848.394V849.029L1765.17 1052.57L1764.9 1052.39V644.67L2117.95 848.394Z" fill="#78001B"/>
<path d="M2117.95 33.499V441.219L1764.9 237.404V237.223L2117.95 33.499Z" fill="#2962FF"/>
<path d="M2117.95 441.219V441.491L1765.35 644.943L1764.9 644.67V237.404L2117.95 441.219Z" fill="#1F54C9"/>
<path d="M2117.95 441.491V848.394L1765.35 644.943L2117.95 441.491Z" fill="#1F54C9"/>
<path d="M2117.95 1255.84V1663.56L1764.9 1459.75V1459.57L2117.95 1255.84Z" fill="#2CAFFF"/>
<path d="M2117.95 1663.56V1663.93L1765.35 1867.29L1764.9 1867.01V1459.75L2117.95 1663.56Z" fill="#2CAFFF"/>
<path d="M2117.95 1663.93V2070.74L1765.35 1867.29L2117.95 1663.93Z" fill="#2962FF"/>
<path d="M2117.58 1256.02L1764.9 1459.56V1052.75L1765.17 1052.57L2117.58 1256.02Z" fill="#1F54C9"/>
<path d="M2117.95 849.031V1255.84L2117.58 1256.02L1765.17 1052.57L2117.95 849.031Z" fill="#1F54C9"/>
<path d="M2117.95 848.394V849.029L1765.17 1052.57L1764.9 1052.39V644.67L2117.95 848.394Z" fill="#1F54C9"/>
<path d="M1764.9 644.671V1052.39L1411.84 848.576V848.395L1764.9 644.671Z" fill="#78001B"/>
<path d="M1764.9 1052.39V1052.75L1412.3 1256.11L1411.84 1255.84V848.575L1764.9 1052.39Z" fill="#78001B"/>
<path d="M2117.95 848.395V849.03L1765.17 1052.57L1764.9 1052.39V644.671L2117.95 848.395Z" fill="#78001B"/>
<path d="M1411.84 849.031V1255.84L1411.48 1256.02L1059.06 1052.57L1411.84 849.031Z" fill="#78001B"/>
<path d="M1411.84 848.394V849.029L1059.06 1052.57L1058.79 1052.39V644.67L1411.84 848.394Z" fill="#F5340B"/>
<path d="M1411.84 33.499V441.219L1058.79 237.404V237.223L1411.84 33.499Z" fill="#2CAFFF"/>
<path d="M1411.84 441.219V441.491L1059.24 644.943L1058.79 644.67V237.404L1411.84 441.219Z" fill="#1F54C9"/>
<path d="M1411.84 441.491V848.394L1059.25 644.943L1411.84 441.491Z" fill="#1F54C9"/>
<path d="M1764.53 644.852L1411.84 848.394V441.491L1412.12 441.4L1764.53 644.852Z" fill="#2CAFFF"/>
<path d="M1764.9 237.859V644.672L1764.53 644.853L1412.12 441.402L1764.9 237.859Z" fill="#2CAFFF"/>
<path d="M1411.84 1255.84V1663.56L1058.79 1459.75V1459.57L1411.84 1255.84Z" fill="#2962FF"/>
<path d="M1411.84 1663.56V1663.93L1059.24 1867.29L1058.79 1867.01V1459.75L1411.84 1663.56Z" fill="#2962FF"/>
<path d="M1411.84 1663.93V2070.74L1059.25 1867.29L1411.84 1663.93Z" fill="#2CAFFF"/>
<path d="M1764.53 1867.2L1411.84 2070.74V1663.93L1412.12 1663.75L1764.53 1867.2Z" fill="#2CAFFF"/>
<path d="M1764.9 1460.2V1867.01L1764.53 1867.2L1412.12 1663.74L1764.9 1460.2Z" fill="#1F54C9"/>
<path d="M1764.9 1459.57V1460.2L1412.12 1663.74L1411.84 1663.56V1255.84L1764.9 1459.57Z" fill="#1F54C9"/>
<path d="M1764.9 644.67V1052.39L1411.84 848.575V848.394L1764.9 644.67Z" fill="#1F54C9"/>
<path d="M1764.9 1052.39V1052.75L1412.3 1256.11L1411.84 1255.84V848.575L1764.9 1052.39Z" fill="#1F54C9"/>
<path d="M1764.9 1052.75V1459.56L1412.3 1256.11L1764.9 1052.75Z" fill="#2CAFFF"/>
<path d="M2117.58 1256.02L1764.9 1459.57V1052.75L1765.17 1052.57L2117.58 1256.02Z" fill="#5F91FF"/>
<path d="M2117.95 848.394V849.029L1765.17 1052.57L1764.9 1052.39V644.67L2117.95 848.394Z" fill="#5F91FF"/>
<path d="M1411.48 1256.02L1058.79 1459.56V1052.75L1059.06 1052.57L1411.48 1256.02Z" fill="#1F54C9"/>
<path d="M1411.84 849.031V1255.84L1411.48 1256.02L1059.06 1052.57L1411.84 849.031Z" fill="#1F54C9"/>
<path d="M1411.84 848.394V849.029L1059.06 1052.57L1058.79 1052.39V644.67L1411.84 848.394Z" fill="#1F54C9"/>
<path d="M1058.79 644.671V1052.39L705.741 848.576V848.395L1058.79 644.671Z" fill="#F5340B"/>
<path d="M1058.79 1052.39V1052.75L706.195 1256.11L705.741 1255.84V848.575L1058.79 1052.39Z" fill="#E3651D"/>
<path d="M1411.85 848.395V849.03L1059.07 1052.57L1058.79 1052.39V644.671L1411.85 848.395Z" fill="#FFA73B"/>
<path d="M705.74 33.499V441.219L352.689 237.404V237.223L705.74 33.499Z" fill="#5F91FF"/>
<path d="M1058.43 644.852L705.741 848.394V441.491L706.013 441.4L1058.43 644.852Z" fill="#5F91FF"/>
<path d="M465.134 644.854L300.462 739.907V549.892H300.552L465.134 644.854Z" fill="#5F91FF"/>
<path d="M462.229 64.912L349.692 129.915V0.0907362L349.782 0L462.229 64.912Z" fill="#5F91FF"/>
<path d="M1058.79 237.859V644.672L1058.43 644.853L706.012 441.402L1058.79 237.859Z" fill="#5F91FF"/>
<path d="M1058.79 237.223V237.858L706.013 441.401L705.741 441.219V33.499L1058.79 237.223Z" fill="#2962FF"/>
<path d="M705.74 1255.84V1663.56L352.689 1459.75V1459.57L705.74 1255.84Z" fill="#2962FF"/>
<path d="M1058.43 1867.2L705.741 2070.74V1663.93L706.013 1663.75L1058.43 1867.2Z" fill="#1F54C9"/>
<path d="M352.688 1867.2L0 2070.74V1663.93L0.272486 1663.75L352.688 1867.2Z" fill="#1F54C9"/>
<path d="M1058.79 1460.2V1867.01L1058.43 1867.2L706.012 1663.74L1058.79 1460.2Z" fill="#1F54C9"/>
<path d="M1058.79 1459.57V1460.2L706.013 1663.74L705.741 1663.56V1255.84L1058.79 1459.57Z" fill="#1F54C9"/>
<path d="M1058.79 644.67V1052.39L705.741 848.575V848.394L1058.79 644.67Z" fill="#2962FF"/>
<path d="M1058.79 1052.39V1052.75L706.195 1256.11L705.741 1255.84V848.575L1058.79 1052.39Z" fill="#2962FF"/>
<path d="M1058.79 1052.75V1459.56L706.193 1256.11L1058.79 1052.75Z" fill="#5F91FF"/>
<path d="M1411.48 1256.02L1058.79 1459.57V1052.75L1059.06 1052.57L1411.48 1256.02Z" fill="#2962FF"/>
<path d="M1411.84 848.394V849.029L1059.06 1052.57L1058.79 1052.39V644.67L1411.84 848.394Z" fill="#2962FF"/>
</svg>
