<svg width="117" height="117" viewBox="0 0 117 117" fill="none" xmlns="http://www.w3.org/2000/svg">
<g id="person">
<path id="Oval" fill-rule="evenodd" clip-rule="evenodd" d="M58.5 117C90.8087 117 117 90.8087 117 58.5C117 26.1913 90.8087 0 58.5 0C26.1913 0 0 26.1913 0 58.5C0 90.8087 26.1913 117 58.5 117Z" fill="#EBEBEB"/>
<mask id="mask0" mask-type="alpha" maskUnits="userSpaceOnUse" x="0" y="0" width="117" height="117">
<path id="Oval_2" fill-rule="evenodd" clip-rule="evenodd" d="M58.5 117C90.8087 117 117 90.8087 117 58.5C117 26.1913 90.8087 0 58.5 0C26.1913 0 0 26.1913 0 58.5C0 90.8087 26.1913 117 58.5 117Z" fill="white"/>
</mask>
<g mask="url(#mask0)">
<path id="Path" d="M99.9588 98.8338C98.4025 91.9662 89.5184 88.6189 86.449 87.5391C83.077 86.3513 78.2783 86.0705 75.1873 85.3795C73.4148 84.9907 70.8425 84.0189 69.9779 82.9823C69.1133 81.9457 69.632 72.3355 69.632 72.3355C69.632 72.3355 71.2316 69.852 72.0962 67.6492C72.9608 65.468 73.9119 59.4643 73.9119 59.4643C73.9119 59.4643 75.6844 59.4643 76.3113 56.3545C76.9814 52.9639 78.0405 51.6465 77.9108 49.1198C77.7811 46.6363 76.4194 46.7011 76.4194 46.7011C76.4194 46.7011 77.7379 43.0945 77.8892 35.6223C78.0838 26.7464 71.1235 18 58.5216 18C45.7468 18 38.9378 26.7464 39.1324 35.6223C39.3053 43.0945 40.5806 46.7011 40.5806 46.7011C40.5806 46.7011 39.2188 46.6363 39.0891 49.1198C38.9594 51.6465 40.0186 52.9639 40.6887 56.3545C41.2939 59.4643 43.088 59.4643 43.088 59.4643C43.088 59.4643 44.0391 65.468 44.9037 67.6492C45.7684 69.852 47.3679 72.3355 47.3679 72.3355C47.3679 72.3355 47.8867 81.9457 47.0221 82.9823C46.1574 84.0189 43.5852 84.9907 41.8127 85.3795C38.7217 86.0705 33.923 86.3513 30.551 87.5391C27.4815 88.6189 18.5975 91.9662 17.0412 98.8338C16.8034 99.9136 17.6248 100.929 18.7488 100.929C18.7488 100.929 22.322 117 58.5216 117C94.7667 117 98.2728 100.929 98.2728 100.929C99.3752 100.929 100.197 99.9136 99.9588 98.8338Z" fill="#C3C3C3"/>
</g>
</g>
</svg>
