<svg width="152" height="42" viewBox="0 0 152 42" fill="none" xmlns="http://www.w3.org/2000/svg">
<g clip-path="url(#clip0)">
<path d="M33.7313 19.1333L40.0001 10.6683L35.5743 7.39307L16.3907 33.299L9.71128 28.3527L6.43604 32.7738L17.5413 41.0001L33.7313 19.1333Z" fill="#0066FF"/>
<path d="M20 10.248L25.29 17.0754L28.7228 12.4347L20 1L0 28.0136L4.4211 31.2841L20 10.248Z" fill="#0066FF"/>
<path d="M31.8218 25.9221L35.5745 31.2837L40.0003 28.0133L35.2498 21.2861L31.8218 25.9221Z" fill="#0066FF"/>
</g>
<path d="M74.52 28V20.512C74.52 17.176 72.096 16.12 69.456 16.12C67.632 16.12 65.808 16.696 64.392 17.944L65.544 19.984C66.528 19.072 67.68 18.616 68.928 18.616C70.464 18.616 71.472 19.384 71.472 20.56V22.12C70.704 21.208 69.336 20.704 67.8 20.704C65.952 20.704 63.768 21.736 63.768 24.448C63.768 27.04 65.952 28.288 67.8 28.288C69.312 28.288 70.68 27.736 71.472 26.8V28H74.52ZM69.024 26.224C67.824 26.224 66.84 25.6 66.84 24.52C66.84 23.392 67.824 22.768 69.024 22.768C70.008 22.768 70.968 23.104 71.472 23.776V25.216C70.968 25.888 70.008 26.224 69.024 26.224ZM82.4933 28V14.992H87.1493V11.992H74.3813V14.992H79.0613V28H82.4933ZM97.395 28V20.512C97.395 17.176 94.971 16.12 92.331 16.12C90.507 16.12 88.683 16.696 87.267 17.944L88.419 19.984C89.403 19.072 90.555 18.616 91.803 18.616C93.339 18.616 94.347 19.384 94.347 20.56V22.12C93.579 21.208 92.211 20.704 90.675 20.704C88.827 20.704 86.643 21.736 86.643 24.448C86.643 27.04 88.827 28.288 90.675 28.288C92.187 28.288 93.555 27.736 94.347 26.8V28H97.395ZM91.899 26.224C90.699 26.224 89.715 25.6 89.715 24.52C89.715 23.392 90.699 22.768 91.899 22.768C92.883 22.768 93.843 23.104 94.347 23.776V25.216C93.843 25.888 92.883 26.224 91.899 26.224ZM103.466 24.28V20.176C103.97 19.408 105.098 18.832 106.082 18.832C107.858 18.832 109.034 20.2 109.034 22.216C109.034 24.232 107.858 25.576 106.082 25.576C105.098 25.576 103.97 25.024 103.466 24.28ZM103.466 28V26.512C104.378 27.664 105.65 28.288 107.042 28.288C109.97 28.288 112.178 26.08 112.178 22.216C112.178 18.424 109.994 16.12 107.042 16.12C105.674 16.12 104.378 16.72 103.466 17.896V11.992H100.418V28H103.466ZM117.529 28V11.992H114.481V28H117.529ZM125.999 28.288C127.799 28.288 129.623 27.736 130.775 26.68L129.431 24.712C128.687 25.432 127.319 25.864 126.335 25.864C124.367 25.864 123.191 24.64 122.999 23.176H131.615V22.504C131.615 18.712 129.263 16.12 125.807 16.12C122.279 16.12 119.807 18.832 119.807 22.192C119.807 25.912 122.471 28.288 125.999 28.288ZM128.663 21.112H122.951C123.095 19.96 123.911 18.544 125.807 18.544C127.823 18.544 128.591 20.008 128.663 21.112Z" fill="#0A2240"/>
<defs>
<clipPath id="clip0">
<rect width="40" height="40" fill="white" transform="translate(0 1)"/>
</clipPath>
</defs>
</svg>
