<svg width="32" height="32" viewBox="0 0 32 32" fill="none" xmlns="http://www.w3.org/2000/svg">
<path fill-rule="evenodd" clip-rule="evenodd" d="M20.6699 17.1299C22.0399 18.0599 22.9999 19.3199 22.9999 20.9999V23.9999H25.9999C26.5499 23.9999 26.9999 23.5499 26.9999 22.9999V20.9999C26.9999 18.8199 23.4299 17.5299 20.6699 17.1299V17.1299Z" fill="#4879F8"/>
<path d="M13 16C15.2091 16 17 14.2091 17 12C17 9.79086 15.2091 8 13 8C10.7909 8 9 9.79086 9 12C9 14.2091 10.7909 16 13 16Z" fill="#4879F8"/>
<path fill-rule="evenodd" clip-rule="evenodd" d="M19 16C21.21 16 23 14.21 23 12C23 9.79 21.21 8 19 8C18.53 8 18.09 8.1 17.67 8.24C18.5305 9.30422 19 10.6314 19 12C19 13.3686 18.5305 14.6958 17.67 15.76C18.09 15.9 18.53 16 19 16ZM13 17C10.33 17 5 18.34 5 21V23C5 23.55 5.45 24 6 24H20C20.55 24 21 23.55 21 23V21C21 18.34 15.67 17 13 17Z" fill="#4879F8"/>
<rect x="0.5" y="0.5" width="31" height="31" rx="3.5" stroke="#4879F8"/>
</svg>
