<svg width="1907" height="1138" viewBox="0 0 1907 1138" fill="none" xmlns="http://www.w3.org/2000/svg">
<path d="M133.866 745.098C143.412 768.799 147.857 794.079 146.937 819.441C146.017 844.803 139.752 869.732 128.513 892.752C127.15 895.515 125.688 898.308 124.193 901.102C106.408 934.219 81.6099 968.647 95.0271 1002.69C105.455 1029.22 135.443 1043.17 163.148 1053.58C270.507 1093.95 383.266 1119.9 498.168 1130.68C582.908 1138.62 668.256 1138.23 753.423 1137.82C937.602 1136.96 1121.98 1136.11 1305.58 1122.22C1389.52 1115.97 1473.75 1106.81 1554.5 1084.17C1665.36 1052.98 1766.82 997.148 1850.47 921.297C1853.45 918.597 1856.39 915.85 1859.32 913.057C1876.92 896.186 1892.98 877.505 1901.1 855.172C1917.19 810.443 1897.89 761.298 1873.08 720.315C1848.27 679.332 1817.13 640.237 1807 593.901C1792.03 525.685 1825.32 457.515 1850.91 392.217C1876.5 326.919 1893.31 248.527 1850.99 191.625C1830.35 163.877 1798.44 145.757 1766.33 130.759C1671.58 86.5459 1567.82 62.5095 1462.29 60.3267C1400.78 59.1094 1337.1 65.0086 1279.6 44.2206C1247.23 32.4845 1218.13 12.6328 1184.47 4.79832C1127.56 -8.40487 1068.65 14.927 1017.61 42.2542C988.249 57.9857 959.641 75.1842 928.931 88.6371C906.613 98.4224 880.944 109.378 857.197 115.449C833.927 121.395 809.95 109.472 789.52 99.6866C745.179 78.4304 703.499 46.7489 652.49 41.7548C587.901 35.5121 523.918 75.1061 460.347 62.418C433.249 57.0025 409.19 42.4571 382.816 34.4509C313.841 13.4756 239.233 39.1329 174.019 69.1756C133.604 87.7787 92.5308 109.503 67.2729 144.821C47.9271 171.93 39.7158 204.641 31.948 236.541C2.38745 357.945 -24.5948 492.24 38.09 601.736C66.6981 651.568 112.222 692.223 133.866 745.098Z" fill="#0066FF"/>
<path d="M12.0892 537.961C18.0822 559.773 26.8221 580.817 38.12 600.639C66.6635 650.472 112.156 691.159 133.802 744.051C137.006 751.9 139.629 759.952 141.652 768.148C142.506 771.519 143.245 774.911 143.869 778.324C151.121 816.732 145.736 856.33 128.448 891.724C127.084 894.486 125.623 897.28 124.128 900.074C106.342 933.191 81.543 967.62 94.9607 1001.66C96.3077 1005.09 98.0132 1008.39 100.052 1011.51C113.19 1031.8 139.024 1043.52 163.084 1052.55C270.448 1092.93 383.211 1118.88 498.117 1129.65C520.272 1131.73 542.46 1133.24 564.664 1134.33C627.433 1137.45 690.433 1137.11 753.333 1136.82C937.52 1135.96 1121.9 1135.1 1305.51 1121.21C1389.45 1114.97 1473.69 1105.8 1554.44 1083.16C1665.32 1051.99 1766.8 996.173 1850.47 920.331C1853.46 917.631 1856.4 914.884 1859.32 912.091C1876.93 895.204 1892.99 876.523 1901.1 854.189C1912.2 823.287 1906.46 790.294 1893.65 759.346C1887.84 745.543 1880.97 732.168 1873.08 719.33C1870.95 715.818 1868.76 712.291 1866.51 708.81C1843.03 671.572 1816.23 635.286 1806.96 592.96C1795.47 540.755 1812.33 488.565 1832.3 437.671C1834.06 433.192 1835.85 428.713 1837.64 424.265C1842.08 413.2 1846.58 402.181 1850.86 391.256C1876.47 325.972 1893.27 247.579 1850.94 190.676C1849.78 189.115 1848.55 187.554 1847.28 185.994C1827.57 161.928 1799.13 145.416 1770.21 131.635L1766.28 129.762C1671.53 85.5476 1567.76 61.5107 1462.22 59.3279C1400.72 58.1105 1337.03 64.01 1279.53 43.2215C1247.16 31.4851 1218.06 11.6331 1184.39 3.7984C1127.49 -9.40507 1068.58 13.9273 1017.53 41.255C988.169 56.9712 959.56 74.1857 928.848 87.6389C906.529 97.4244 880.86 108.38 857.112 114.452C833.84 120.398 809.862 108.474 789.432 98.6886C745.089 77.4319 703.407 45.7498 652.396 40.7556C587.804 34.5129 523.819 74.1077 460.245 61.4192C433.147 56.0036 409.087 41.4579 382.711 33.4516C313.734 12.4603 239.123 38.1337 173.907 68.177C138.351 84.5331 102.285 103.324 77.01 131.666C73.5359 135.549 70.2849 139.608 67.2711 143.824C66.9263 144.292 66.5979 144.776 66.2694 145.26C47.6455 172.072 39.5652 204.191 31.9448 235.546C17.0326 296.787 2.76086 361.307 0.34668 424.28C-1.11499 463.157 1.90686 501.457 12.0892 537.961Z" fill="url(#paint0_linear)"/>
<g opacity="0.1">
<path opacity="0.1" d="M266.926 914.768C268.003 917.514 269.367 920.152 270.997 922.64C343.947 958.064 421.907 983.278 502.456 997.499C547.531 1005.48 594.484 1013.34 642.581 1020.79C692.778 1023.29 743.16 1023.01 793.463 1022.78C940.759 1022.09 1088.21 1021.4 1235.05 1010.3C1302.18 1005.31 1369.54 997.986 1434.12 979.883C1522.78 954.961 1603.93 910.341 1670.83 849.715C1673.22 847.556 1675.57 845.361 1677.91 843.127C1691.99 829.628 1704.84 814.693 1711.32 796.839C1720.2 772.136 1715.6 745.76 1705.36 721.02L305.999 736.179C311.798 766.882 307.492 798.538 293.666 826.833C292.576 829.041 291.407 831.275 290.212 833.508C276.028 860.033 256.196 887.556 266.926 914.768Z" fill="black"/>
<path opacity="0.1" d="M252.595 219.227H1606.64L1603.51 217.73C1527.73 182.384 1444.74 163.168 1360.35 161.423C1311.16 160.45 1260.23 165.166 1214.24 148.547C1188.36 139.165 1165.08 123.295 1138.16 117.032C1092.65 106.477 1045.54 125.129 1004.72 146.975C981.236 159.539 958.357 173.301 933.796 184.056C915.948 191.878 895.419 200.637 876.428 205.49C857.817 210.244 838.642 200.712 822.303 192.889C786.842 175.896 753.508 150.569 712.714 146.576C661.058 141.585 609.889 173.238 559.048 163.095C537.377 158.766 518.136 147.137 497.043 140.737C441.88 123.956 382.213 144.48 330.059 168.497C301.689 181.548 272.847 196.569 252.595 219.227Z" fill="black"/>
<path opacity="0.1" d="M1656.29 463.865C1640.32 504.551 1626.87 546.273 1636.03 588.007C1643.44 621.843 1664.92 650.851 1683.65 680.62L304.267 728.031C302.649 721.478 300.551 715.041 297.989 708.767C280.678 666.509 244.297 633.908 221.471 594.12C212.438 578.282 205.448 561.467 200.654 544.039L1656.29 463.865ZM1102.44 613.371H1137.37C1135.06 613.311 1132.76 613.692 1130.6 614.491C1128.44 615.291 1126.48 616.493 1124.82 618.026C1123.16 619.56 1121.84 621.394 1120.94 623.42C1120.04 625.446 1119.57 627.622 1119.57 629.822C1119.57 632.021 1120.04 634.198 1120.94 636.224C1121.84 638.25 1123.16 640.084 1124.82 641.617C1126.48 643.151 1128.44 644.353 1130.6 645.152C1132.76 645.952 1135.06 646.333 1137.37 646.272H1339.64C1341.95 646.333 1344.25 645.952 1346.41 645.152C1348.57 644.353 1350.53 643.151 1352.19 641.617C1353.85 640.084 1355.17 638.25 1356.07 636.224C1356.97 634.198 1357.44 632.021 1357.44 629.822C1357.44 627.622 1356.97 625.446 1356.07 623.42C1355.17 621.394 1353.85 619.56 1352.19 618.026C1350.53 616.493 1348.57 615.291 1346.41 614.491C1344.25 613.692 1341.95 613.311 1339.64 613.371H1304.67C1306.99 613.432 1309.29 613.051 1311.45 612.252C1313.6 611.452 1315.57 610.25 1317.23 608.717C1318.89 607.183 1320.21 605.349 1321.11 603.323C1322.01 601.297 1322.47 599.12 1322.47 596.921C1322.47 594.722 1322.01 592.545 1321.11 590.519C1320.21 588.493 1318.89 586.659 1317.23 585.126C1315.57 583.592 1313.6 582.39 1311.45 581.59C1309.29 580.791 1306.99 580.41 1304.67 580.471H1329.63C1334.22 580.471 1338.62 578.738 1341.87 575.654C1345.11 572.571 1346.94 568.388 1346.94 564.027C1346.94 559.666 1345.11 555.483 1341.87 552.399C1338.62 549.315 1334.22 547.583 1329.63 547.583H1127.37C1122.78 547.583 1118.37 549.315 1115.13 552.399C1111.88 555.483 1110.06 559.666 1110.06 564.027C1110.06 568.388 1111.88 572.571 1115.13 575.654C1118.37 578.738 1122.78 580.471 1127.37 580.471H1102.41C1100.1 580.41 1097.79 580.791 1095.64 581.59C1093.48 582.39 1091.51 583.592 1089.86 585.126C1088.2 586.659 1086.88 588.493 1085.98 590.519C1085.08 592.545 1084.61 594.722 1084.61 596.921C1084.61 599.12 1085.08 601.297 1085.98 603.323C1086.88 605.349 1088.2 607.183 1089.86 608.717C1091.51 610.25 1093.48 611.452 1095.64 612.252C1097.79 613.051 1100.1 613.432 1102.41 613.371H1102.44Z" fill="black"/>
<path opacity="0.1" d="M216.558 302.269C222.652 277.204 229.114 251.527 244.008 230.093L1668.28 262.681C1669.3 263.929 1670.28 265.177 1671.21 266.424C1705.06 311.901 1691.62 374.571 1671.15 426.76C1667.72 435.494 1664.12 444.29 1660.56 453.136H191.289C193.219 402.805 204.633 351.227 216.558 302.269ZM1410.94 365.775H1445.89C1443.57 365.714 1441.27 366.095 1439.11 366.895C1436.96 367.694 1434.99 368.896 1433.33 370.43C1431.67 371.963 1430.35 373.797 1429.45 375.823C1428.55 377.849 1428.09 380.026 1428.09 382.225C1428.09 384.424 1428.55 386.601 1429.45 388.627C1430.35 390.653 1431.67 392.487 1433.33 394.021C1434.99 395.554 1436.96 396.756 1439.11 397.556C1441.27 398.355 1443.57 398.736 1445.89 398.675H1648.15C1650.46 398.736 1652.77 398.355 1654.92 397.556C1657.08 396.756 1659.05 395.554 1660.71 394.021C1662.37 392.487 1663.69 390.653 1664.59 388.627C1665.49 386.601 1665.95 384.424 1665.95 382.225C1665.95 380.026 1665.49 377.849 1664.59 375.823C1663.69 373.797 1662.37 371.963 1660.71 370.43C1659.05 368.896 1657.08 367.694 1654.92 366.895C1652.77 366.095 1650.46 365.714 1648.15 365.775H1613.21C1615.53 365.835 1617.83 365.455 1619.99 364.655C1622.15 363.856 1624.11 362.654 1625.77 361.12C1627.43 359.587 1628.75 357.753 1629.65 355.727C1630.55 353.701 1631.01 351.524 1631.01 349.325C1631.01 347.125 1630.55 344.948 1629.65 342.923C1628.75 340.897 1627.43 339.063 1625.77 337.529C1624.11 335.995 1622.15 334.793 1619.99 333.994C1617.83 333.195 1615.53 332.814 1613.21 332.874H1638.17C1642.76 332.874 1647.16 331.142 1650.41 328.058C1653.65 324.974 1655.48 320.792 1655.48 316.43C1655.48 312.069 1653.65 307.886 1650.41 304.803C1647.16 301.719 1642.76 299.986 1638.17 299.986H1435.91C1431.32 299.986 1426.91 301.719 1423.67 304.803C1420.42 307.886 1418.6 312.069 1418.6 316.43C1418.6 320.792 1420.42 324.974 1423.67 328.058C1426.91 331.142 1431.32 332.874 1435.91 332.874H1410.95C1408.64 332.814 1406.33 333.195 1404.18 333.994C1402.02 334.793 1400.05 335.995 1398.4 337.529C1396.74 339.063 1395.42 340.897 1394.52 342.923C1393.62 344.948 1393.15 347.125 1393.15 349.325C1393.15 351.524 1393.62 353.701 1394.52 355.727C1395.42 357.753 1396.74 359.587 1398.4 361.12C1400.05 362.654 1402.02 363.856 1404.18 364.655C1406.33 365.455 1408.64 365.835 1410.95 365.775H1410.94Z" fill="black"/>
</g>
<path d="M266.925 915.84C275.265 937.05 299.247 948.204 321.404 956.526C407.264 988.802 497.443 1009.55 589.335 1018.16C657.106 1024.51 725.363 1024.2 793.475 1023.87C940.771 1023.19 1088.23 1022.5 1235.06 1011.4C1302.19 1006.41 1369.55 999.083 1434.13 980.98C1522.8 956.038 1814.5 1016 1891 875C1877 864 1831.64 805.178 1719.5 838C1699 844 1637.47 841.219 1617.24 842.64C1560.49 846.321 1505.2 861.293 1448.71 867.793C1230.01 892.896 1005.78 790.214 792.201 841.518C726.282 857.363 663.857 887.581 596.151 893.644C496.216 902.603 400.693 858.224 302.793 837.076C298.682 836.178 294.479 835.342 290.25 834.581C276.026 861.081 256.194 888.604 266.925 915.84Z" fill="#3F3D56"/>
<path d="M530.118 476.38H536.855V829.565H530.118V476.38Z" fill="#3F3D56"/>
<path d="M523.706 895.63C526.795 897.906 530.593 899.141 534.502 899.141C538.411 899.141 542.209 897.906 545.298 895.63C548.306 876.728 540.662 839.573 538.862 831.251C538.613 830.165 538.482 829.566 538.482 829.566H529.84C529.275 830.12 528.829 830.773 528.526 831.488C522.524 843.565 523.706 895.63 523.706 895.63Z" fill="#3F3D56"/>
<path opacity="0.1" d="M531.614 821.93V829.566H535.265V821.918C534.678 821.832 534.086 821.79 533.492 821.793C532.863 821.794 532.235 821.84 531.614 821.93Z" fill="black"/>
<path opacity="0.1" d="M528.502 831.488C530.04 832.251 531.757 832.633 533.493 832.598C535.381 832.638 537.243 832.171 538.864 831.251C538.615 830.165 538.483 829.566 538.483 829.566H529.841C529.268 830.118 528.813 830.771 528.502 831.488Z" fill="black"/>
<path d="M533.48 831.301C529.462 831.301 526.204 829.464 526.204 827.197C526.204 824.93 529.462 823.092 533.48 823.092C537.499 823.092 540.756 824.93 540.756 827.197C540.756 829.464 537.499 831.301 533.48 831.301Z" fill="#3F3D56"/>
<path d="M565.471 419.489L540.267 409.37L502.06 416.42L531.375 395.359L565.471 419.489Z" fill="#3F3D56"/>
<path d="M557.971 423.22L565.471 419.489L539.846 407.836L502.06 416.42L508.706 419.489L539.846 412.852L557.971 423.22Z" fill="#0066FF"/>
<path d="M557.971 423.217L565.471 419.486L539.098 406.735L502.06 416.417L508.706 419.486L539.846 412.849L557.971 423.217Z" fill="#3F3D56"/>
<path d="M558.984 420.462L538.364 475.358H528.146L509.049 417.068L539.848 410.256L558.984 420.462Z" fill="#3F3D56"/>
<path d="M523.076 459.9L527.16 472.351L528.145 475.358H538.363L539.125 473.325L543.945 460.499L536.209 456.082L523.076 459.9Z" fill="#3F3D56"/>
<path opacity="0.2" d="M539.849 412.853L534.963 475.36H538.365L557.974 423.221L539.849 412.853Z" fill="#0066FF"/>
<path opacity="0.1" d="M531.375 395.359L539.846 407.836L565.471 419.489L531.375 395.359Z" fill="black"/>
<path opacity="0.1" d="M527.161 472.35L528.146 475.357H538.364L539.126 473.323C538.269 472.512 537.241 471.883 536.108 471.479C534.976 471.075 533.766 470.904 532.559 470.978C530.658 470.931 528.784 471.408 527.161 472.35Z" fill="black"/>
<path opacity="0.1" d="M531.611 476.382V481.722C531.93 481.741 532.251 481.741 532.57 481.722C533.455 481.717 534.336 481.616 535.197 481.422V476.332L531.611 476.382Z" fill="black"/>
<path d="M532.571 480.487C528.553 480.487 525.295 478.649 525.295 476.382C525.295 474.115 528.553 472.277 532.571 472.277C536.59 472.277 539.847 474.115 539.847 476.382C539.847 478.649 536.59 480.487 532.571 480.487Z" fill="#3F3D56"/>
<path d="M859.383 835.081C859.383 835.081 946.933 831.575 956.127 668.807C965.32 506.038 874.132 478.465 874.132 478.465C874.132 478.465 845.238 463.131 832.432 462.495C819.626 461.859 776.797 465.701 776.797 465.701L824 457.043C824 457.043 757.569 433.025 737.684 431.104L809.487 445.477C809.487 445.477 810.498 407.686 793.306 395.184C793.306 395.184 807.964 394.148 815.778 421.385C817.997 429.24 822.123 436.492 827.825 442.559C833.527 448.626 840.647 453.338 848.613 456.319C875.262 466.188 912.089 481.771 920.468 495.109C920.468 495.109 935.979 510.492 933.602 470.455C931.225 430.418 920.114 396.132 916.068 395.172C916.068 395.172 884.363 363.144 839.892 361.223C839.892 361.223 865.845 351.242 909.685 382.371C909.685 382.371 913.389 366.675 896.867 348.098C880.344 329.52 854.72 290.431 826.732 286.276C826.732 286.276 865.845 284.031 896.867 332.078C896.867 332.078 908.333 339.127 909.344 321.186C910.355 303.245 917.106 280.824 917.106 280.824C917.106 280.824 926.549 322.146 906.599 340.712C906.599 340.712 944.687 387.798 943.006 440.648C943.006 440.648 954.827 464.678 959.2 436.481C959.2 436.481 961.735 397.667 966.805 364.741C968.855 351.471 968.001 337.942 964.298 324.999C960.594 312.056 954.119 299.978 945.278 289.52C936.859 279.539 930.989 269.882 934.246 264.804L978.415 314.71C978.415 314.71 1015.51 233.027 1042.48 215.41C1069.46 197.793 1072.83 193.95 1072.83 193.95L1029.33 242.309L1083.96 224.056L1029.33 248.086C1029.33 248.086 1004.04 267.624 989.539 321.111C975.04 374.598 973.7 408.047 973.7 408.047C973.7 408.047 1051.58 349.408 1066.43 351.354L1016.02 387.536C1002.31 397.383 990.982 409.911 982.809 424.275C974.636 438.638 969.805 454.502 968.643 470.792C968.643 470.792 1066.08 447.086 1089.69 442.607L1134.2 399.364L1100.48 440.362L1169.93 439.401L1209.73 412.501C1209.73 412.501 1178.37 437.455 1181.4 439.089C1184.43 440.723 1230.3 442.607 1230.3 442.607C1230.3 442.607 1113.63 441.971 1100.81 449.981C1087.99 457.991 1059.35 460.86 1059.35 460.86L1141.96 472.713L1043.45 465.988C1043.45 465.988 968.932 478.802 964.887 500.923C964.887 500.923 980.07 538.527 990.183 553.449C998.575 565.838 1015.47 605.975 1018.84 641.209C1022.22 676.442 1026.93 730.578 1014.11 763.566C1001.29 796.554 996.592 815.456 1002.99 825.387C1009.38 835.318 1015.47 848.132 994.557 850.689C973.647 853.247 881.947 849.442 881.947 849.442C881.947 849.442 853.985 854.707 859.383 835.081Z" fill="#3F3D56"/>
<path opacity="0.1" d="M908.399 817.602C917.563 813.163 928.075 811.913 938.108 814.071C955.287 817.602 981.581 815.73 983.984 815.319" fill="black"/>
<path opacity="0.1" d="M963.336 625.789C963.336 625.789 967.512 688.409 960.079 700.748L963.336 625.789Z" fill="black"/>
<path opacity="0.1" d="M978.758 700.748C978.758 700.748 973.399 759.388 969.695 770.854C965.992 782.32 978.758 700.748 978.758 700.748Z" fill="black"/>
<path opacity="0.1" d="M983.982 556.516C987.765 557.838 1004.01 589.142 1000.77 598.399C997.523 607.657 983.982 556.516 983.982 556.516Z" fill="black"/>
<path opacity="0.1" d="M942.783 524.078C944.556 524.839 952.107 542.868 950.597 548.208C949.087 553.548 942.783 524.078 942.783 524.078Z" fill="black"/>
<path opacity="0.1" d="M1013.13 629.219C1011.26 647.397 1010.24 659.3 1011.43 673.847C1012.44 685.156 1012.26 696.531 1010.92 707.808" fill="black"/>
<path opacity="0.1" d="M809.71 417.504C811.84 420.145 812.956 423.398 812.875 426.724C812.994 430.018 812.534 433.324 812.77 436.606C813.007 440.074 814.74 444.091 818.352 444.591" fill="black"/>
<path opacity="0.1" d="M871.98 309.106C876.594 313.459 880.686 318.283 884.181 323.492C885.193 325.143 886.353 326.709 887.649 328.171C889.733 330.066 891.968 331.805 894.334 333.373C899.597 337.443 903.338 343.018 904.999 349.268" fill="black"/>
<path opacity="0.1" d="M1048.24 215.512C1047.13 217.562 1045.67 219.422 1043.92 221.014C1042.38 222.399 1040.65 223.509 1039.25 225.069C1038.15 226.39 1037.16 227.787 1036.27 229.248C1032.56 234.559 1028.39 239.567 1023.81 244.22" fill="black"/>
<path opacity="0.1" d="M966.634 308.234C969.536 309.956 970.298 313.649 970.232 316.968C970.167 320.287 969.589 323.605 970.863 326.625C971.441 328.01 972.373 329.22 972.977 330.58C973.854 332.982 974.198 335.531 973.989 338.066C973.936 341.027 973.84 343.975 973.7 346.912C973.542 350.467 973.187 354.31 970.653 356.893" fill="black"/>
<path opacity="0.1" d="M969.01 483.695C970.933 482.207 972.975 480.864 975.118 479.678C977.077 478.54 979.188 477.658 981.396 477.057C984.758 476.209 988.291 476.334 991.745 475.997C995.199 475.66 998.824 474.749 1001.19 472.316" fill="black"/>
<path opacity="0.1" d="M1106.11 443.231C1102.02 443.344 1097.75 443.481 1094.11 445.265C1092.24 446.176 1090.63 447.473 1088.79 448.447C1086.42 449.695 1083.76 450.356 1081.05 450.368" fill="black"/>
<path opacity="0.1" d="M1049.24 459.314C1049.72 459.064 1050.29 458.991 1050.83 459.111C1051.38 459.23 1051.85 459.533 1052.18 459.963C1052.91 460.761 1053.32 461.797 1054.07 462.583C1055.57 464.117 1058.01 464.292 1060.21 464.367" fill="black"/>
<path opacity="0.1" d="M1025.74 376.529L1021.8 378.488C1017.7 380.365 1013.81 382.622 1010.17 385.225" fill="black"/>
<path opacity="0.1" d="M980.727 413.151C978.1 412.565 975.893 415.197 975.473 417.68C975.053 420.163 975.552 422.796 974.803 425.166C973.979 427.287 972.627 429.188 970.863 430.706" fill="black"/>
<path opacity="0.1" d="M936.861 417.728C934.51 424.415 939.487 431.714 938.043 438.626C937.596 440.734 936.572 442.693 936.046 444.777C934.733 450.279 937.031 456.143 940.814 460.509" fill="black"/>
<path d="M1330.61 891.4L1328.59 895.492V865.1H1330.61V891.4Z" fill="#3F3D56"/>
<path d="M1461 891.4L1463.03 895.492V865.1H1461V891.4Z" fill="#3F3D56"/>
<path d="M1447.25 809.256H1452.85V846.623H1447.25V809.256Z" fill="#3F3D56"/>
<path d="M1334.72 809.256H1340.32V846.623H1334.72V809.256Z" fill="#3F3D56"/>
<g opacity="0.1">
<path opacity="0.1" d="M1447.25 809.256H1452.85V846.623H1447.25V809.256Z" fill="black"/>
<path opacity="0.1" d="M1334.72 809.256H1340.32V846.623H1334.72V809.256Z" fill="black"/>
</g>
<path opacity="0.1" d="M1447.25 809.256H1452.85V813.61H1447.25V809.256Z" fill="black"/>
<path opacity="0.1" d="M1334.72 809.256H1340.32V813.61H1334.72V809.256Z" fill="black"/>
<path d="M1326.75 807.682H1461.46V813.259H1326.75V807.682Z" fill="#3F3D56"/>
<path opacity="0.1" d="M1447.25 815.615H1452.85V821.192H1447.25V815.615Z" fill="black"/>
<path opacity="0.1" d="M1334.72 815.615H1340.32V821.192H1334.72V815.615Z" fill="black"/>
<path d="M1326.75 815.27H1461.46V820.846H1326.75V815.27Z" fill="#3F3D56"/>
<path opacity="0.1" d="M1447.25 823.19H1452.85V828.767H1447.25V823.19Z" fill="black"/>
<path opacity="0.1" d="M1334.72 823.19H1340.32V828.767H1334.72V823.19Z" fill="black"/>
<path d="M1326.75 822.841H1461.46V828.418H1326.75V822.841Z" fill="#3F3D56"/>
<path opacity="0.1" d="M1447.25 830.774H1452.85V836.351H1447.25V830.774Z" fill="black"/>
<path opacity="0.1" d="M1334.72 830.774H1340.32V836.351H1334.72V830.774Z" fill="black"/>
<path d="M1326.75 830.425H1461.46V836.002H1326.75V830.425Z" fill="#3F3D56"/>
<path opacity="0.1" d="M1447.25 838.35H1452.85V843.927H1447.25V838.35Z" fill="black"/>
<path opacity="0.1" d="M1334.72 838.35H1340.32V843.927H1334.72V838.35Z" fill="black"/>
<path d="M1326.75 838H1461.46V843.577H1326.75V838Z" fill="#3F3D56"/>
<g opacity="0.1">
<path opacity="0.1" d="M1450.05 811.598C1449.6 811.598 1449.24 811.252 1449.24 810.824C1449.24 810.397 1449.6 810.051 1450.05 810.051C1450.5 810.051 1450.87 810.397 1450.87 810.824C1450.87 811.252 1450.5 811.598 1450.05 811.598Z" fill="black"/>
<path opacity="0.1" d="M1450.05 819.173C1449.6 819.173 1449.24 818.827 1449.24 818.4C1449.24 817.972 1449.6 817.626 1450.05 817.626C1450.5 817.626 1450.87 817.972 1450.87 818.4C1450.87 818.827 1450.5 819.173 1450.05 819.173Z" fill="black"/>
<path opacity="0.1" d="M1450.05 826.757C1449.6 826.757 1449.24 826.411 1449.24 825.983C1449.24 825.556 1449.6 825.21 1450.05 825.21C1450.5 825.21 1450.87 825.556 1450.87 825.983C1450.87 826.411 1450.5 826.757 1450.05 826.757Z" fill="black"/>
<path opacity="0.1" d="M1450.05 834.332C1449.6 834.332 1449.24 833.986 1449.24 833.559C1449.24 833.132 1449.6 832.785 1450.05 832.785C1450.5 832.785 1450.87 833.132 1450.87 833.559C1450.87 833.986 1450.5 834.332 1450.05 834.332Z" fill="black"/>
<path opacity="0.1" d="M1450.05 841.916C1449.6 841.916 1449.24 841.57 1449.24 841.143C1449.24 840.715 1449.6 840.369 1450.05 840.369C1450.5 840.369 1450.87 840.715 1450.87 841.143C1450.87 841.57 1450.5 841.916 1450.05 841.916Z" fill="black"/>
<path opacity="0.1" d="M1337.52 811.598C1337.07 811.598 1336.71 811.252 1336.71 810.824C1336.71 810.397 1337.07 810.051 1337.52 810.051C1337.97 810.051 1338.34 810.397 1338.34 810.824C1338.34 811.252 1337.97 811.598 1337.52 811.598Z" fill="black"/>
<path opacity="0.1" d="M1337.52 819.173C1337.07 819.173 1336.71 818.827 1336.71 818.4C1336.71 817.972 1337.07 817.626 1337.52 817.626C1337.97 817.626 1338.34 817.972 1338.34 818.4C1338.34 818.827 1337.97 819.173 1337.52 819.173Z" fill="black"/>
<path opacity="0.1" d="M1337.52 826.757C1337.07 826.757 1336.71 826.411 1336.71 825.983C1336.71 825.556 1337.07 825.21 1337.52 825.21C1337.97 825.21 1338.34 825.556 1338.34 825.983C1338.34 826.411 1337.97 826.757 1337.52 826.757Z" fill="black"/>
<path opacity="0.1" d="M1337.52 834.332C1337.07 834.332 1336.71 833.986 1336.71 833.559C1336.71 833.132 1337.07 832.785 1337.52 832.785C1337.97 832.785 1338.34 833.132 1338.34 833.559C1338.34 833.986 1337.97 834.332 1337.52 834.332Z" fill="black"/>
<path opacity="0.1" d="M1337.52 841.916C1337.07 841.916 1336.71 841.57 1336.71 841.143C1336.71 840.715 1337.07 840.369 1337.52 840.369C1337.97 840.369 1338.34 840.715 1338.34 841.143C1338.34 841.57 1337.97 841.916 1337.52 841.916Z" fill="black"/>
</g>
<path d="M1450.05 811.252C1449.6 811.252 1449.24 810.906 1449.24 810.479C1449.24 810.051 1449.6 809.705 1450.05 809.705C1450.5 809.705 1450.87 810.051 1450.87 810.479C1450.87 810.906 1450.5 811.252 1450.05 811.252Z" fill="#3F3D56"/>
<path d="M1450.05 818.822C1449.6 818.822 1449.24 818.476 1449.24 818.049C1449.24 817.622 1449.6 817.275 1450.05 817.275C1450.5 817.275 1450.87 817.622 1450.87 818.049C1450.87 818.476 1450.5 818.822 1450.05 818.822Z" fill="#3F3D56"/>
<path d="M1450.05 826.411C1449.6 826.411 1449.24 826.064 1449.24 825.637C1449.24 825.21 1449.6 824.863 1450.05 824.863C1450.5 824.863 1450.87 825.21 1450.87 825.637C1450.87 826.064 1450.5 826.411 1450.05 826.411Z" fill="#3F3D56"/>
<path d="M1450.05 833.983C1449.6 833.983 1449.24 833.636 1449.24 833.209C1449.24 832.782 1449.6 832.436 1450.05 832.436C1450.5 832.436 1450.87 832.782 1450.87 833.209C1450.87 833.636 1450.5 833.983 1450.05 833.983Z" fill="#3F3D56"/>
<path d="M1450.05 841.567C1449.6 841.567 1449.24 841.22 1449.24 840.793C1449.24 840.366 1449.6 840.02 1450.05 840.02C1450.5 840.02 1450.87 840.366 1450.87 840.793C1450.87 841.22 1450.5 841.567 1450.05 841.567Z" fill="#3F3D56"/>
<path d="M1450.05 811.252C1449.6 811.252 1449.24 810.906 1449.24 810.479C1449.24 810.051 1449.6 809.705 1450.05 809.705C1450.5 809.705 1450.87 810.051 1450.87 810.479C1450.87 810.906 1450.5 811.252 1450.05 811.252Z" fill="#3F3D56"/>
<path d="M1450.05 818.822C1449.6 818.822 1449.24 818.476 1449.24 818.049C1449.24 817.622 1449.6 817.275 1450.05 817.275C1450.5 817.275 1450.87 817.622 1450.87 818.049C1450.87 818.476 1450.5 818.822 1450.05 818.822Z" fill="#3F3D56"/>
<path d="M1450.05 826.411C1449.6 826.411 1449.24 826.064 1449.24 825.637C1449.24 825.21 1449.6 824.863 1450.05 824.863C1450.5 824.863 1450.87 825.21 1450.87 825.637C1450.87 826.064 1450.5 826.411 1450.05 826.411Z" fill="#3F3D56"/>
<path d="M1450.05 833.983C1449.6 833.983 1449.24 833.636 1449.24 833.209C1449.24 832.782 1449.6 832.436 1450.05 832.436C1450.5 832.436 1450.87 832.782 1450.87 833.209C1450.87 833.636 1450.5 833.983 1450.05 833.983Z" fill="#3F3D56"/>
<path d="M1450.05 841.567C1449.6 841.567 1449.24 841.22 1449.24 840.793C1449.24 840.366 1449.6 840.02 1450.05 840.02C1450.5 840.02 1450.87 840.366 1450.87 840.793C1450.87 841.22 1450.5 841.567 1450.05 841.567Z" fill="#3F3D56"/>
<path d="M1337.52 811.252C1337.07 811.252 1336.71 810.906 1336.71 810.479C1336.71 810.051 1337.07 809.705 1337.52 809.705C1337.97 809.705 1338.34 810.051 1338.34 810.479C1338.34 810.906 1337.97 811.252 1337.52 811.252Z" fill="#3F3D56"/>
<path d="M1337.52 818.822C1337.07 818.822 1336.71 818.476 1336.71 818.049C1336.71 817.622 1337.07 817.275 1337.52 817.275C1337.97 817.275 1338.34 817.622 1338.34 818.049C1338.34 818.476 1337.97 818.822 1337.52 818.822Z" fill="#3F3D56"/>
<path d="M1337.52 826.411C1337.07 826.411 1336.71 826.064 1336.71 825.637C1336.71 825.21 1337.07 824.863 1337.52 824.863C1337.97 824.863 1338.34 825.21 1338.34 825.637C1338.34 826.064 1337.97 826.411 1337.52 826.411Z" fill="#3F3D56"/>
<path d="M1337.52 833.983C1337.07 833.983 1336.71 833.636 1336.71 833.209C1336.71 832.782 1337.07 832.436 1337.52 832.436C1337.97 832.436 1338.34 832.782 1338.34 833.209C1338.34 833.636 1337.97 833.983 1337.52 833.983Z" fill="#3F3D56"/>
<path d="M1337.52 841.567C1337.07 841.567 1336.71 841.22 1336.71 840.793C1336.71 840.366 1337.07 840.02 1337.52 840.02C1337.97 840.02 1338.34 840.366 1338.34 840.793C1338.34 841.22 1337.97 841.567 1337.52 841.567Z" fill="#3F3D56"/>
<g opacity="0.1">
<path opacity="0.1" d="M1450.05 811.252C1449.6 811.252 1449.24 810.906 1449.24 810.479C1449.24 810.051 1449.6 809.705 1450.05 809.705C1450.5 809.705 1450.87 810.051 1450.87 810.479C1450.87 810.906 1450.5 811.252 1450.05 811.252Z" fill="black"/>
<path opacity="0.1" d="M1450.05 818.827C1449.6 818.827 1449.24 818.481 1449.24 818.054C1449.24 817.627 1449.6 817.28 1450.05 817.28C1450.5 817.28 1450.87 817.627 1450.87 818.054C1450.87 818.481 1450.5 818.827 1450.05 818.827Z" fill="black"/>
<path opacity="0.1" d="M1450.05 826.411C1449.6 826.411 1449.24 826.065 1449.24 825.638C1449.24 825.211 1449.6 824.864 1450.05 824.864C1450.5 824.864 1450.87 825.211 1450.87 825.638C1450.87 826.065 1450.5 826.411 1450.05 826.411Z" fill="black"/>
<path opacity="0.1" d="M1450.05 833.983C1449.6 833.983 1449.24 833.636 1449.24 833.209C1449.24 832.782 1449.6 832.436 1450.05 832.436C1450.5 832.436 1450.87 832.782 1450.87 833.209C1450.87 833.636 1450.5 833.983 1450.05 833.983Z" fill="black"/>
<path opacity="0.1" d="M1450.05 841.57C1449.6 841.57 1449.24 841.224 1449.24 840.797C1449.24 840.37 1449.6 840.023 1450.05 840.023C1450.5 840.023 1450.87 840.37 1450.87 840.797C1450.87 841.224 1450.5 841.57 1450.05 841.57Z" fill="black"/>
<path opacity="0.1" d="M1450.05 811.252C1449.6 811.252 1449.24 810.906 1449.24 810.479C1449.24 810.051 1449.6 809.705 1450.05 809.705C1450.5 809.705 1450.87 810.051 1450.87 810.479C1450.87 810.906 1450.5 811.252 1450.05 811.252Z" fill="black"/>
<path opacity="0.1" d="M1450.05 818.827C1449.6 818.827 1449.24 818.481 1449.24 818.054C1449.24 817.627 1449.6 817.28 1450.05 817.28C1450.5 817.28 1450.87 817.627 1450.87 818.054C1450.87 818.481 1450.5 818.827 1450.05 818.827Z" fill="black"/>
<path opacity="0.1" d="M1450.05 826.411C1449.6 826.411 1449.24 826.065 1449.24 825.638C1449.24 825.211 1449.6 824.864 1450.05 824.864C1450.5 824.864 1450.87 825.211 1450.87 825.638C1450.87 826.065 1450.5 826.411 1450.05 826.411Z" fill="black"/>
<path opacity="0.1" d="M1450.05 833.983C1449.6 833.983 1449.24 833.636 1449.24 833.209C1449.24 832.782 1449.6 832.436 1450.05 832.436C1450.5 832.436 1450.87 832.782 1450.87 833.209C1450.87 833.636 1450.5 833.983 1450.05 833.983Z" fill="black"/>
<path opacity="0.1" d="M1450.05 841.57C1449.6 841.57 1449.24 841.224 1449.24 840.797C1449.24 840.37 1449.6 840.023 1450.05 840.023C1450.5 840.023 1450.87 840.37 1450.87 840.797C1450.87 841.224 1450.5 841.57 1450.05 841.57Z" fill="black"/>
<path opacity="0.1" d="M1337.52 811.252C1337.07 811.252 1336.71 810.906 1336.71 810.479C1336.71 810.051 1337.07 809.705 1337.52 809.705C1337.97 809.705 1338.34 810.051 1338.34 810.479C1338.34 810.906 1337.97 811.252 1337.52 811.252Z" fill="black"/>
<path opacity="0.1" d="M1337.52 818.827C1337.07 818.827 1336.71 818.481 1336.71 818.054C1336.71 817.627 1337.07 817.28 1337.52 817.28C1337.97 817.28 1338.34 817.627 1338.34 818.054C1338.34 818.481 1337.97 818.827 1337.52 818.827Z" fill="black"/>
<path opacity="0.1" d="M1337.52 826.411C1337.07 826.411 1336.71 826.065 1336.71 825.638C1336.71 825.211 1337.07 824.864 1337.52 824.864C1337.97 824.864 1338.34 825.211 1338.34 825.638C1338.34 826.065 1337.97 826.411 1337.52 826.411Z" fill="black"/>
<path opacity="0.1" d="M1337.52 833.983C1337.07 833.983 1336.71 833.636 1336.71 833.209C1336.71 832.782 1337.07 832.436 1337.52 832.436C1337.97 832.436 1338.34 832.782 1338.34 833.209C1338.34 833.636 1337.97 833.983 1337.52 833.983Z" fill="black"/>
<path opacity="0.1" d="M1337.52 841.57C1337.07 841.57 1336.71 841.224 1336.71 840.797C1336.71 840.37 1337.07 840.023 1337.52 840.023C1337.97 840.023 1338.34 840.37 1338.34 840.797C1338.34 841.224 1337.97 841.57 1337.52 841.57Z" fill="black"/>
</g>
<path d="M1323.64 848.805H1464.69L1461.47 845.062H1326.77L1323.64 848.805Z" fill="#3F3D56"/>
<path d="M1318.69 854.642L1470 854.293L1464.87 849.152H1323.09L1318.69 854.642Z" fill="#3F3D56"/>
<path d="M1313.92 860.135H1475.42L1470.46 854.82L1318.32 854.995L1313.92 860.135Z" fill="#3F3D56"/>
<path d="M1450.87 865.1V876.066L1452.85 879.735L1453.51 866.659L1453.58 865.1H1450.87Z" fill="#3F3D56"/>
<path d="M1337.59 865.1L1337.67 866.659L1338.32 879.735L1340.31 876.066V865.1H1337.59Z" fill="#3F3D56"/>
<path d="M1452.85 864.225H1457.98V879.733H1452.85V864.225Z" fill="#3F3D56"/>
<path d="M1333.17 864.225H1338.31V879.733H1333.17V864.225Z" fill="#3F3D56"/>
<path opacity="0.1" d="M1452.85 865.098H1450.87V866.657H1457.98V864.225H1452.85V865.098Z" fill="black"/>
<path opacity="0.1" d="M1452.85 864.225H1457.98V879.733H1452.85V864.225Z" fill="black"/>
<path opacity="0.1" d="M1333.17 864.225H1338.31V879.733H1333.17V864.225Z" fill="black"/>
<path opacity="0.1" d="M1333.17 864.225V866.657H1340.31V865.098H1338.32V864.225H1333.17Z" fill="black"/>
<path d="M1326.77 862.478H1464.69V866.308H1326.77V862.478Z" fill="#3F3D56"/>
<path opacity="0.1" d="M1326.77 862.478H1464.69V866.308H1326.77V862.478Z" fill="black"/>
<path d="M1463.03 861.779H1468.9V895.491H1463.03V861.779Z" fill="#3F3D56"/>
<path d="M1328.59 895.492H1322.72V861.78H1328.59V895.492Z" fill="#3F3D56"/>
<path opacity="0.1" d="M1463.03 861.779H1468.9V895.491H1463.03V861.779Z" fill="black"/>
<path opacity="0.1" d="M1328.59 895.492H1322.72V861.78H1328.59V895.492Z" fill="black"/>
<path opacity="0.1" d="M1326.77 862.478H1464.69V862.826H1326.77V862.478Z" fill="black"/>
<path opacity="0.1" d="M1466.31 865.349C1465.86 865.349 1465.5 865.003 1465.5 864.575C1465.5 864.148 1465.86 863.802 1466.31 863.802C1466.76 863.802 1467.12 864.148 1467.12 864.575C1467.12 865.003 1466.76 865.349 1466.31 865.349Z" fill="black"/>
<path opacity="0.1" d="M1325.17 865.237C1324.72 865.237 1324.36 864.89 1324.36 864.463C1324.36 864.036 1324.72 863.689 1325.17 863.689C1325.62 863.689 1325.99 864.036 1325.99 864.463C1325.99 864.89 1325.62 865.237 1325.17 865.237Z" fill="black"/>
<path d="M1474.09 858.711L1475.42 860.133V861.306H1313.92V860.133L1315.13 858.711H1474.09Z" fill="#3F3D56"/>
<path d="M1313.93 860.135H1475.42V862.493H1313.93V860.135Z" fill="#3F3D56"/>
<path d="M1067.4 798.986C1068.14 799.959 1068.73 801.025 1069.16 802.155C1069.28 802.429 1069.38 802.741 1069.49 803.04C1069.69 802.955 1069.89 802.888 1070.1 802.841C1071.01 802.628 1071.94 802.553 1072.88 802.616C1072.88 802.279 1072.88 801.918 1072.88 801.531C1072.76 797.638 1073.24 792.223 1077.14 794.519C1081.04 796.815 1078.22 800.408 1075.83 802.791L1075.21 803.365C1077.42 804.874 1077.84 808.355 1078.21 811.961C1078.58 815.567 1081.81 819.547 1083.96 821.805L1084.56 822.429C1085.43 821.77 1086.44 821.294 1087.52 821.032C1088.6 820.77 1089.72 820.727 1090.82 820.907C1090.91 820.582 1091 820.258 1091.11 819.909C1092.85 813.932 1096.46 803.589 1101.07 801.331C1100.88 801.094 1100.67 800.857 1100.47 800.595C1098.5 798.1 1096.31 794.556 1099.56 793.621C1102.82 792.685 1103.11 796.765 1102.93 799.859C1102.93 800.246 1102.93 800.607 1102.83 800.944C1103.48 800.972 1104.12 801.127 1104.71 801.4C1105.29 801.673 1105.81 802.057 1106.24 802.529L1106.75 801.955C1109.37 798.998 1114.22 794.307 1115.69 797.85C1117.01 801.156 1112.79 805.461 1109.79 807.944L1109.61 808.093C1111.62 815.854 1102.83 822.179 1098.11 824.949L1097.49 825.311C1104.06 832.61 1108 846.309 1108 846.309L1089.71 849.416C1089.71 849.416 1077.6 839.434 1079.21 830.152H1079.07C1066.97 827.844 1064.21 815.579 1066.1 808.293L1065.89 808.218C1063.68 807.356 1061.75 805.968 1060.28 804.188C1056.81 799.647 1063.92 794.594 1067.4 798.986Z" fill="#3F3D56"/>
<path opacity="0.1" d="M1067.4 798.986C1068.14 799.959 1068.73 801.025 1069.16 802.155C1069.28 802.429 1069.38 802.741 1069.49 803.04C1069.69 802.955 1069.89 802.888 1070.1 802.841C1071.01 802.628 1071.94 802.553 1072.88 802.616C1072.88 802.279 1072.88 801.918 1072.88 801.531C1072.76 797.638 1073.24 792.223 1077.14 794.519C1081.04 796.815 1078.22 800.408 1075.83 802.791L1075.21 803.365C1077.42 804.874 1077.84 808.355 1078.21 811.961C1078.58 815.567 1081.81 819.547 1083.96 821.805L1084.56 822.429C1085.43 821.77 1086.44 821.294 1087.52 821.032C1088.6 820.77 1089.72 820.727 1090.82 820.907C1090.91 820.582 1091 820.258 1091.11 819.909C1092.85 813.932 1096.46 803.589 1101.07 801.331C1100.88 801.094 1100.67 800.857 1100.47 800.595C1098.5 798.1 1096.31 794.556 1099.56 793.621C1102.82 792.685 1103.11 796.765 1102.93 799.859C1102.93 800.246 1102.93 800.607 1102.83 800.944C1103.48 800.972 1104.12 801.127 1104.71 801.4C1105.29 801.673 1105.81 802.057 1106.24 802.529L1106.75 801.955C1109.37 798.998 1114.22 794.307 1115.69 797.85C1117.01 801.156 1112.79 805.461 1109.79 807.944L1109.61 808.093C1111.62 815.854 1102.83 822.179 1098.11 824.949L1097.49 825.311C1104.06 832.61 1108 846.309 1108 846.309L1089.71 849.416C1089.71 849.416 1077.6 839.434 1079.21 830.152H1079.07C1066.97 827.844 1064.21 815.579 1066.1 808.293L1065.89 808.218C1063.68 807.356 1061.75 805.968 1060.28 804.188C1056.81 799.647 1063.92 794.594 1067.4 798.986Z" fill="black"/>
<path d="M1103.78 803.988L1105.85 809.927C1105.85 809.927 1107.05 809.128 1108.48 807.881C1111.47 805.385 1115.74 801.094 1114.37 797.787C1112.9 794.244 1108.06 798.935 1105.42 801.892C1104.47 803.077 1103.78 803.988 1103.78 803.988Z" fill="#3F3D56"/>
<path d="M1099.29 800.594C1099.94 801.407 1100.63 802.186 1101.37 802.927C1101.37 802.927 1101.64 801.517 1101.75 799.795C1101.93 796.763 1101.6 792.721 1098.38 793.557C1095.16 794.393 1097.3 798.161 1099.29 800.594Z" fill="#3F3D56"/>
<path d="M1071.7 801.532C1071.77 803.491 1071.97 805.05 1071.97 805.05C1072.89 804.353 1073.77 803.599 1074.59 802.792C1077.01 800.409 1079.69 796.728 1075.91 794.52C1072.12 792.312 1071.59 797.639 1071.7 801.532Z" fill="#3F3D56"/>
<path d="M1059.08 804.099C1060.55 805.881 1062.49 807.27 1064.69 808.129C1065.3 808.378 1065.93 808.594 1066.57 808.778L1069.08 805.409C1068.81 804.302 1068.47 803.214 1068.04 802.152C1067.61 801.023 1067.02 799.956 1066.28 798.983C1062.8 794.592 1055.69 799.645 1059.08 804.099Z" fill="#3F3D56"/>
<path opacity="0.1" d="M1105.54 801.893C1104.47 803.14 1103.78 803.989 1103.78 803.989L1105.85 809.927C1105.85 809.927 1107.05 809.129 1108.48 807.881C1108.14 805.981 1107.32 804.19 1106.08 802.666C1105.98 802.379 1105.75 802.13 1105.54 801.893Z" fill="black"/>
<path opacity="0.1" d="M1099.28 800.594C1099.94 801.408 1100.63 802.187 1101.37 802.927C1101.37 802.927 1101.64 801.518 1101.75 799.796C1100.86 799.817 1100 800.095 1099.28 800.594Z" fill="black"/>
<path d="M1088.78 824.189L1094.03 826.41C1094.03 826.41 1095.2 825.873 1096.87 824.888C1102.45 821.631 1113.68 813.409 1106.16 803.678C1098.63 793.946 1092.34 811.363 1089.87 819.897C1089.16 822.442 1088.78 824.189 1088.78 824.189Z" fill="#3F3D56"/>
<path opacity="0.1" d="M1074.63 802.791C1073.86 802.037 1072.81 801.591 1071.7 801.543C1071.77 803.502 1071.97 805.061 1071.97 805.061C1072.91 804.361 1073.8 803.603 1074.63 802.791Z" fill="black"/>
<path opacity="0.1" d="M1064.69 808.133C1065.3 808.382 1065.93 808.598 1066.57 808.781L1069.08 805.413C1068.81 804.305 1068.47 803.217 1068.04 802.156C1066.45 803.055 1065.22 805.3 1064.69 808.133Z" fill="black"/>
<path d="M1077.88 830.065C1078.17 830.065 1078.47 830.177 1078.77 830.215C1096.59 832.785 1084.66 823.652 1084.66 823.652C1084.66 823.652 1083.84 822.953 1082.76 821.806C1080.61 819.547 1077.38 815.567 1077.01 811.962C1076.45 806.472 1075.8 801.332 1068.99 802.841C1062.17 804.351 1061.01 826.859 1077.88 830.065Z" fill="#3F3D56"/>
<path opacity="0.1" d="M1089.91 819.908C1089.16 822.404 1088.75 824.188 1088.75 824.188L1094.01 826.409C1094.01 826.409 1095.17 825.872 1096.84 824.886C1094.82 822.379 1092.47 820.482 1089.91 819.908Z" fill="black"/>
<path opacity="0.1" d="M1077.88 830.065C1078.17 830.065 1078.47 830.177 1078.77 830.215C1096.59 832.785 1084.66 823.652 1084.66 823.652C1084.66 823.652 1083.84 822.953 1082.76 821.806C1081.37 822.761 1080.2 823.995 1079.36 825.422C1078.52 826.849 1078.01 828.433 1077.88 830.065Z" fill="black"/>
<path d="M1106.85 846.248C1106.85 846.248 1096.87 812.324 1082.88 822.779C1068.89 833.235 1088.57 849.354 1088.57 849.354L1106.85 846.248Z" fill="#3F3D56"/>
<path opacity="0.1" d="M1101.81 810.104C1101.19 810.104 1100.69 809.63 1100.69 809.044C1100.69 808.458 1101.19 807.983 1101.81 807.983C1102.42 807.983 1102.92 808.458 1102.92 809.044C1102.92 809.63 1102.42 810.104 1101.81 810.104Z" fill="black"/>
<path opacity="0.1" d="M1101.9 815.07C1101.28 815.07 1100.78 814.595 1100.78 814.01C1100.78 813.424 1101.28 812.949 1101.9 812.949C1102.52 812.949 1103.02 813.424 1103.02 814.01C1103.02 814.595 1102.52 815.07 1101.9 815.07Z" fill="black"/>
<path opacity="0.1" d="M1069.45 811.088C1068.83 811.088 1068.33 810.613 1068.33 810.027C1068.33 809.442 1068.83 808.967 1069.45 808.967C1070.06 808.967 1070.56 809.442 1070.56 810.027C1070.56 810.613 1070.06 811.088 1069.45 811.088Z" fill="black"/>
<path opacity="0.1" d="M1095.55 836.502C1094.94 836.502 1094.44 836.027 1094.44 835.441C1094.44 834.856 1094.94 834.381 1095.55 834.381C1096.17 834.381 1096.67 834.856 1096.67 835.441C1096.67 836.027 1096.17 836.502 1095.55 836.502Z" fill="black"/>
<path opacity="0.1" d="M1071.78 819.324C1071.17 819.324 1070.67 818.849 1070.67 818.264C1070.67 817.678 1071.17 817.203 1071.78 817.203C1072.4 817.203 1072.9 817.678 1072.9 818.264C1072.9 818.849 1072.4 819.324 1071.78 819.324Z" fill="black"/>
<path opacity="0.1" d="M1083.34 830.303C1082.73 830.303 1082.23 829.828 1082.23 829.242C1082.23 828.657 1082.73 828.182 1083.34 828.182C1083.96 828.182 1084.46 828.657 1084.46 829.242C1084.46 829.828 1083.96 830.303 1083.34 830.303Z" fill="black"/>
<path opacity="0.1" d="M1097.98 812.236C1097.37 812.236 1096.87 811.761 1096.87 811.176C1096.87 810.59 1097.37 810.115 1097.98 810.115C1098.6 810.115 1099.1 810.59 1099.1 811.176C1099.1 811.761 1098.6 812.236 1097.98 812.236Z" fill="black"/>
<path opacity="0.1" d="M1072.53 814.272C1071.92 814.272 1071.42 813.797 1071.42 813.211C1071.42 812.625 1071.92 812.15 1072.53 812.15C1073.15 812.15 1073.65 812.625 1073.65 813.211C1073.65 813.797 1073.15 814.272 1072.53 814.272Z" fill="black"/>
<path opacity="0.1" d="M1076.35 822.516C1075.74 822.516 1075.24 822.041 1075.24 821.455C1075.24 820.869 1075.74 820.395 1076.35 820.395C1076.97 820.395 1077.47 820.869 1077.47 821.455C1077.47 822.041 1076.97 822.516 1076.35 822.516Z" fill="black"/>
<path opacity="0.1" d="M1088.09 835.703C1087.48 835.703 1086.98 835.228 1086.98 834.642C1086.98 834.057 1087.48 833.582 1088.09 833.582C1088.71 833.582 1089.21 834.057 1089.21 834.642C1089.21 835.228 1088.71 835.703 1088.09 835.703Z" fill="black"/>
<path opacity="0.1" d="M1090.52 830.488C1089.91 830.488 1089.41 830.013 1089.41 829.428C1089.41 828.842 1089.91 828.367 1090.52 828.367C1091.14 828.367 1091.64 828.842 1091.64 829.428C1091.64 830.013 1091.14 830.488 1090.52 830.488Z" fill="black"/>
<path opacity="0.1" d="M1096.31 818.698C1095.69 818.698 1095.19 818.223 1095.19 817.638C1095.19 817.052 1095.69 816.577 1096.31 816.577C1096.92 816.577 1097.42 817.052 1097.42 817.638C1097.42 818.223 1096.92 818.698 1096.31 818.698Z" fill="black"/>
<path opacity="0.1" d="M1086.61 840.496C1086 840.496 1085.5 840.021 1085.5 839.436C1085.5 838.85 1086 838.375 1086.61 838.375C1087.23 838.375 1087.73 838.85 1087.73 839.436C1087.73 840.021 1087.23 840.496 1086.61 840.496Z" fill="black"/>
<path opacity="0.1" d="M1093.32 841.816C1092.71 841.816 1092.21 841.342 1092.21 840.756C1092.21 840.17 1092.71 839.695 1093.32 839.695C1093.94 839.695 1094.44 840.17 1094.44 840.756C1094.44 841.342 1093.94 841.816 1093.32 841.816Z" fill="black"/>
<path d="M1261.04 868.607C1261.04 868.607 1240.29 829.019 1231.03 827.297L1261.04 868.607Z" fill="#3F3D56"/>
<path d="M1255.81 877.015C1255.81 877.015 1235.06 837.427 1225.8 835.705L1255.81 877.015Z" fill="#3F3D56"/>
<path d="M1251.28 885.746C1251.28 885.746 1230.54 846.146 1221.29 844.437L1251.28 885.746Z" fill="#3F3D56"/>
<path d="M1171.46 860.946C1171.46 860.946 1150.71 821.358 1141.46 819.636L1171.46 860.946Z" fill="#3F3D56"/>
<path d="M1166.27 869.292C1166.27 869.292 1145.52 829.704 1136.27 827.982L1166.27 869.292Z" fill="#3F3D56"/>
<path d="M1161.71 878.025C1161.71 878.025 1140.96 838.437 1131.7 836.715L1161.71 878.025Z" fill="#3F3D56"/>
<path d="M901.49 821.119C901.49 821.119 880.752 781.532 871.492 779.822L901.49 821.119Z" fill="#3F3D56"/>
<path d="M896.264 829.54C896.264 829.54 875.525 789.94 866.266 788.23L896.264 829.54Z" fill="#3F3D56"/>
<path d="M891.773 838.263C891.773 838.263 871.035 798.675 861.776 796.966L891.773 838.263Z" fill="#3F3D56"/>
<path d="M1235.72 876.314C1235.72 876.314 1250.05 834.244 1244.7 826.857L1235.72 876.314Z" fill="#3F3D56"/>
<path d="M1154.28 871.652C1154.28 871.652 1168.61 829.581 1163.26 822.207L1154.28 871.652Z" fill="#3F3D56"/>
<path d="M891.771 844.299C891.771 844.299 906.087 802.228 900.728 794.817L891.771 844.299Z" fill="#3F3D56"/>
<path d="M544.105 904.274C544.105 904.274 562.282 873.694 589.693 864.873C601.187 861.246 611.132 854.176 618.036 844.723C621.281 840.211 624.082 835.425 626.402 830.425" stroke="#3F3D56" stroke-width="2" stroke-miterlimit="10"/>
<path d="M642.597 825.723C639.484 828.606 624.958 831.575 624.958 831.575C624.958 831.575 628.517 817.851 631.643 814.994C632.369 814.242 633.249 813.64 634.229 813.224C635.208 812.807 636.267 812.585 637.341 812.571C638.414 812.557 639.479 812.752 640.47 813.143C641.461 813.534 642.358 814.113 643.105 814.845C643.853 815.577 644.435 816.446 644.816 817.399C645.196 818.353 645.368 819.37 645.321 820.388C645.273 821.407 645.007 822.406 644.539 823.323C644.07 824.24 643.41 825.057 642.597 825.723Z" fill="#3F3D56"/>
<path d="M635.4 849.555C631.131 850.366 617.235 845.35 617.235 845.35C617.235 845.35 628.071 835.693 632.339 834.895C634.33 834.635 636.349 835.108 637.985 836.216C639.621 837.324 640.749 838.983 641.14 840.855C641.531 842.727 641.154 844.67 640.087 846.287C639.02 847.904 637.343 849.073 635.4 849.555Z" fill="#3F3D56"/>
<path d="M605.45 876.393C601.339 875.045 592.001 864.053 592.001 864.053C592.001 864.053 606.448 860.909 610.598 862.257C612.488 862.965 614.016 864.34 614.865 866.093C615.713 867.847 615.816 869.844 615.152 871.667C614.488 873.491 613.108 875.001 611.3 875.881C609.492 876.762 607.396 876.945 605.45 876.393Z" fill="#3F3D56"/>
<path d="M578.028 891.847C573.734 891.174 562.583 881.866 562.583 881.866C562.583 881.866 576.295 876.439 580.589 877.113C581.646 877.237 582.665 877.563 583.585 878.071C584.505 878.579 585.307 879.26 585.943 880.071C586.579 880.882 587.035 881.807 587.285 882.79C587.534 883.773 587.571 884.794 587.393 885.791C587.215 886.788 586.827 887.74 586.251 888.591C585.675 889.442 584.924 890.172 584.043 890.74C583.162 891.307 582.169 891.698 581.124 891.891C580.079 892.083 579.003 892.073 577.963 891.86L578.028 891.847Z" fill="#3F3D56"/>
<path d="M605.123 834.641C605.123 838.771 613.004 850.749 613.004 850.749C613.004 850.749 620.884 838.784 620.884 834.654C620.884 832.669 620.054 830.764 618.576 829.361C617.098 827.957 615.094 827.168 613.004 827.168C610.914 827.168 608.909 827.957 607.431 829.361C605.954 830.764 605.123 832.669 605.123 834.654V834.641Z" fill="#3F3D56"/>
<path d="M573.259 853.108C574.573 857.051 585.842 866.246 585.842 866.246C585.842 866.246 589.585 852.522 588.285 848.642C587.59 846.833 586.189 845.348 584.372 844.495C582.555 843.642 580.462 843.487 578.528 844.062C576.594 844.637 574.967 845.898 573.986 847.583C573.005 849.267 572.745 851.246 573.259 853.108Z" fill="#3F3D56"/>
<path d="M544.878 875.106C545.469 879.199 554.938 890.078 554.938 890.078C554.938 890.078 561.058 877.215 560.481 873.123C560.118 871.228 559 869.539 557.36 868.407C555.721 867.275 553.685 866.787 551.676 867.044C549.667 867.301 547.839 868.283 546.573 869.787C545.307 871.291 544.7 873.201 544.878 875.119V875.106Z" fill="#3F3D56"/>
<path d="M545.156 903.677C545.156 903.677 548.715 868.742 569.992 850.115C578.959 842.367 585.042 832.066 587.329 820.757C588.369 815.382 588.887 809.928 588.878 804.463" stroke="#3F3D56" stroke-width="2" stroke-miterlimit="10"/>
<path d="M602.208 794.596C600.579 798.427 588.561 806.748 588.561 806.748C588.561 806.748 585.934 792.837 587.602 789.007C588.443 787.251 589.964 785.871 591.849 785.155C593.734 784.438 595.838 784.441 597.721 785.162C599.604 785.882 601.122 787.266 601.958 789.023C602.794 790.781 602.883 792.777 602.208 794.596Z" fill="#3F3D56"/>
<path d="M605.267 818.524C601.708 820.894 586.88 821.668 586.88 821.668C586.88 821.668 592.658 808.667 596.205 806.297C597.914 805.269 599.974 804.906 601.957 805.281C603.941 805.656 605.697 806.742 606.861 808.313C608.026 809.884 608.51 811.82 608.213 813.721C607.916 815.622 606.861 817.341 605.267 818.524Z" fill="#3F3D56"/>
<path d="M589.363 854.543C585.028 854.892 571.803 848.442 571.803 848.442C571.803 848.442 583.715 839.995 588.036 839.646C589.097 839.505 590.177 839.572 591.211 839.841C592.244 840.11 593.208 840.577 594.045 841.213C594.882 841.848 595.574 842.639 596.078 843.537C596.582 844.435 596.888 845.421 596.978 846.435C597.067 847.45 596.938 848.47 596.598 849.436C596.258 850.401 595.714 851.29 595.001 852.049C594.287 852.808 593.417 853.42 592.446 853.849C591.474 854.278 590.42 854.514 589.349 854.543H589.363Z" fill="#3F3D56"/>
<path d="M570.857 879.247C566.654 880.282 552.47 876.053 552.47 876.053C552.47 876.053 562.701 865.809 566.917 864.824C567.938 864.515 569.014 864.407 570.081 864.507C571.147 864.606 572.181 864.912 573.119 865.404C574.057 865.896 574.879 866.565 575.536 867.369C576.193 868.174 576.67 869.097 576.938 870.082C577.206 871.068 577.26 872.095 577.096 873.101C576.933 874.107 576.555 875.071 575.985 875.933C575.416 876.795 574.668 877.539 573.786 878.117C572.904 878.695 571.908 879.097 570.857 879.297V879.247Z" fill="#3F3D56"/>
<path d="M571.239 816.527C572.999 820.27 585.292 828.218 585.292 828.218C585.292 828.218 587.38 814.244 585.62 810.464C585.242 809.51 584.663 808.639 583.918 807.905C583.173 807.171 582.278 806.59 581.288 806.196C580.299 805.802 579.235 805.605 578.162 805.616C577.089 805.626 576.029 805.845 575.048 806.259C574.068 806.672 573.186 807.272 572.458 808.021C571.729 808.769 571.17 809.651 570.813 810.613C570.456 811.574 570.31 812.595 570.383 813.612C570.457 814.629 570.748 815.621 571.239 816.527Z" fill="#3F3D56"/>
<path d="M549.973 845.673C552.849 848.78 567.047 852.835 567.047 852.835C567.047 852.835 564.643 838.911 561.793 835.804C560.382 834.437 558.473 833.636 556.459 833.566C554.445 833.495 552.479 834.16 550.966 835.424C549.452 836.687 548.505 838.454 548.321 840.361C548.136 842.267 548.727 844.168 549.973 845.673Z" fill="#3F3D56"/>
<path d="M533.415 876.704C535.687 880.222 548.992 886.51 548.992 886.51C548.992 886.51 549.11 872.387 546.825 868.869C546.309 867.982 545.61 867.204 544.769 866.582C543.928 865.959 542.963 865.505 541.932 865.248C540.901 864.99 539.826 864.933 538.772 865.082C537.717 865.23 536.705 865.58 535.797 866.111C534.889 866.641 534.104 867.341 533.489 868.168C532.874 868.995 532.442 869.933 532.219 870.923C531.997 871.913 531.988 872.936 532.193 873.93C532.399 874.923 532.814 875.867 533.415 876.704Z" fill="#3F3D56"/>
<path d="M1351.05 617.403C1351.05 617.403 1326.46 616.005 1329.36 632.375C1329.21 633.206 1329.34 634.061 1329.73 634.819C1330.13 635.576 1330.76 636.196 1331.54 636.592C1331.54 636.592 1331.54 635.344 1334.07 635.781C1334.93 635.921 1335.81 635.963 1336.69 635.905C1337.9 635.84 1339.05 635.402 1339.96 634.658C1339.96 634.658 1346.87 631.95 1349.56 621.221C1349.56 621.221 1351.55 618.875 1351.47 618.276L1347.32 619.96C1348.11 621.594 1348.23 623.454 1347.63 625.163C1347.63 625.163 1347.49 620.06 1346.7 620.173C1346.53 620.173 1344.53 621.158 1344.53 621.158C1344.53 621.158 1346.98 626.149 1345.14 629.705C1345.14 629.705 1345.83 623.604 1343.82 621.52L1340.91 623.13C1340.91 623.13 1343.76 628.257 1341.83 632.424C1341.83 632.424 1342.33 626.024 1340.29 623.529L1337.66 625.488C1337.66 625.488 1340.29 630.478 1338.7 633.997C1338.7 633.997 1338.49 626.511 1337.09 625.974C1336.1 626.786 1335.22 627.707 1334.46 628.719C1334.46 628.719 1336.3 632.375 1335.16 634.308C1335.16 634.308 1334.46 629.318 1333.84 629.318C1332.64 631.006 1331.78 632.887 1331.29 634.87C1331.41 632.783 1332.1 630.762 1333.29 629.006C1331.96 629.244 1330.73 629.847 1329.76 630.74C1329.76 630.74 1330.11 628.42 1333.86 628.245C1334.55 627.277 1335.36 626.389 1336.27 625.6C1334.25 625.434 1332.22 625.659 1330.3 626.261C1330.3 626.261 1332.28 624.065 1336.95 625.013L1339.58 622.98C1339.58 622.98 1334.68 622.343 1332.59 623.055C1332.59 623.055 1335 621.108 1340.28 622.518L1343.13 620.909C1340.94 620.449 1338.7 620.264 1336.46 620.36C1336.46 620.36 1339.08 619.012 1343.97 620.472L1346 619.599C1346 619.599 1342.93 619.037 1342.06 618.937C1341.2 618.838 1341.12 618.613 1341.12 618.613C1343.06 618.31 1345.05 618.522 1346.87 619.224C1346.87 619.224 1351.13 617.652 1351.05 617.403Z" fill="#3F3D56"/>
<path d="M1232.02 568.509C1232.02 568.509 1207.43 567.099 1210.33 583.481C1210.18 584.31 1210.31 585.164 1210.7 585.919C1211.1 586.674 1211.73 587.292 1212.51 587.685C1212.51 587.685 1212.51 586.438 1215.03 586.887C1215.9 587.016 1216.78 587.054 1217.66 586.999C1218.86 586.93 1220 586.492 1220.92 585.751C1220.92 585.751 1227.84 583.032 1230.52 572.302C1230.52 572.302 1232.52 569.956 1232.44 569.357L1228.29 571.042C1229.08 572.676 1229.19 574.537 1228.59 576.244C1228.59 576.244 1228.46 571.141 1227.66 571.254C1227.5 571.254 1225.5 572.239 1225.5 572.239C1225.5 572.239 1227.93 577.23 1226.09 580.798C1226.09 580.798 1226.79 574.697 1224.78 572.601L1221.85 574.223C1221.85 574.223 1224.7 579.339 1222.77 583.506C1222.77 583.506 1223.27 577.105 1221.25 574.61L1218.62 576.569C1218.62 576.569 1221.25 581.622 1219.67 585.078C1219.67 585.078 1219.45 577.592 1218.04 577.055C1217.05 577.867 1216.17 578.788 1215.42 579.8C1215.42 579.8 1217.25 583.456 1216.11 585.39C1216.11 585.39 1215.42 580.399 1214.8 580.399C1213.6 582.087 1212.74 583.968 1212.25 585.951C1212.37 583.865 1213.05 581.843 1214.25 580.087C1212.92 580.325 1211.69 580.928 1210.71 581.821C1210.71 581.821 1211.07 579.501 1214.81 579.326C1215.51 578.358 1216.32 577.471 1217.23 576.681C1215.21 576.523 1213.18 576.747 1211.25 577.342C1211.25 577.342 1213.23 575.146 1217.91 576.095L1220.54 574.061C1220.54 574.061 1215.64 573.425 1213.56 574.136C1213.56 574.136 1215.95 572.19 1221.25 573.612L1224.08 571.99C1221.9 571.53 1219.66 571.346 1217.42 571.441C1217.42 571.441 1220.05 570.093 1224.92 571.553L1226.96 570.692C1226.96 570.692 1223.9 570.118 1223.02 570.031C1222.14 569.944 1222.07 569.707 1222.07 569.707C1224.01 569.396 1226 569.604 1227.83 570.306C1229.28 569.823 1230.68 569.222 1232.02 568.509Z" fill="#3F3D56"/>
<path d="M1152.19 388.182C1152.19 388.182 1127.59 386.772 1130.49 403.154C1130.34 403.983 1130.47 404.837 1130.86 405.592C1131.26 406.347 1131.89 406.965 1132.67 407.358C1132.67 407.358 1132.67 406.111 1135.19 406.56C1136.06 406.689 1136.94 406.727 1137.82 406.672C1139.02 406.603 1140.17 406.165 1141.09 405.424C1141.09 405.424 1148 402.704 1150.68 391.975C1150.68 391.975 1152.68 389.642 1152.6 389.03L1148.45 390.715C1149.24 392.353 1149.35 394.218 1148.75 395.93C1148.75 395.93 1148.62 390.827 1147.82 390.939C1147.66 390.939 1145.66 391.925 1145.66 391.925C1145.66 391.925 1148.1 396.915 1146.25 400.484C1146.25 400.484 1146.96 394.383 1144.94 392.287L1142.01 393.909C1142.01 393.909 1144.86 399.024 1142.93 403.191C1142.93 403.191 1143.43 396.791 1141.41 394.295L1138.78 396.267C1138.78 396.267 1141.41 401.257 1139.83 404.763C1139.83 404.763 1139.61 397.277 1138.2 396.753C1137.21 397.56 1136.33 398.477 1135.57 399.486C1135.57 399.486 1137.41 403.141 1136.27 405.075C1136.27 405.075 1135.57 400.084 1134.96 400.084C1133.75 401.769 1132.89 403.652 1132.41 405.637C1132.52 403.551 1133.2 401.528 1134.39 399.773C1133.06 400.011 1131.83 400.613 1130.86 401.507C1130.86 401.507 1131.21 399.186 1134.96 399.011C1135.66 398.045 1136.47 397.154 1137.37 396.354C1135.36 396.196 1133.32 396.42 1131.4 397.015C1131.4 397.015 1133.38 394.819 1138.06 395.768L1140.68 393.746C1140.68 393.746 1135.78 393.098 1133.71 393.809C1133.71 393.809 1136.1 391.862 1141.39 393.285L1144.24 391.663C1142.05 391.21 1139.81 391.026 1137.57 391.114C1137.57 391.114 1140.2 389.766 1145.07 391.226L1147.11 390.365C1147.11 390.365 1144.05 389.791 1143.17 389.704C1142.29 389.617 1142.22 389.38 1142.22 389.38C1144.16 389.069 1146.15 389.276 1147.97 389.978C1149.43 389.495 1150.84 388.894 1152.19 388.182Z" fill="#3F3D56"/>
<path d="M1080.6 335.171C1080.6 335.171 1056.01 333.761 1058.9 350.143C1058.75 350.974 1058.89 351.827 1059.28 352.582C1059.67 353.337 1060.31 353.955 1061.09 354.348C1061.09 354.348 1061.09 353.1 1063.61 353.549C1064.48 353.689 1065.36 353.731 1066.24 353.674C1067.44 353.603 1068.59 353.166 1069.51 352.426C1069.51 352.426 1076.42 349.719 1079.11 338.989C1079.11 338.989 1081.1 336.643 1081.02 336.044L1076.96 337.679C1077.75 339.313 1077.86 341.174 1077.26 342.882C1077.26 342.882 1077.13 337.779 1076.33 337.891C1076.17 337.891 1074.17 338.877 1074.17 338.877C1074.17 338.877 1076.62 343.867 1074.78 347.423C1074.78 347.423 1075.47 341.322 1073.46 339.226L1070.55 340.848C1070.55 340.848 1073.4 345.963 1071.47 350.143C1071.47 350.143 1071.95 343.742 1069.93 341.247L1067.31 343.206C1067.31 343.206 1069.93 348.197 1068.36 351.715C1068.36 351.715 1068.15 344.229 1066.74 343.693C1065.75 344.496 1064.87 345.414 1064.11 346.425C1064.11 346.425 1065.94 350.093 1064.81 352.027C1064.81 352.027 1064.1 347.036 1063.5 347.036C1062.29 348.716 1061.43 350.595 1060.95 352.576C1061.06 350.49 1061.74 348.468 1062.93 346.712C1061.6 346.951 1060.37 347.559 1059.4 348.459C1059.4 348.459 1059.77 346.125 1063.51 345.963C1064.2 344.995 1065.02 344.108 1065.93 343.318C1063.9 343.153 1061.87 343.373 1059.94 343.967C1059.94 343.967 1061.93 341.771 1066.61 342.719L1069.08 340.673C1069.08 340.673 1064.17 340.037 1062.09 340.673C1062.09 340.673 1064.48 338.739 1069.77 340.149L1072.62 338.527C1070.43 338.074 1068.19 337.894 1065.95 337.991C1065.95 337.991 1068.58 336.643 1073.45 338.103L1075.49 337.23C1075.49 337.23 1072.43 336.656 1071.55 336.568C1070.67 336.481 1070.6 336.244 1070.6 336.244C1072.54 335.932 1074.53 336.144 1076.35 336.855C1076.35 336.855 1080.66 335.433 1080.6 335.171Z" fill="#3F3D56"/>
<path d="M926.338 244.38C926.338 244.38 917.604 266.264 934.928 268.509C935.719 268.888 936.615 269.021 937.489 268.889C938.364 268.757 939.173 268.367 939.801 267.773C939.801 267.773 938.592 267.374 939.801 265.278C940.205 264.518 940.51 263.713 940.707 262.883C940.974 261.774 940.855 260.614 940.365 259.576C940.365 259.576 939.695 252.502 929.714 246.875C929.714 246.875 927.954 244.38 927.323 244.268L927.783 248.535C929.658 248.294 931.56 248.74 933.102 249.782C933.102 249.782 927.927 248.385 927.849 249.146C927.849 249.296 928.19 251.392 928.19 251.392C928.19 251.392 933.89 250.656 936.964 253.388C936.964 253.388 931.04 250.893 928.322 252.14L929.083 255.272C929.083 255.272 935.072 254.211 938.697 257.206C938.697 257.206 932.406 254.848 929.307 255.958L930.489 258.94C930.489 258.94 936.346 258.017 939.341 260.524C939.341 260.524 931.789 258.503 930.804 259.614C931.316 260.762 931.973 261.847 932.761 262.845C932.761 262.845 936.99 262.271 938.592 263.868C938.592 263.868 933.339 263.032 933.194 263.544C934.531 265.133 936.165 266.473 938.014 267.499C935.969 266.771 934.159 265.55 932.761 263.955C932.606 265.242 932.853 266.544 933.47 267.698C933.47 267.698 931.237 266.688 932.157 263.232C931.389 262.313 930.737 261.312 930.213 260.25C929.449 262.032 929.069 263.941 929.096 265.864C929.096 265.864 927.481 263.369 929.871 259.464L928.558 256.495C928.558 256.495 926.456 260.749 926.548 262.845C926.548 262.845 925.314 260.1 928.308 255.721L927.52 252.664C926.412 254.509 925.564 256.485 924.999 258.541C924.999 258.541 924.421 255.758 927.336 251.778L927.074 249.67C927.074 249.67 925.59 252.277 925.222 253.064C924.854 253.85 924.618 253.825 924.618 253.825C924.894 251.989 925.698 250.262 926.942 248.834C926.882 247.335 926.679 245.844 926.338 244.38Z" fill="#3F3D56"/>
<path d="M479.037 629.244C479.037 629.244 454.451 627.834 457.353 644.216C457.204 645.046 457.334 645.899 457.726 646.654C458.117 647.409 458.75 648.028 459.534 648.421C459.534 648.421 459.533 647.173 462.055 647.622C462.922 647.762 463.804 647.804 464.682 647.747C465.885 647.677 467.032 647.239 467.952 646.499C467.952 646.499 474.86 643.792 477.553 633.062C477.553 633.062 479.536 630.716 479.457 630.118L475.307 631.802C476.102 633.436 476.21 635.297 475.609 637.005C475.609 637.005 475.478 631.902 474.677 632.014C474.519 632.014 472.523 633 472.523 633C472.523 633 474.965 637.99 473.127 641.546C473.127 641.546 473.823 635.445 471.813 633.349L468.898 634.971C468.898 634.971 471.748 640.086 469.817 644.266C469.817 644.266 470.316 637.866 468.28 635.37L465.654 637.329C465.654 637.329 468.28 642.32 466.691 645.838C466.691 645.838 466.481 638.352 465.076 637.816C464.087 638.622 463.205 639.539 462.449 640.548C462.449 640.548 464.275 644.216 463.145 646.15C463.145 646.15 462.449 641.159 461.832 641.159C460.627 642.839 459.763 644.718 459.284 646.699C459.4 644.614 460.083 642.594 461.267 640.835C459.937 641.083 458.711 641.689 457.734 642.582C457.734 642.582 458.102 640.249 461.845 640.086C462.54 639.119 463.351 638.231 464.262 637.441C462.24 637.276 460.203 637.496 458.273 638.09C458.273 638.09 460.269 635.894 464.945 636.842L467.571 634.821C467.571 634.821 462.672 634.185 460.584 634.884C460.584 634.884 462.974 632.95 468.267 634.36L471.117 632.738C468.927 632.284 466.685 632.104 464.445 632.201C464.445 632.201 467.072 630.854 471.945 632.313L473.98 631.44C473.98 631.44 470.92 630.866 470.04 630.779C469.16 630.692 469.095 630.454 469.095 630.454C471.035 630.143 473.028 630.354 474.847 631.066C474.847 631.066 479.116 629.506 479.037 629.244Z" fill="#3F3D56"/>
<path d="M1244.95 685.023C1244.95 685.023 1229.74 703.439 1245.57 710.476C1246.2 711.065 1247.02 711.449 1247.9 711.572C1248.77 711.696 1249.67 711.552 1250.46 711.162C1250.46 711.162 1249.43 710.438 1251.19 708.741C1251.81 708.129 1252.36 707.45 1252.82 706.72C1253.44 705.733 1253.7 704.581 1253.57 703.439C1253.57 703.439 1255.14 696.502 1247.38 688.292C1247.38 688.292 1246.49 685.41 1245.92 685.123L1245.02 689.328C1246.89 689.637 1248.56 690.609 1249.71 692.048C1249.71 692.048 1245.2 689.253 1244.86 689.952C1244.78 690.089 1244.48 692.197 1244.48 692.197C1244.48 692.197 1250.17 693.108 1252.23 696.589C1252.23 696.589 1247.34 692.572 1244.35 692.996L1244.09 696.19C1244.09 696.19 1250.14 696.876 1252.66 700.756C1252.66 700.756 1247.41 696.727 1244.09 696.901L1244.27 700.083C1244.27 700.083 1250.17 700.856 1252.23 704.1C1252.23 704.1 1245.66 700.033 1244.35 700.806C1244.47 702.05 1244.76 703.274 1245.2 704.45C1245.2 704.45 1249.4 705.098 1250.46 707.082C1250.46 707.082 1245.77 704.811 1245.43 705.248C1246.2 707.142 1247.34 708.885 1248.77 710.388C1247.04 709.112 1245.68 707.426 1244.83 705.498C1244.29 706.673 1244.12 707.973 1244.34 709.24C1244.34 709.24 1242.52 707.631 1244.48 704.587C1244.04 703.493 1243.73 702.354 1243.56 701.193C1242.28 702.662 1241.31 704.358 1240.72 706.184C1240.72 706.184 1239.96 703.377 1243.48 700.295L1243.21 697.101C1243.21 697.101 1239.87 700.569 1239.27 702.591C1239.27 702.591 1238.94 699.621 1243.21 696.352L1243.43 693.208C1241.79 694.661 1240.36 696.309 1239.16 698.111C1239.16 698.111 1239.49 695.292 1243.53 692.31L1243.93 690.226C1243.93 690.226 1241.7 692.297 1241.12 692.946C1240.54 693.595 1240.29 693.495 1240.29 693.495C1241.13 691.807 1242.44 690.373 1244.09 689.353C1244.09 689.353 1245.22 685.098 1244.95 685.023Z" fill="#3F3D56"/>
<path d="M459.561 548.832C459.561 548.832 444.352 567.247 460.178 574.297C460.812 574.886 461.626 575.27 462.504 575.393C463.381 575.517 464.278 575.373 465.064 574.983C465.064 574.983 464.039 574.259 465.799 572.55C466.421 571.937 466.968 571.259 467.428 570.529C468.046 569.546 468.309 568.398 468.177 567.26C468.177 567.26 469.753 560.31 461.991 552.101C461.991 552.101 461.097 549.219 460.533 548.944L459.627 553.136C461.499 553.447 463.176 554.424 464.315 555.869C464.315 555.869 459.81 553.074 459.469 553.76C459.39 553.898 459.088 556.006 459.088 556.006C459.088 556.006 464.762 556.917 466.837 560.398C466.837 560.398 461.951 556.38 458.957 556.805L458.694 560.011C458.694 560.011 464.749 560.685 467.27 564.577C467.27 564.577 462.017 560.547 458.694 560.71L458.878 563.891C458.878 563.891 464.775 564.665 466.837 567.921C466.837 567.921 460.27 563.841 458.957 564.627C459.079 565.867 459.366 567.087 459.81 568.258C459.81 568.258 464.013 568.907 465.064 570.903C465.064 570.903 460.375 568.62 460.021 569.057C460.802 570.95 461.942 572.693 463.383 574.197C461.644 572.92 460.285 571.234 459.443 569.306C458.901 570.482 458.728 571.782 458.944 573.049C458.944 573.049 457.131 571.44 459.088 568.408C458.646 567.314 458.337 566.175 458.169 565.014C456.882 566.481 455.917 568.178 455.332 570.005C455.332 570.005 454.57 567.21 458.09 564.116L457.814 560.922C457.814 560.922 454.478 564.39 453.874 566.411C453.874 566.411 453.546 563.442 457.814 560.111L458.037 556.967C456.399 558.42 454.964 560.068 453.769 561.87C453.769 561.87 454.097 559.05 458.142 556.068L458.536 553.985C458.536 553.985 456.304 556.056 455.713 556.705C455.122 557.354 454.898 557.254 454.898 557.254C455.739 555.568 457.052 554.135 458.694 553.111C458.694 553.111 459.824 548.932 459.561 548.832Z" fill="#3F3D56"/>
<path d="M395.31 676.802C395.31 676.802 392.421 700.047 409.757 698.225C410.622 698.414 411.527 698.338 412.343 698.009C413.159 697.679 413.845 697.113 414.302 696.391C414.302 696.391 412.988 696.291 413.592 693.895C413.787 693.077 413.884 692.24 413.881 691.4C413.87 690.249 413.464 689.132 412.726 688.219C412.726 688.219 410.27 681.519 399.145 678.35C399.145 678.35 396.794 676.328 396.151 676.366L397.687 680.408C399.451 679.745 401.414 679.745 403.177 680.408C403.177 680.408 397.806 680.246 397.924 681.007C397.924 681.169 398.843 683.116 398.843 683.116C398.843 683.116 404.189 681.082 407.866 683.028C407.866 683.028 401.483 682.018 399.171 683.852L400.708 686.721C400.708 686.721 406.251 684.313 410.519 686.385C410.519 686.385 403.821 685.549 401.089 687.32L402.993 689.94C402.993 689.94 408.444 687.695 411.99 689.441C411.99 689.441 404.11 689.217 403.479 690.514C404.269 691.513 405.182 692.418 406.198 693.209C406.198 693.209 410.138 691.675 412.121 692.86C412.121 692.86 406.868 693.247 406.802 693.783C408.502 695.023 410.431 695.95 412.489 696.516C410.302 696.288 408.215 695.523 406.434 694.295C406.616 695.572 407.182 696.772 408.063 697.751C408.063 697.751 405.633 697.277 405.633 693.708C405.633 693.708 403.125 691.762 403.007 691.213C402.718 693.12 402.835 695.063 403.348 696.927C403.348 696.927 401.155 694.919 402.481 690.539L400.498 687.944C400.498 687.944 399.552 692.561 400.17 694.569C400.17 694.569 398.265 692.186 400.051 687.245L398.515 684.463C397.919 686.496 397.597 688.592 397.556 690.701C397.556 690.701 396.243 688.131 398.108 683.59L397.306 681.618C397.306 681.618 396.531 684.488 396.387 685.361C396.243 686.235 395.993 686.235 395.993 686.235C395.778 684.379 396.114 682.503 396.965 680.82C396.965 680.82 395.638 676.74 395.31 676.802Z" fill="#3F3D56"/>
<path d="M339.374 846.16C337.116 844.4 335.469 842.035 334.646 839.373C334.028 836.678 335.236 833.447 337.955 832.461C340.989 831.351 344.233 833.359 346.702 835.381C349.171 837.402 351.956 839.698 355.2 839.273C353.555 837.842 352.327 836.03 351.637 834.014C350.946 831.998 350.816 829.847 351.26 827.77C351.41 826.909 351.795 826.1 352.376 825.424C354.07 823.715 357.117 824.451 359.14 825.799C365.562 830.091 367.349 838.375 367.388 845.836C368.032 843.141 367.493 840.346 367.506 837.577C367.519 834.807 368.321 831.762 370.777 830.278C372.3 829.501 374.012 829.118 375.741 829.167C378.631 829.068 381.848 829.342 383.819 831.351C386.275 833.846 385.631 838.026 383.503 840.771C381.376 843.515 378.132 845.225 375.15 847.121C372.757 848.479 370.715 850.329 369.174 852.536C368.997 852.844 368.848 853.165 368.728 853.497H350.642C346.555 851.546 342.764 849.078 339.374 846.16Z" fill="#3F3D56"/>
<path d="M693.081 860.069C690.816 858.318 689.163 855.956 688.34 853.294C687.736 850.587 688.944 847.355 691.649 846.382C694.696 845.272 697.941 847.268 700.397 849.289C702.853 851.31 705.65 853.618 708.907 853.194C707.26 851.761 706.031 849.947 705.341 847.929C704.65 845.911 704.521 843.758 704.967 841.678C705.105 840.818 705.491 840.01 706.084 839.345C707.765 837.636 710.825 838.372 712.834 839.72C719.257 844.011 721.056 852.296 721.082 859.757C721.739 857.062 721.188 854.255 721.201 851.497C721.214 848.74 722.015 845.683 724.471 844.199C725.997 843.415 727.715 843.032 729.449 843.088C732.338 842.988 735.543 843.263 737.513 845.272C739.969 847.767 739.339 851.934 737.198 854.679C735.057 857.424 731.826 859.146 728.845 861.042C726.455 862.399 724.414 864.244 722.869 866.444C722.693 866.755 722.548 867.081 722.435 867.417H704.337C700.25 865.467 696.463 862.994 693.081 860.069Z" fill="#3F3D56"/>
<path d="M1468.9 774.855C1468.9 774.855 1463.3 774.394 1461.45 775.878C1461.45 775.878 1467.78 777.438 1468.44 778.686C1468.44 778.686 1468.31 778.81 1467.78 778.686C1467.26 778.561 1463.92 777.887 1463.21 778.686L1462.97 779.072L1462.72 779.222L1462.36 779.459C1462.13 779.601 1461.96 779.806 1461.86 780.046C1461.74 780.395 1461.45 780.046 1461.45 780.046C1461.45 780.046 1461.03 780.869 1461.16 781.094C1461.29 781.318 1460.75 781.88 1460.75 781.88V784.375L1460.54 784.188C1460.49 785.761 1460.08 787.304 1459.35 788.717C1459.35 788.717 1456.84 794.768 1455.97 795.23H1455.45C1455.45 795.23 1451.67 799.996 1448.04 801.006C1444.42 802.017 1444.22 803.077 1444.22 803.077L1448.75 807.843C1449.61 807.907 1450.46 808.037 1451.3 808.23C1449.73 808.39 1448.15 808.445 1446.57 808.392L1443.08 804.013C1442.63 804.11 1442.22 804.312 1441.88 804.599C1441.66 804.662 1441.45 804.755 1441.26 804.874C1440.97 805.074 1440.76 804.874 1440.53 804.961C1440.29 805.049 1442.38 808.392 1442.38 808.392H1444.7L1442.77 809.054C1442.12 809.291 1440.76 808.505 1440.76 808.505L1438.91 805.311L1438.16 805.934V805.498C1438.16 805.498 1437.39 805.934 1437.06 805.86C1436.73 805.785 1437.47 805.348 1437.47 805.348C1437.1 805.408 1436.73 805.408 1436.36 805.348C1436.15 805.236 1436.56 804.599 1436.56 804.599V804.138C1436.56 804.138 1437.78 804.138 1437.63 803.901C1437.47 803.664 1437.02 803.551 1436.25 803.901C1435.47 804.25 1430.72 806.209 1428.9 805.498C1427.73 806.364 1426.46 807.112 1425.12 807.731C1424.23 807.931 1423.19 809.403 1423.19 809.403C1423.19 809.403 1419.37 813.146 1417.11 812.223C1417.54 811.575 1417.88 810.879 1418.13 810.151C1418.27 809.49 1421.06 807.344 1421.06 807.344C1421.06 807.344 1415.14 808.667 1415.14 808.28C1415.14 808.28 1412.19 809.877 1412.01 809.877C1411.84 809.877 1412.01 808.904 1413.62 807.768L1411.38 808.08C1411.43 807.585 1411.62 807.113 1411.95 806.724C1412.27 806.335 1412.71 806.047 1413.21 805.897C1413.75 805.186 1414.45 804.597 1415.26 804.175L1424.52 799.297C1424.52 799.297 1423.61 798.86 1424.64 797.613C1424.35 797.522 1424.06 797.447 1423.77 797.388C1423.24 797.263 1427.92 793.52 1428.05 793.533C1428.65 793.13 1429.16 792.606 1429.52 791.998C1429.69 791.524 1433.92 789.178 1433.92 789.178C1433.92 789.178 1437.57 788.941 1440.08 784.188C1442.59 779.434 1448.55 778.91 1448.55 778.91C1448.55 778.91 1450.69 768.842 1460.81 772.672C1460.91 772.747 1467.83 773.096 1468.9 774.855Z" fill="#3F3D56"/>
<path d="M816.791 714.968C817.474 716.016 819.536 715.392 820.193 716.453C820.397 717.04 820.397 717.674 820.193 718.262C820.164 718.87 820.286 719.476 820.551 720.031C820.816 720.585 821.215 721.072 821.716 721.452C822.217 721.832 822.805 722.093 823.433 722.216C824.061 722.338 824.711 722.317 825.328 722.155C825.427 723.783 826.163 725.318 827.39 726.459C828.162 726.921 829.065 727.144 829.976 727.097C830.886 727.05 831.759 726.736 832.473 726.197C833.884 725.087 834.928 723.614 835.481 721.955C836.256 719.996 836.794 717.775 838.594 716.515C839.237 716.053 839.986 715.767 840.616 715.267C841.95 714.128 842.87 712.617 843.243 710.951C843.795 708.888 844.502 706.866 845.358 704.9C846.233 702.921 847.82 701.302 849.836 700.333C851.741 699.497 853.947 699.547 855.93 698.886C857.401 698.341 858.789 697.611 860.054 696.715C861.659 695.551 863.394 694.559 865.229 693.758C866.31 693.325 867.332 692.773 868.276 692.111C868.983 691.77 869.577 691.251 869.994 690.611C870.411 689.97 870.635 689.233 870.64 688.48C870.937 687.068 871.512 685.722 872.334 684.513C873.228 682.941 874.029 681.419 873.451 679.809C872.873 678.2 871.087 677.227 870.483 675.655C870.204 674.569 870.128 673.446 870.259 672.336C870.312 671.775 870.219 671.21 869.991 670.691C869.762 670.171 869.403 669.712 868.946 669.354C867.409 668.381 865.544 669.604 863.692 670.09C863.044 670.292 862.353 670.335 861.683 670.215C861.092 670.013 860.513 669.78 859.949 669.516C857.073 668.418 853.829 670.402 852.227 672.897C850.624 675.393 849.994 678.362 848.615 680.982C848.143 681.998 847.406 682.883 846.474 683.552C846.012 683.888 845.462 684.099 844.885 684.162C844.307 684.226 843.721 684.14 843.19 683.914L841.614 687.27C840.813 688.992 839.986 690.701 839.172 692.423C838.134 694.619 836.926 696.989 834.601 697.963C833.563 698.387 832.408 698.474 831.344 698.823C830.197 699.212 829.176 699.876 828.38 700.75C827.584 701.625 827.039 702.68 826.799 703.814C826.733 704.573 826.592 705.325 826.379 706.06C825.486 708.343 822.439 708.855 820.167 710.052C818.871 710.754 817.786 711.759 817.015 712.972C816.78 713.249 816.635 713.585 816.595 713.939C816.555 714.293 816.624 714.65 816.791 714.968Z" fill="#3F3D56"/>
<path opacity="0.1" d="M816.791 714.968C817.474 716.016 819.536 715.392 820.193 716.453C820.397 717.04 820.397 717.674 820.193 718.262C820.164 718.87 820.286 719.476 820.551 720.031C820.816 720.585 821.215 721.072 821.716 721.452C822.217 721.832 822.805 722.093 823.433 722.216C824.061 722.338 824.711 722.317 825.328 722.155C825.427 723.783 826.163 725.318 827.39 726.459C828.162 726.921 829.065 727.144 829.976 727.097C830.886 727.05 831.759 726.736 832.473 726.197C833.884 725.087 834.928 723.614 835.481 721.955C836.256 719.996 836.794 717.775 838.594 716.515C839.237 716.053 839.986 715.767 840.616 715.267C841.95 714.128 842.87 712.617 843.243 710.951C843.795 708.888 844.502 706.866 845.358 704.9C846.233 702.921 847.82 701.302 849.836 700.333C851.741 699.497 853.947 699.547 855.93 698.886C857.401 698.341 858.789 697.611 860.054 696.715C861.659 695.551 863.394 694.559 865.229 693.758C866.31 693.325 867.332 692.773 868.276 692.111C868.983 691.77 869.577 691.251 869.994 690.611C870.411 689.97 870.635 689.233 870.64 688.48C870.937 687.068 871.512 685.722 872.334 684.513C873.228 682.941 874.029 681.419 873.451 679.809C872.873 678.2 871.087 677.227 870.483 675.655C870.204 674.569 870.128 673.446 870.259 672.336C870.312 671.775 870.219 671.21 869.991 670.691C869.762 670.171 869.403 669.712 868.946 669.354C867.409 668.381 865.544 669.604 863.692 670.09C863.044 670.292 862.353 670.335 861.683 670.215C861.092 670.013 860.513 669.78 859.949 669.516C857.073 668.418 853.829 670.402 852.227 672.897C850.624 675.393 849.994 678.362 848.615 680.982C848.143 681.998 847.406 682.883 846.474 683.552C846.012 683.888 845.462 684.099 844.885 684.162C844.307 684.226 843.721 684.14 843.19 683.914L841.614 687.27C840.813 688.992 839.986 690.701 839.172 692.423C838.134 694.619 836.926 696.989 834.601 697.963C833.563 698.387 832.408 698.474 831.344 698.823C830.197 699.212 829.176 699.876 828.38 700.75C827.584 701.625 827.039 702.68 826.799 703.814C826.733 704.573 826.592 705.325 826.379 706.06C825.486 708.343 822.439 708.855 820.167 710.052C818.871 710.754 817.786 711.759 817.015 712.972C816.78 713.249 816.635 713.585 816.595 713.939C816.555 714.293 816.624 714.65 816.791 714.968Z" fill="black"/>
<path d="M866.094 690.154C866.094 690.154 864.925 692.387 868.379 692.437C871.833 692.487 866.159 706.985 866.159 706.985L860.42 713.934L853.288 710.266L852.881 700.16L852.343 694.047C852.343 694.047 859.015 691.988 857.793 689.256C856.572 686.523 866.094 690.154 866.094 690.154Z" fill="#FBBEBE"/>
<path d="M845.382 749.289C845.382 749.289 841.179 753.232 836.254 748.042L840.037 744.236H844.804L845.382 749.289Z" fill="#3F3D56"/>
<path d="M837.843 744.914C837.093 746.849 836.11 748.695 834.914 750.416C833.679 751.664 831.749 760.522 834.323 759.524C836.897 758.526 841.822 751.077 842.111 749.805C842.341 748.183 842.477 746.55 842.518 744.914H837.843Z" fill="#3F3D56"/>
<path d="M874.629 766.573L851.933 767.409L854.573 758.301L866 758.076L874.629 766.573Z" fill="#3F3D56"/>
<path d="M867.211 781.631C867.75 782.579 867.54 785.873 867.303 788.293C867.146 789.84 866.975 791.025 866.975 791.025C866.975 791.025 875.459 793.521 876.746 791.362C877.118 790.526 877.302 789.625 877.285 788.717C877.328 785.992 877.148 783.268 876.746 780.57C876.746 780.57 877.101 773.184 877.272 772.46C877.272 772.173 877.456 771.213 877.561 770.252C877.705 768.78 877.863 767.133 877.863 767.133L866.279 761.294C866.279 761.294 866.279 762.379 866.279 764.064C866.358 769.354 866.541 780.458 867.211 781.631Z" fill="#3F3D56"/>
<path d="M866.682 833.049H866.813C867.838 833.049 873.643 833.049 873.643 833.049L873.879 832.787C874.393 832.176 874.732 831.451 874.865 830.679C874.999 829.908 874.922 829.118 874.641 828.383C873.909 825.862 873.516 823.263 873.472 820.647C873.248 820.002 873.225 819.309 873.407 818.651C873.614 818.06 873.655 817.428 873.525 816.817C873.579 816.387 873.699 815.967 873.879 815.57C874.047 814.947 874.047 814.295 873.879 813.673C873.923 812.486 874.122 811.308 874.47 810.167C874.996 808.732 878.857 791.552 877.925 789.494C877.925 789.494 869.729 788.159 866.629 789.169L867.037 802.507C867.037 802.507 868.508 806.499 867.273 807.56C866.038 808.62 867.273 811.901 867.273 811.901C867.273 811.901 867.457 812.513 866.406 814.559C865.356 816.605 866.406 817.566 866.406 817.566V821.508C866.863 823.099 866.822 824.781 866.288 826.349C865.211 828.508 866.275 832.987 866.682 833.049Z" fill="#3F3D56"/>
<path d="M850.61 781.63C851.148 782.579 850.938 785.872 850.702 788.293C850.544 789.84 850.374 791.025 850.374 791.025C850.374 791.025 858.858 793.521 860.145 791.362C860.517 790.526 860.701 789.625 860.684 788.717C860.727 785.992 860.547 783.268 860.145 780.57C860.145 780.57 860.5 773.184 860.671 772.46C860.763 772.073 860.933 768.355 861.065 764.974C861.17 762.13 861.262 759.547 861.262 759.547L849.677 761.256C849.677 761.256 849.677 766.097 849.822 771.063C849.966 776.028 850.177 780.869 850.61 781.63Z" fill="#3F3D56"/>
<path d="M850.083 833.049H850.215C851.239 833.049 857.044 833.049 857.044 833.049L857.281 832.787C857.794 832.176 858.133 831.451 858.267 830.679C858.4 829.908 858.323 829.118 858.042 828.383C857.31 825.862 856.917 823.263 856.873 820.647C856.671 819.996 856.671 819.303 856.873 818.651C857.081 818.06 857.122 817.428 856.992 816.817C857.046 816.387 857.165 815.967 857.346 815.57C857.514 814.947 857.514 814.295 857.346 813.673C857.39 812.486 857.589 811.308 857.937 810.167C858.463 808.732 862.324 791.552 861.391 789.494C861.391 789.494 853.196 788.159 850.097 789.169L850.504 802.507C850.504 802.507 851.975 806.499 850.74 807.56C849.505 808.62 850.74 811.901 850.74 811.901C850.74 811.901 850.924 812.513 849.873 814.559C848.822 816.605 849.873 817.566 849.873 817.566V821.508C850.33 823.099 850.289 824.781 849.755 826.349C848.612 828.508 849.676 832.987 850.083 833.049Z" fill="#3F3D56"/>
<path opacity="0.1" d="M861.826 692.687C857.271 692.687 853.578 689.179 853.578 684.852C853.578 680.525 857.271 677.017 861.826 677.017C866.381 677.017 870.074 680.525 870.074 684.852C870.074 689.179 866.381 692.687 861.826 692.687Z" fill="black"/>
<path d="M861.534 692.437C856.979 692.437 853.286 688.929 853.286 684.602C853.286 680.275 856.979 676.767 861.534 676.767C866.089 676.767 869.782 680.275 869.782 684.602C869.782 688.929 866.089 692.437 861.534 692.437Z" fill="#FBBEBE"/>
<path d="M851.829 718.9C852.118 721.068 852.175 723.258 852 725.437C846.668 729.617 847.666 738.388 847.666 738.388C847.666 738.388 843.568 756.142 844.488 757.789C845.407 759.436 842.504 769.292 842.504 769.292C844.945 769.734 847.416 770.005 849.899 770.103C850.775 770.131 851.653 770.106 852.526 770.028C853.118 770.048 853.709 769.947 854.257 769.732C854.805 769.517 855.299 769.192 855.704 768.781C857.346 766.061 864.425 761.994 864.425 761.994C864.425 761.994 868.89 764.551 873.067 766.872C874.38 767.62 875.694 768.344 876.823 768.943C877.728 769.4 878.728 769.66 879.752 769.704C884.717 770.053 891.336 767.096 890.259 766.061C888.946 764.813 882.589 742.356 882.589 742.356C882.589 742.356 879.371 728.457 876.56 726.523C876.069 726.169 875.703 725.682 875.51 725.125C874.551 722.63 876.153 718.513 876.153 718.513C876.153 718.513 885.216 707.895 884.809 707.284C884.501 706.012 884.364 704.708 884.401 703.404C884.401 703.404 883.285 698.226 882.655 695.731C882.024 693.236 877.401 692.612 876.088 692.836C874.774 693.061 871.412 692.836 870.125 691.838C868.838 690.84 866.671 692.225 866.671 692.225L861.64 694.62L856.847 691.938C856.847 691.938 852.04 692.175 851.593 692.786C851.146 693.398 844.868 694.558 844.868 694.558C841.651 696.617 841.769 706.398 841.769 706.398C841.769 706.398 849.492 712.786 851.068 716.068C851.447 716.977 851.703 717.929 851.829 718.9Z" fill="#3F3D56"/>
<path d="M843.45 704.988L841.703 706.323L839.891 721.832L838.065 737.427C838.065 737.427 837.369 738.987 836.752 738.825C836.135 738.662 836.227 748.045 836.227 748.045C836.227 748.045 842.951 744.115 845.355 749.292L847.233 736.728C847.233 736.728 849.636 723.89 849.571 722.892C849.505 721.894 850.805 711.052 850.805 711.052L843.45 704.988Z" fill="#3F3D56"/>
<path d="M883.47 705.713L884.783 707.21C884.783 707.21 884.665 713.66 885.663 715.22C886.661 716.78 882.918 725.887 881.513 725.338C880.107 724.789 876.942 710.554 876.942 710.367C876.942 710.179 883.47 705.713 883.47 705.713Z" fill="#3F3D56"/>
<path d="M883.588 714.885C883.588 714.885 887.685 718.827 887.397 720.724C887.108 722.62 883.181 728.546 877.559 725.365C877.559 725.365 872.358 716.058 883.588 714.885Z" fill="#3F3D56"/>
<path opacity="0.1" d="M866.818 833.06C867.842 833.06 873.647 833.06 873.647 833.06L873.884 832.798C872.4 832.311 869.195 831.588 866.818 833.06Z" fill="black"/>
<path opacity="0.1" d="M850.217 833.06C851.241 833.06 857.046 833.06 857.046 833.06L857.282 832.798C855.798 832.311 852.594 831.588 850.217 833.06Z" fill="black"/>
<path d="M867.684 679.66C867.418 679.634 867.151 679.66 866.896 679.734C866.521 679.908 866.187 680.149 865.911 680.446C865.451 680.806 864.903 681.05 864.318 681.157C863.733 681.264 863.129 681.23 862.562 681.057C862.145 680.877 861.702 680.759 861.248 680.708C860.913 680.732 860.589 680.838 860.308 681.015C860.028 681.191 859.8 681.434 859.646 681.718C859.304 682.267 859.121 682.891 858.818 683.452C858.688 683.746 858.493 684.009 858.246 684.224C857.999 684.44 857.706 684.602 857.387 684.7C857.079 684.713 856.776 684.781 856.494 684.9C856.312 685.035 856.175 685.217 856.1 685.424C855.548 686.547 855.115 687.919 853.946 688.431C853.534 688.611 853.086 688.709 852.632 688.718C852.154 688.748 851.675 688.662 851.24 688.468C850.809 688.237 850.451 687.901 850.203 687.495C849.54 686.296 849.319 684.922 849.572 683.59C849.774 681.907 850.395 680.295 851.385 678.886C852.428 677.465 853.849 676.333 855.504 675.606C857.158 674.878 858.987 674.58 860.802 674.744C861.435 674.822 862.062 674.938 862.68 675.093C864.964 675.566 867.008 676.768 868.472 678.499C868.799 678.939 869.159 679.356 869.549 679.747C868.918 679.722 868.301 679.672 867.684 679.66Z" fill="#3F3D56"/>
<path opacity="0.1" d="M867.684 679.66C867.418 679.634 867.151 679.66 866.896 679.734C866.521 679.908 866.187 680.149 865.911 680.446C865.451 680.806 864.903 681.05 864.318 681.157C863.733 681.264 863.129 681.23 862.562 681.057C862.145 680.877 861.702 680.759 861.248 680.708C860.913 680.732 860.589 680.838 860.308 681.015C860.028 681.191 859.8 681.434 859.646 681.718C859.304 682.267 859.121 682.891 858.818 683.452C858.688 683.746 858.493 684.009 858.246 684.224C857.999 684.44 857.706 684.602 857.387 684.7C857.079 684.713 856.776 684.781 856.494 684.9C856.312 685.035 856.175 685.217 856.1 685.424C855.548 686.547 855.115 687.919 853.946 688.431C853.534 688.611 853.086 688.709 852.632 688.718C852.154 688.748 851.675 688.662 851.24 688.468C850.809 688.237 850.451 687.901 850.203 687.495C849.54 686.296 849.319 684.922 849.572 683.59C849.774 681.907 850.395 680.295 851.385 678.886C852.428 677.465 853.849 676.333 855.504 675.606C857.158 674.878 858.987 674.58 860.802 674.744C861.435 674.822 862.062 674.938 862.68 675.093C864.964 675.566 867.008 676.768 868.472 678.499C868.799 678.939 869.159 679.356 869.549 679.747C868.918 679.722 868.301 679.672 867.684 679.66Z" fill="black"/>
<path opacity="0.1" d="M876.626 698.324C876.626 698.324 876.218 701.431 877.624 702.205C879.029 702.978 876.626 698.324 876.626 698.324Z" fill="black"/>
<path opacity="0.1" d="M869.313 694.683C869.313 694.683 874.264 694.982 874.29 695.656C874.317 696.33 869.313 694.683 869.313 694.683Z" fill="black"/>
<path opacity="0.2" d="M841.705 687.335L860.092 696.78L877.482 705.713L882.578 701.708L872.359 684.578L863.77 670.155C863.122 670.357 862.429 670.396 861.76 670.267C861.165 670.076 860.585 669.843 860.027 669.569C857.15 668.483 853.906 670.467 852.291 672.95C850.675 675.433 850.071 678.414 848.692 681.047C848.22 682.063 847.484 682.947 846.551 683.617C846.088 683.95 845.539 684.16 844.961 684.223C844.384 684.287 843.799 684.202 843.268 683.979L841.705 687.335Z" fill="white"/>
<path d="M878.507 701.52H881.935C882.704 701.52 883.327 702.112 883.327 702.842V712.037C883.327 712.768 882.704 713.36 881.935 713.36H878.507C877.738 713.36 877.115 712.768 877.115 712.037V702.842C877.115 702.112 877.738 701.52 878.507 701.52Z" fill="#3F3D56"/>
<path opacity="0.2" d="M878.507 701.52H881.935C882.704 701.52 883.327 702.112 883.327 702.842V712.037C883.327 712.768 882.704 713.36 881.935 713.36H878.507C877.738 713.36 877.115 712.768 877.115 712.037V702.842C877.115 702.112 877.738 701.52 878.507 701.52Z" fill="black"/>
<path d="M880.421 705.885C879.906 705.885 879.489 705.488 879.489 704.999C879.489 704.51 879.906 704.113 880.421 704.113C880.936 704.113 881.354 704.51 881.354 704.999C881.354 705.488 880.936 705.885 880.421 705.885Z" fill="#3F3D56"/>
<path d="M883.246 719.961C883.246 719.961 882.208 715.357 883.587 713.898C884.967 712.438 884.533 704.79 882.418 704.952C880.304 705.114 877.165 711.19 877.677 712.438C878.189 713.685 880.199 720.286 880.199 720.286L883.246 719.961Z" fill="#3F3D56"/>
<path d="M1581.01 274.91C1580.2 274.91 1579.54 274.284 1579.54 273.513C1579.54 272.741 1580.2 272.115 1581.01 272.115C1581.82 272.115 1582.48 272.741 1582.48 273.513C1582.48 274.284 1581.82 274.91 1581.01 274.91Z" fill="white"/>
<path d="M1423.85 243.818C1423.04 243.818 1422.38 243.193 1422.38 242.421C1422.38 241.649 1423.04 241.023 1423.85 241.023C1424.66 241.023 1425.32 241.649 1425.32 242.421C1425.32 243.193 1424.66 243.818 1423.85 243.818Z" fill="white"/>
<path d="M713.611 245.613C712.798 245.613 712.14 244.987 712.14 244.216C712.14 243.444 712.798 242.818 713.611 242.818C714.423 242.818 715.082 243.444 715.082 244.216C715.082 244.987 714.423 245.613 713.611 245.613Z" fill="white"/>
<path d="M1581.01 336.543C1580.2 336.543 1579.54 335.917 1579.54 335.145C1579.54 334.374 1580.2 333.748 1581.01 333.748C1581.82 333.748 1582.48 334.374 1582.48 335.145C1582.48 335.917 1581.82 336.543 1581.01 336.543Z" fill="white"/>
<path d="M666.498 294.236C665.686 294.236 665.027 293.61 665.027 292.839C665.027 292.067 665.686 291.441 666.498 291.441C667.311 291.441 667.969 292.067 667.969 292.839C667.969 293.61 667.311 294.236 666.498 294.236Z" fill="white"/>
<path d="M654.337 377.931C653.525 377.931 652.866 377.305 652.866 376.533C652.866 375.761 653.525 375.136 654.337 375.136C655.15 375.136 655.808 375.761 655.808 376.533C655.808 377.305 655.15 377.931 654.337 377.931Z" fill="white"/>
<path d="M361.383 280.564C360.571 280.564 359.912 279.939 359.912 279.167C359.912 278.395 360.571 277.77 361.383 277.77C362.196 277.77 362.854 278.395 362.854 279.167C362.854 279.939 362.196 280.564 361.383 280.564Z" fill="white"/>
<path d="M1245.9 216.918C1245.09 216.918 1244.43 216.292 1244.43 215.52C1244.43 214.749 1245.09 214.123 1245.9 214.123C1246.71 214.123 1247.37 214.749 1247.37 215.52C1247.37 216.292 1246.71 216.918 1245.9 216.918Z" fill="white"/>
<path d="M548.019 231.269C547.207 231.269 546.548 230.644 546.548 229.872C546.548 229.1 547.207 228.475 548.019 228.475C548.832 228.475 549.49 229.1 549.49 229.872C549.49 230.644 548.832 231.269 548.019 231.269Z" fill="white"/>
<path d="M688.184 465.265C687.371 465.265 686.713 464.64 686.713 463.868C686.713 463.096 687.371 462.471 688.184 462.471C688.996 462.471 689.655 463.096 689.655 463.868C689.655 464.64 688.996 465.265 688.184 465.265Z" fill="white"/>
<path d="M1425.33 522.219C1424.52 522.219 1423.86 521.593 1423.86 520.821C1423.86 520.049 1424.52 519.424 1425.33 519.424C1426.15 519.424 1426.81 520.049 1426.81 520.821C1426.81 521.593 1426.15 522.219 1425.33 522.219Z" fill="white"/>
<path d="M667.969 479.398C667.157 479.398 666.498 478.773 666.498 478.001C666.498 477.229 667.157 476.604 667.969 476.604C668.781 476.604 669.44 477.229 669.44 478.001C669.44 478.773 668.781 479.398 667.969 479.398Z" fill="white"/>
<path d="M311.963 376.394C311.151 376.394 310.492 375.769 310.492 374.997C310.492 374.225 311.151 373.6 311.963 373.6C312.776 373.6 313.434 374.225 313.434 374.997C313.434 375.769 312.776 376.394 311.963 376.394Z" fill="white"/>
<path d="M1299.2 322.881C1298.38 322.881 1297.72 322.255 1297.72 321.483C1297.72 320.712 1298.38 320.086 1299.2 320.086C1300.01 320.086 1300.67 320.712 1300.67 321.483C1300.67 322.255 1300.01 322.881 1299.2 322.881Z" fill="white"/>
<defs>
<linearGradient id="paint0_linear" x1="953.483" y1="1137.02" x2="953.483" y2="0.0215509" gradientUnits="userSpaceOnUse">
<stop stop-opacity="0.2"/>
<stop offset="0.48" stop-color="white" stop-opacity="0"/>
<stop offset="1" stop-color="white" stop-opacity="0"/>
</linearGradient>
</defs>
</svg>
